<svg width="66" height="65" fill="none" xmlns="http://www.w3.org/2000/svg"><path d="M31.98.198c-2.863.38-4.043.665-6.512 1.6-3.555 1.344-7.639 4.085-10.176 6.839-.827.909-3.188 3.92-3.188 4.083 0 .041-.258.489-.57.991-.312.515-.8 1.452-1.085 2.09-.299.637-.597 1.275-.665 1.424-.23.53-1.072 3.215-1.276 4.11a23.874 23.874 0 00-.61 5.537c0 2.55-.271 4.49-.936 6.498-.15.475-.746 1.927-2.429 5.916-.678 1.614-1.275 3.175-1.33 3.473-.162 1.085.489 2.496 1.466 3.107.285.19.841.407 1.234.516 1.913.502 3.297.936 3.447 1.085.095.081.23.543.298 1.031.136.882.23 1.465.896 5.563.203 1.234.447 2.808.542 3.5.109.814.299 1.506.543 1.968.448.868 1.425 1.885 2.225 2.347 1.18.65 1.94.732 7.177.732 4.193 0 5.007-.04 6.065-.258 3.324-.691 5.929-3.025 6.906-6.186.285-.923.461-2.497.325-3.026-.257-.963-1.397-1.275-2.157-.597-.366.326-.434.502-.529 1.384-.15 1.235-.258 1.615-.746 2.578-.53 1.045-1.669 2.103-2.904 2.7l-1.03.488-5.59.041c-5.373.04-5.617.027-6.133-.23-.99-.516-1.248-1.045-1.574-3.203-.244-1.668-.57-3.758-.678-4.273-.027-.19-.217-1.344-.407-2.578-.42-2.727-.53-3.12-1.1-3.785-.528-.625-1.37-1.005-3.31-1.52-2.008-.53-2.17-.597-2.17-.99 0-.177.162-.679.352-1.113a69.16 69.16 0 00.869-2.022c.284-.678.854-2.048 1.288-3.052 1.629-3.88 1.913-5.142 2.09-9.525.19-4.246.556-6.16 1.777-9.198 1.275-3.162 2.944-5.658 5.495-8.222 2.578-2.592 5.17-4.301 8.317-5.522 3.582-1.384 5.047-1.642 8.982-1.656 3.704 0 5.047.204 8.1 1.221 8.493 2.85 14.87 10.325 16.484 19.334.23 1.303.23 6.743 0 8.073-.448 2.605-1.425 5.468-2.524 7.462-.814 1.479-.977 1.75-1.614 2.686-.814 1.221-1.642 3.12-2.008 4.64-.285 1.167-.299 1.547-.353 9.308-.068 8.94-.081 8.846.774 9.28.488.258.99.19 1.492-.204l.34-.257.08-8.182c.068-7.109.109-8.316.313-9.198.339-1.452.963-2.822 2.075-4.545 2.456-3.826 3.704-7.286 4.301-11.967.489-3.785.041-7.923-1.289-11.912-.366-1.1-1.75-4.084-2.388-5.156-2.55-4.274-6.824-8.249-11.26-10.501C45.831 2.002 42.928.97 41.07.59c-2.999-.61-6.39-.76-9.09-.393z" fill="#8B0F1A"/><path d="M31.627 7.524c-2.089.57-4.233 2.076-5.359 3.758-.57.855-1.275 2.253-1.275 2.524 0 .258-.176.326-1.167.434-3.433.394-6.377 2.958-7.313 6.363-.325 1.153-.298 3.42.054 4.586.923 3.134 3.542 5.522 6.662 6.078 1.479.258 1.493.272 1.493.516 0 .828 1.52 2.835 2.645 3.5 1.18.679 1.615.774 4.477.855 3.012.095 3.365.19 4.22 1.126.923.99.923.99 1.004 4.152l.068 2.903.448.394c.637.57 1.37.502 1.953-.204.204-.258.23-.61.245-3.08 0-2.157-.055-2.957-.218-3.527-.407-1.411-1.22-2.51-2.51-3.392-1.288-.868-1.655-.95-4.667-1.058-1.56-.055-2.876-.163-3.093-.258-1.208-.502-2.035-1.75-2.035-3.026 0-1.818 1.072-3.025 3.012-3.35 1.234-.218 1.723-.72 1.56-1.602-.136-.773-.651-1.14-1.56-1.14-2.361 0-4.6 1.724-5.55 4.26-.135.367-.176.38-.718.3-3.243-.49-5.536-3.65-4.925-6.798.46-2.402 2.17-4.22 4.504-4.762.841-.19.8-.23.936.814.176 1.316 1.357 1.858 2.266 1.044.434-.38.434-.393.461-1.79.027-1.466.217-2.375.733-3.392 1.058-2.049 2.862-3.338 5.264-3.731.99-.163 1.262-.15 2.17.027 2.172.447 3.84 1.668 4.967 3.622.637 1.113 1.044 1.357 2.035 1.29 1.858-.15 3.54.46 4.803 1.75 1.818 1.858 2.157 4.504.895 6.987-.407.814-.407 1.289 0 1.804.285.353.407.407 1.031.407.651 0 .733-.04 1.167-.543.434-.529.448-.542.665-.27.122.148.38.61.583 1.017.312.637.366.922.366 1.967 0 1.479-.298 2.212-1.356 3.27-2.158 2.17-6.01 1.533-7.313-1.208-.638-1.343-.624-1.465.312-2.347 1.194-1.126 1.696-2.184 1.764-3.758.054-1.37-.095-1.845-.652-2.17-.556-.327-1.153-.286-1.6.094-.34.299-.38.434-.462 1.533-.108 1.506-.475 2.157-1.52 2.687-1.22.596-2.265.393-3.364-.692-.489-.475-.72-.611-1.126-.625a1.386 1.386 0 00-1.384 1.71c.122.488 1.289 1.628 2.076 2.021.366.19 1.058.421 1.546.502.475.096.95.204 1.045.258.095.041.312.475.475.964.841 2.496 2.523 4.083 5.183 4.897.787.245 2.971.204 3.894-.067 2.618-.76 4.572-2.958 5.196-5.82.217-.978.217-1.14.014-2.348-.299-1.764-.828-2.822-2.076-4.097l-.99-.99v-1.168c0-3.324-2.05-6.485-5.048-7.815-.882-.393-2.456-.773-3.188-.773-.624 0-.679-.04-1.18-.787-.679-1.004-2.402-2.51-3.488-3.052-1.6-.815-2.645-1.045-4.531-1.032-1.113.014-1.913.095-2.524.258z" fill="#8B0F1A"/><path d="M33.947 15.34c-1.994.338-4.07 1.926-4.07 3.079 0 .868.896 1.614 1.655 1.37.177-.054.665-.42 1.086-.814.624-.57.909-.733 1.397-.814 1.031-.15 1.791.04 2.402.597.705.638.922 1.167.922 2.239 0 .732.055.909.394 1.316.312.393.475.475.909.461 1.194 0 1.682-.868 1.451-2.578-.19-1.33-.678-2.306-1.614-3.27-.638-.637-.99-.881-1.75-1.166-.95-.353-2.13-.53-2.782-.42z" fill="#8B0F1A"/></svg>