<svg width="66" height="65" fill="none" xmlns="http://www.w3.org/2000/svg"><g clip-path="url(#clip0_82_109)"><path d="M48.591 0c-6.25 0-12.867 1.38-15.599 4.342C30.262 1.38 23.645 0 17.395 0 9.258 0 .5 2.334.5 7.459v55.9c.002.218.037.434.103.634.066.201.162.383.282.535a1.3 1.3 0 00.418.354 1.022 1.022 0 00.642.107h62.089a1.021 1.021 0 00.64-.106c.156-.08.298-.2.418-.352.12-.152.217-.333.283-.533.066-.2.101-.415.104-.633v-55.9C65.485 2.333 56.727 0 48.59 0zM4.781 61.72c.635-.364 1.29-.669 1.959-.91 7.003-2.181 14.303-2.181 21.306 0 .67.241 1.324.546 1.959.91H4.781zm26.917-2.576c-3.202-2.204-8.894-3.237-14.304-3.237S6.29 56.94 3.089 59.144V7.469c0-.236.647-1.434 3.641-2.552 7.01-2.186 14.317-2.186 21.326 0 3 1.118 3.642 2.316 3.642 2.552v51.675zm4.28 2.577c.636-.366 1.291-.67 1.96-.91 7.003-2.182 14.303-2.182 21.306 0 .67.24 1.324.545 1.96.91H35.979zm26.917-2.577c-3.201-2.204-8.894-3.237-14.304-3.237S37.49 56.94 34.286 59.144V7.469c0-.236.649-1.434 3.642-2.552 7.009-2.186 14.316-2.186 21.326 0 2.994 1.118 3.641 2.316 3.641 2.552v51.675zm-49.35-46.552c1.25-.12 2.544-.184 3.849-.184a33.158 33.158 0 019.965 1.396c.106.036.216.054.326.054.283.003.558-.116.784-.337.226-.221.39-.533.466-.887.042-.21.052-.429.028-.644a1.959 1.959 0 00-.168-.607 1.544 1.544 0 00-.336-.475 1.141 1.141 0 00-.451-.268 35.235 35.235 0 00-10.618-1.5c-1.375 0-2.732.066-4.048.194-.167.013-.33.069-.48.164a1.37 1.37 0 00-.396.392c-.11.163-.195.353-.25.558a2.116 2.116 0 00-.065.641c.033.439.198.843.459 1.124.261.282.597.417.935.378v.001zm-6.444 1.266c.11 0 .22-.018.326-.054.58-.19 1.204-.364 1.856-.518.164-.036.322-.114.463-.23a1.48 1.48 0 00.36-.443c.096-.178.164-.378.2-.59.037-.212.04-.431.01-.645-.07-.43-.269-.808-.551-1.05-.283-.244-.627-.333-.96-.25-.71.17-1.393.361-2.029.569a1.14 1.14 0 00-.451.267c-.136.128-.25.29-.336.475a1.96 1.96 0 00-.168.608 2.1 2.1 0 00.028.644c.077.353.242.663.468.882.227.22.502.337.784.333v.002zm20.909 5.236c-6.994-2-14.24-2-21.234 0a1.14 1.14 0 00-.451.267c-.136.128-.25.29-.336.475a1.96 1.96 0 00-.168.607 2.1 2.1 0 00.028.645c.093.424.31.785.606 1.003.295.219.644.279.972.167a36.271 36.271 0 0119.932 0c.106.034.216.052.326.052.283.003.558-.115.784-.336.226-.221.39-.533.466-.886.042-.21.052-.43.028-.645a1.963 1.963 0 00-.166-.607 1.548 1.548 0 00-.336-.476 1.141 1.141 0 00-.451-.268v.002zm0 8.45a38.286 38.286 0 00-21.234 0 1.14 1.14 0 00-.451.267c-.135.127-.25.289-.336.474a1.96 1.96 0 00-.167.607 2.1 2.1 0 00.027.644c.093.425.31.785.605 1.004.295.219.645.279.973.166a36.271 36.271 0 0119.932 0c.328.11.677.05.971-.169.295-.218.513-.577.608-1.001.042-.21.051-.43.027-.644a1.959 1.959 0 00-.167-.608 1.544 1.544 0 00-.336-.474 1.141 1.141 0 00-.452-.268v.002zM7.427 39.163a36.271 36.271 0 0119.932 0c.106.035.216.053.326.053a1.11 1.11 0 00.784-.337c.226-.221.39-.533.466-.886.042-.21.052-.43.028-.645a1.96 1.96 0 00-.168-.607 1.546 1.546 0 00-.336-.475 1.14 1.14 0 00-.451-.267c-6.995-2-14.24-2-21.234 0a1.14 1.14 0 00-.452.267c-.135.128-.25.289-.336.475a1.96 1.96 0 00-.167.607 2.1 2.1 0 00.027.645c.093.425.311.786.607 1.005.296.218.646.278.974.165zm20.583 5.289c-6.994-2-14.24-2-21.234 0a1.14 1.14 0 00-.451.267c-.136.128-.25.29-.336.475a1.96 1.96 0 00-.168.607 2.1 2.1 0 00.028.645c.093.424.31.785.606 1.004.295.218.644.278.972.166a36.271 36.271 0 0119.932 0c.106.035.216.053.326.053.283.003.558-.116.784-.337a1.75 1.75 0 00.466-.886 2.1 2.1 0 00.03-.645 1.963 1.963 0 00-.167-.61 1.544 1.544 0 00-.336-.475 1.141 1.141 0 00-.452-.269v.005zm10.615-30.644a36.273 36.273 0 0119.931 0c.107.035.217.053.328.053.282.003.558-.115.784-.336.226-.222.39-.533.466-.887.042-.21.051-.43.027-.645a1.959 1.959 0 00-.167-.607 1.545 1.545 0 00-.336-.475 1.14 1.14 0 00-.452-.267c-6.994-2-14.24-2-21.234 0a1.14 1.14 0 00-.451.267c-.136.128-.25.29-.336.475a1.959 1.959 0 00-.168.607c-.024.215-.014.434.028.645.094.424.312.784.607 1.002.295.217.645.276.973.163v.005zm20.584 5.289c-6.995-2-14.24-2-21.235 0a1.14 1.14 0 00-.452.267 1.56 1.56 0 00-.336.475 1.96 1.96 0 00-.167.608c-.024.215-.015.434.027.644.093.425.31.785.606 1.004.295.218.644.278.973.166a36.271 36.271 0 0119.931 0c.329.11.677.05.972-.17.295-.218.513-.577.607-1 .043-.21.053-.43.03-.645a1.963 1.963 0 00-.168-.61 1.545 1.545 0 00-.336-.476 1.14 1.14 0 00-.452-.268v.005zm0 8.45a38.288 38.288 0 00-21.235 0c-.163.05-.316.14-.452.267a1.546 1.546 0 00-.335.475 1.958 1.958 0 00-.168.606c-.024.215-.015.434.027.644.093.425.31.786.606 1.005.295.218.644.278.973.165a36.271 36.271 0 0119.931 0c.329.11.677.05.972-.169.295-.218.513-.577.607-1a2.12 2.12 0 00.029-.646 1.961 1.961 0 00-.167-.608 1.548 1.548 0 00-.336-.476 1.14 1.14 0 00-.452-.268v.005zM38.625 39.163a36.271 36.271 0 0119.931 0c.107.035.217.053.327.053.282.002.558-.116.783-.337.226-.221.39-.533.467-.886.042-.21.051-.43.027-.644a1.964 1.964 0 00-.167-.608 1.55 1.55 0 00-.335-.475 1.141 1.141 0 00-.452-.267c-6.995-2-14.24-2-21.235 0a1.14 1.14 0 00-.451.267 1.55 1.55 0 00-.337.475 1.96 1.96 0 00-.167.607c-.024.215-.014.434.028.645.093.425.31.786.606 1.005.296.218.646.278.975.165zm20.584 5.289c-6.995-2-14.24-2-21.235 0-.163.049-.317.14-.452.267a1.56 1.56 0 00-.336.475 1.959 1.959 0 00-.167.607c-.024.215-.015.434.027.645.093.424.31.785.606 1.004.295.218.644.278.973.166a36.271 36.271 0 0119.931 0c.107.035.217.053.328.053.282.003.558-.116.784-.337a1.75 1.75 0 00.466-.886c.043-.21.053-.43.029-.645a1.96 1.96 0 00-.166-.61 1.545 1.545 0 00-.336-.475 1.142 1.142 0 00-.452-.269v.005z" fill="#8B0F1A"/></g><defs><clipPath id="clip0_82_109"><path fill="#fff" transform="translate(.5)" d="M0 0h65v65H0z"/></clipPath></defs></svg>