<svg width="66" height="65" viewBox="0 0 66 65" fill="none" xmlns="http://www.w3.org/2000/svg">
<path d="M32.0015 0.19639C31.3292 0.622985 31.3163 0.726401 31.3163 5.17333V9.31001L31.7946 9.74953C32.4798 10.37 33.1649 10.37 33.7854 9.74953L34.2249 9.31001V5.09577V0.881527L33.863 0.480786C33.4105 -0.0233707 32.5444 -0.152642 32.0015 0.19639Z" fill="#8B0F1A"/>
<path d="M53.9388 8.39216C53.538 8.61192 48.1862 13.9637 47.9794 14.3516C47.6303 15.0238 47.8113 15.864 48.4447 16.3553C48.5482 16.4458 48.923 16.5233 49.2721 16.5233H49.9055L52.8012 13.6406C54.4041 12.0635 55.7873 10.6156 55.8908 10.4217C56.5371 9.18071 55.1539 7.7458 53.9388 8.39216Z" fill="#8B0F1A"/>
<path d="M10.7493 8.76705C10.258 8.96095 9.92194 9.52975 9.92194 10.1761V10.7708L12.8693 13.7052L15.8038 16.6526H16.4372C16.9672 16.6526 17.1223 16.588 17.4972 16.2131C17.8463 15.864 17.9367 15.6701 17.9367 15.2694C17.9367 14.9979 17.8333 14.623 17.7041 14.4421C17.4455 14.0284 12.5849 9.19364 12.1195 8.87046C11.7705 8.62485 11.2017 8.58607 10.7493 8.76705Z" fill="#8B0F1A"/>
<path d="M30.2175 15.4245C25.6284 16.213 21.7761 18.695 19.2424 22.4827C17.3809 25.2491 16.5148 28.1318 16.5148 31.5187C16.5148 35.3581 17.4972 38.1116 20.7032 43.3212C23.2239 47.4062 23.7281 48.6084 23.8444 50.9094C23.922 52.4477 23.9866 52.6287 24.5684 52.9778C24.9691 53.2234 25.2923 53.2363 32.9064 53.2363C41.6063 53.2363 41.3736 53.2621 41.7873 52.4607C41.9166 52.2151 41.9812 51.7238 41.9812 51.0516C41.9812 48.6859 42.5112 47.264 45.1483 42.6361C47.3459 38.7838 48.1991 36.8964 48.7421 34.7634C48.9748 33.8327 49.0265 33.2768 49.0265 31.3895C49.0265 29.3211 49.0006 29.0109 48.6645 27.7182C47.6174 23.6978 45.5361 20.647 42.1622 18.178C40.4041 16.8982 37.7282 15.8123 35.3884 15.4245C33.9276 15.1918 31.5749 15.1918 30.2175 15.4245ZM36.0347 18.5787C36.6423 18.7338 37.7411 19.1475 38.4779 19.4965C42.1622 21.2546 44.67 24.3183 45.7559 28.3387C45.9886 29.1919 46.0403 29.7477 46.0532 31.3895C46.0532 33.2122 46.0274 33.4966 45.6913 34.6212C45.2259 36.1854 44.3339 38.0599 42.5629 41.1494C40.236 45.2086 39.4475 47.0959 39.1372 49.216L38.9821 50.2631H32.9193H26.8694L26.7918 49.7718C26.3911 47.251 25.8094 45.9583 23.2498 41.7958C21.6598 39.2104 20.4188 36.6896 19.9146 35.0737C19.5914 33.9878 19.5656 33.7551 19.5656 31.5187C19.5656 29.2823 19.5914 29.0497 19.9146 27.9767C21.4788 22.9222 25.3698 19.3543 30.3726 18.3977C31.7429 18.1392 34.6127 18.2297 36.0347 18.5787Z" fill="#8B0F1A"/>
<path d="M31.2129 21.5649C27.8777 22.1724 25.1113 24.3054 23.741 27.3304C22.151 30.8336 22.8749 35.2805 25.4733 38.034C26.1067 38.7062 26.1972 38.7579 26.753 38.7579C27.5157 38.7579 28.0975 38.3055 28.2267 37.6462C28.3301 37.0774 28.188 36.7672 27.4382 35.8493C25.1501 33.0312 25.2793 29.2177 27.7614 26.5677C29.0799 25.1586 30.8251 24.4088 32.8029 24.4088C34.5222 24.4088 36.1252 24.9906 37.3403 26.0764C38.3874 26.9943 39.2148 27.0847 39.8353 26.335C40.3653 25.7145 40.3007 24.9518 39.6931 24.2666C38.7494 23.2325 36.9138 22.1854 35.272 21.7588C34.2895 21.5132 32.0919 21.3968 31.2129 21.5649Z" fill="#8B0F1A"/>
<path d="M2.13982 30.3165C1.71322 30.588 1.51932 31.0017 1.51932 31.6351C1.51932 32.2685 2.04933 32.889 2.69569 33.0054C2.9413 33.0442 4.77695 33.07 6.78065 33.0442L10.4261 33.0054L10.8139 32.6305C11.5378 31.9324 11.4603 30.8336 10.6459 30.3424C10.271 30.1226 9.93487 30.0968 6.36699 30.0968C2.98008 30.1097 2.45007 30.1356 2.13982 30.3165Z" fill="#8B0F1A"/>
<path d="M55.0376 30.4458C54.5205 30.9112 54.3783 31.6997 54.7273 32.2815C55.1669 33.0312 55.3996 33.07 59.4974 33.07C63.5824 33.07 63.9056 33.0183 64.2805 32.2815C64.6166 31.648 64.5261 31.0275 64.0349 30.5363L63.5953 30.0968H59.5104H55.4254L55.0376 30.4458Z" fill="#8B0F1A"/>
<path d="M15.9331 46.3979C15.6228 46.553 10.1934 52.2151 9.96073 52.6417C9.87024 52.7839 9.80561 53.1329 9.79268 53.4044C9.79268 53.8051 9.88317 53.999 10.2322 54.3481C10.6071 54.723 10.7622 54.7876 11.2922 54.7876C11.9127 54.7876 11.9257 54.7747 13.1279 53.5207C15.9848 50.5604 17.7816 48.6343 17.9238 48.3628C18.5443 47.1865 17.1482 45.8033 15.9331 46.3979Z" fill="#8B0F1A"/>
<path d="M48.3672 46.8245C47.9923 47.1994 47.9277 47.3545 47.9277 47.8845V48.5179L50.8751 51.4524L53.8095 54.3998H54.4171C55.4642 54.3998 56.1364 53.5207 55.8778 52.4995C55.8003 52.1634 51.0819 47.3157 50.2158 46.6823C49.5953 46.2298 48.9101 46.2816 48.3672 46.8245Z" fill="#8B0F1A"/>
<path d="M25.7318 56.5456C25.2147 56.8042 24.8657 57.5022 24.9691 58.071C25.0208 58.3037 25.2276 58.6657 25.4474 58.8725L25.8352 59.2474L32.7124 59.2862C37.7023 59.312 39.6802 59.2733 39.9516 59.1698C40.8824 58.782 41.128 57.5927 40.4429 56.83L40.068 56.4034L33.1003 56.3776C26.9728 56.3388 26.0938 56.3647 25.7318 56.5456Z" fill="#8B0F1A"/>
<path d="M28.2526 62.3629C27.6062 62.699 27.3218 63.6297 27.645 64.2632C28.0199 65 27.9553 65 32.8934 65H37.4308L37.8316 64.6639C38.3357 64.2373 38.465 63.6297 38.1677 63.0092C37.7669 62.169 37.7023 62.156 32.9064 62.156C29.3514 62.169 28.537 62.1948 28.2526 62.3629Z" fill="#8B0F1A"/>
</svg>
