<svg width="66" height="65" viewBox="0 0 66 65" fill="none" xmlns="http://www.w3.org/2000/svg">
<path d="M31.9802 0.197716C29.1175 0.577606 27.9371 0.862526 25.4678 1.79868C21.9131 3.14187 17.8293 5.88251 15.2922 8.63671C14.4646 9.54573 12.1038 12.5577 12.1038 12.7205C12.1038 12.7612 11.846 13.209 11.534 13.711C11.2219 14.2265 10.7335 15.1627 10.4486 15.8004C10.1501 16.438 9.85161 17.0757 9.78377 17.225C9.55312 17.7541 8.71194 20.4405 8.50842 21.3359C8.07426 23.2896 7.89788 24.8906 7.89788 26.8715C7.89788 29.4221 7.62653 31.3623 6.96173 33.3703C6.81248 33.8452 6.21551 35.2969 4.53314 39.2857C3.85476 40.9003 3.25779 42.4605 3.20352 42.759C3.04071 43.8444 3.69195 45.2554 4.66881 45.866C4.95373 46.0559 5.51 46.273 5.90346 46.3815C7.81648 46.8835 9.20037 47.3177 9.34961 47.4669C9.44458 47.5484 9.58026 48.0097 9.64809 48.4981C9.78377 49.38 9.87874 49.9634 10.5436 54.0608C10.7471 55.2954 10.9913 56.8692 11.0863 57.5612C11.1948 58.3752 11.3847 59.0672 11.629 59.5285C12.0767 60.3968 13.0535 61.4144 13.854 61.8757C15.0344 62.5269 15.7942 62.6083 21.0312 62.6083C25.2236 62.6083 26.0377 62.5676 27.0959 62.3505C30.42 61.6586 33.0249 59.325 34.0018 56.1637C34.2867 55.2411 34.4631 53.6673 34.3274 53.1382C34.0696 52.1749 32.93 51.8628 32.1702 52.5412C31.8039 52.8668 31.736 53.0432 31.641 53.9251C31.4918 55.1597 31.3833 55.5396 30.8948 56.5029C30.3657 57.5476 29.226 58.6059 27.9914 59.2029L26.9602 59.6913L21.3704 59.732C15.9977 59.7727 15.7535 59.7591 15.2379 59.5013C14.2475 58.9858 13.9897 58.4566 13.6641 56.2994C13.4199 54.6306 13.0942 52.5412 12.9857 52.0256C12.9586 51.8357 12.7686 50.6825 12.5787 49.4478C12.1581 46.7207 12.0495 46.3273 11.4797 45.6625C10.9506 45.0384 10.1094 44.6585 8.16923 44.1429C6.16124 43.6138 5.99843 43.5459 5.99843 43.1525C5.99843 42.9761 6.16124 42.4741 6.35119 42.0399C6.5547 41.5922 6.94816 40.6832 7.21951 40.0184C7.50443 39.34 8.07426 37.9697 8.50842 36.9657C10.1365 33.0854 10.4214 31.8236 10.5978 27.4413C10.7878 23.1947 11.1541 21.2816 12.3752 18.2425C13.6505 15.0813 15.3193 12.5849 17.87 10.0206C20.4478 7.4292 23.0392 5.7197 26.1869 4.49862C29.7687 3.11473 31.234 2.85695 35.1686 2.84338C38.8725 2.84338 40.2157 3.04689 43.2684 4.06446C51.7617 6.91364 58.1384 14.3893 59.7529 23.3982C59.9836 24.7007 59.9836 30.1412 59.7529 31.4708C59.3052 34.0758 58.3284 36.9386 57.2294 38.933C56.4153 40.4118 56.2525 40.6832 55.6148 41.6194C54.8008 42.8404 53.9732 44.7399 53.6069 46.2594C53.3219 47.4262 53.3084 47.8061 53.2541 55.5668C53.1863 64.5078 53.1727 64.4128 54.0275 64.8469C54.5159 65.1047 55.0179 65.0369 55.5199 64.6434L55.8591 64.3856L55.9405 56.2044C56.0083 49.0951 56.049 47.8875 56.2525 47.0057C56.5917 45.5539 57.2158 44.1836 58.3284 42.4605C60.7841 38.6345 62.0323 35.1748 62.6293 30.494C63.1177 26.7086 62.67 22.5706 61.3403 18.5817C60.974 17.4827 59.5901 14.4979 58.9525 13.426C56.4018 9.15228 52.128 5.17699 47.6914 2.92479C45.8327 2.0022 42.9292 0.971062 41.0705 0.591171C38.072 -0.0193634 34.6802 -0.16861 31.9802 0.197716Z" fill="#8B0F1A"/>
<path d="M31.6274 7.52419C29.538 8.09402 27.3944 9.60001 26.2683 11.2824C25.6984 12.1371 24.9929 13.5346 24.9929 13.8059C24.9929 14.0637 24.8165 14.1316 23.8261 14.2401C20.3935 14.6336 17.4494 17.1978 16.5132 20.6033C16.1876 21.7565 16.2147 24.0223 16.5675 25.1891C17.4901 28.3232 20.1086 30.7111 23.2291 31.2673C24.708 31.5251 24.7216 31.5387 24.7216 31.7829C24.7216 32.6105 26.2411 34.6185 27.3672 35.2833C28.5476 35.9617 28.9818 36.0567 31.8445 36.1381C34.8565 36.2331 35.2092 36.328 36.064 37.2642C36.9866 38.2546 36.9866 38.2546 37.068 41.4158L37.1358 44.3193L37.5836 44.7128C38.2212 45.2826 38.9539 45.2148 39.5373 44.5092C39.7408 44.2515 39.7679 43.8987 39.7815 41.4294C39.7815 39.2722 39.7272 38.4717 39.5644 37.9019C39.1574 36.4908 38.3433 35.3919 37.0544 34.51C35.7655 33.6417 35.3992 33.5603 32.3872 33.4517C30.8269 33.3974 29.5109 33.2889 29.2938 33.1939C28.0863 32.6919 27.2587 31.4437 27.2587 30.1684C27.2587 28.3503 28.3305 27.1428 30.2707 26.8172C31.5053 26.6001 31.9937 26.0981 31.8309 25.2162C31.6953 24.4429 31.1797 24.0766 30.2707 24.0766C27.9099 24.0766 25.6713 25.7996 24.7216 28.3368C24.5859 28.7031 24.5452 28.7167 24.0025 28.6352C20.7598 28.1468 18.4669 24.9856 19.0775 21.8379C19.5388 19.4365 21.2483 17.6184 23.5819 17.0757C24.4231 16.8858 24.3824 16.8451 24.518 17.8898C24.6944 19.2058 25.8748 19.7485 26.7838 18.9345C27.218 18.5546 27.218 18.541 27.2451 17.1436C27.2722 15.6783 27.4622 14.7692 27.9778 13.7517C29.036 11.703 30.8405 10.4141 33.242 10.0206C34.2324 9.8578 34.5037 9.87136 35.4128 10.0477C37.5836 10.4955 39.2524 11.7165 40.3785 13.6703C41.0161 14.7828 41.4232 15.027 42.4136 14.9592C44.2724 14.8099 45.9547 15.4205 47.2165 16.7094C49.0345 18.5681 49.3737 21.2138 48.112 23.6967C47.7049 24.5107 47.7049 24.9856 48.112 25.5011C48.3969 25.8539 48.519 25.9082 49.1431 25.9082C49.7943 25.9082 49.8757 25.8675 50.3099 25.3655C50.7441 24.8363 50.7576 24.8228 50.9747 25.0941C51.0968 25.2434 51.3546 25.7047 51.5581 26.1117C51.8702 26.7494 51.9244 27.0343 51.9244 28.079C51.9244 29.5578 51.6259 30.2905 50.5677 31.3487C48.4104 33.5196 44.5573 32.8819 43.2548 30.1412C42.6171 28.7981 42.6307 28.6759 43.5668 27.7941C44.7608 26.668 45.2628 25.6097 45.3306 24.0359C45.3849 22.6655 45.2356 22.1907 44.6794 21.8651C44.1231 21.5394 43.5261 21.5801 43.0784 21.96C42.7392 22.2585 42.6985 22.3942 42.6171 23.4932C42.5086 24.9991 42.1423 25.6504 41.0976 26.1795C39.8765 26.7765 38.8318 26.573 37.7328 25.4876C37.2444 25.0127 37.0137 24.877 36.6067 24.8635C35.6977 24.8363 35.0057 25.6911 35.2228 26.573C35.3449 27.0614 36.5117 28.2011 37.2986 28.5945C37.665 28.7845 38.3569 29.0151 38.8453 29.0965C39.3202 29.1915 39.7951 29.3001 39.89 29.3543C39.985 29.395 40.2021 29.8292 40.3649 30.3176C41.2061 32.814 42.8885 34.4014 45.5477 35.2155C46.3346 35.4597 48.519 35.419 49.4416 35.1477C52.0601 34.3879 54.0138 32.1899 54.6379 29.3272C54.855 28.3503 54.855 28.1875 54.6515 26.98C54.353 25.2162 53.8239 24.158 52.5757 22.8826L51.5852 21.8922V20.7254C51.5852 17.4013 49.5365 14.2401 46.5381 12.9105C45.6562 12.517 44.0824 12.1371 43.3498 12.1371C42.7257 12.1371 42.6714 12.0964 42.1694 11.3502C41.491 10.3462 39.7679 8.84023 38.6825 8.29753C37.0816 7.48348 36.0369 7.25283 34.151 7.2664C33.0384 7.27997 32.238 7.36137 31.6274 7.52419Z" fill="#8B0F1A"/>
<path d="M33.9475 15.3391C31.953 15.6783 29.8772 17.2657 29.8772 18.4189C29.8772 19.2872 30.7727 20.0334 31.5324 19.7892C31.7088 19.7349 32.1972 19.3686 32.6178 18.9752C33.2419 18.4053 33.5269 18.2425 34.0153 18.1611C35.0464 18.0119 35.8062 18.2018 36.4167 18.7581C37.1223 19.3958 37.3393 19.9249 37.3393 20.9967C37.3393 21.7294 37.3936 21.9057 37.7328 22.3128C38.0448 22.7062 38.2077 22.7876 38.6418 22.7741C39.8358 22.7741 40.3242 21.9057 40.0935 20.1962C39.9036 18.8666 39.4152 17.8898 38.479 16.9265C37.8413 16.2888 37.4886 16.0446 36.7288 15.7597C35.7791 15.4069 34.5987 15.2305 33.9475 15.3391Z" fill="#8B0F1A"/>
</svg>
