<svg width="66" height="65" viewBox="0 0 66 65" fill="none" xmlns="http://www.w3.org/2000/svg">
<g clip-path="url(#clip0_82_109)">
<path d="M48.5913 0C42.3413 0 35.7238 1.37962 32.9925 4.342C30.2613 1.37962 23.6438 0 17.3938 0C9.25752 0 0.5 2.33354 0.5 7.45879V63.3587C0.501793 63.577 0.536731 63.7928 0.602768 63.9935C0.668805 64.1942 0.764639 64.376 0.884827 64.5285C1.00501 64.681 1.14718 64.8011 1.30315 64.882C1.45912 64.9629 1.6258 65.003 1.79372 65C1.84425 64.9995 1.89477 64.9957 1.94501 64.9886H32.8412H32.8612C32.9037 64.9886 32.9475 64.9886 32.9925 64.9886C33.0375 64.9886 33.08 64.9886 33.1175 64.9886H33.1388H64.0338C64.084 64.9957 64.1345 64.9995 64.185 65C64.3525 65.0032 64.5189 64.9635 64.6747 64.8831C64.8304 64.8026 64.9724 64.6831 65.0925 64.5313C65.2127 64.3794 65.3086 64.1983 65.3749 63.9983C65.4411 63.7982 65.4764 63.5831 65.4787 63.3653V7.46524C65.485 2.33349 56.7275 0 48.5913 0ZM4.78123 61.7207C5.41618 61.3556 6.07087 61.0515 6.74001 60.8107C13.7429 58.6289 21.0433 58.6289 28.0462 60.8107C28.7154 61.0515 29.3701 61.3556 30.005 61.7207H4.78123ZM31.6975 59.1435C28.4963 56.94 22.8038 55.9065 17.3938 55.9065C11.9838 55.9065 6.28998 56.94 3.08873 59.1435V7.46851C3.08873 7.23289 3.73626 6.03525 6.73001 4.91725C13.7393 2.73111 21.0469 2.73111 28.0562 4.91725C31.0562 6.03525 31.6975 7.23289 31.6975 7.46851V59.1435ZM35.9787 61.7207C36.614 61.3554 37.2691 61.0512 37.9387 60.8107C44.9412 58.6289 52.2412 58.6289 59.2437 60.8107C59.9133 61.0515 60.5684 61.3557 61.2037 61.7207H35.9787ZM62.895 59.1435C59.6938 56.94 54.0013 55.9065 48.5913 55.9065C43.1813 55.9065 37.4887 56.94 34.2862 59.1435V7.46851C34.2862 7.23289 34.935 6.03525 37.9275 4.91725C44.9368 2.73111 52.2444 2.73111 59.2537 4.91725C62.2475 6.03525 62.895 7.23289 62.895 7.46851V59.1435ZM13.545 12.5922C14.795 12.4719 16.0888 12.4085 17.3938 12.4085C20.7462 12.3607 24.0911 12.8293 27.3587 13.8044C27.4654 13.8397 27.5749 13.8577 27.685 13.858C27.9677 13.8606 28.2433 13.7421 28.4692 13.521C28.6951 13.2999 28.8587 12.9884 28.935 12.6344C28.9772 12.4242 28.9866 12.2051 28.9626 11.9901C28.9386 11.7751 28.8817 11.5686 28.7952 11.3827C28.7087 11.1968 28.5945 11.0354 28.4592 10.908C28.3239 10.7805 28.1703 10.6895 28.0075 10.6405C24.5264 9.59624 20.9624 9.09281 17.39 9.14063C16.015 9.14063 14.6575 9.20566 13.3425 9.33403C13.1755 9.34706 13.0121 9.40282 12.8618 9.49818C12.7114 9.59353 12.577 9.72657 12.4663 9.88965C12.3556 10.0527 12.2708 10.2426 12.2168 10.4484C12.1627 10.6543 12.1404 10.8719 12.1512 11.089C12.1839 11.5278 12.3488 11.9321 12.6099 12.2134C12.8711 12.4947 13.2072 12.6303 13.545 12.5905V12.5922ZM7.10126 13.858C7.21129 13.8577 7.32086 13.8397 7.42749 13.8044C8.00749 13.6142 8.63125 13.4404 9.2825 13.286C9.44721 13.2503 9.60484 13.1724 9.74622 13.0568C9.88759 12.9413 10.0099 12.7905 10.1061 12.613C10.2023 12.4355 10.2704 12.235 10.3064 12.0231C10.3425 11.8111 10.3459 11.5919 10.3163 11.3783C10.2452 10.9477 10.0472 10.5704 9.76468 10.3273C9.48217 10.0843 9.13762 9.99496 8.80498 10.0783C8.09498 10.2489 7.4125 10.439 6.77625 10.647C6.61345 10.696 6.45988 10.7869 6.32458 10.9144C6.18929 11.0419 6.07498 11.2034 5.98851 11.3893C5.90204 11.5752 5.84513 11.7817 5.82112 11.9967C5.79711 12.2117 5.8065 12.4307 5.84874 12.6409C5.92642 12.9937 6.09101 13.3037 6.31726 13.5233C6.54351 13.7428 6.81893 13.8598 7.10126 13.8563V13.858ZM28.01 19.0938C21.0157 17.0939 13.7706 17.0939 6.77625 19.0938C6.61345 19.1427 6.45988 19.2337 6.32458 19.3611C6.18929 19.4886 6.07498 19.6501 5.98851 19.836C5.90204 20.0219 5.84513 20.2284 5.82112 20.4434C5.79711 20.6584 5.8065 20.8774 5.84874 21.0876C5.94191 21.5123 6.15939 21.8726 6.45451 22.0913C6.74964 22.31 7.09891 22.3698 7.42749 22.2577C13.9941 20.3965 20.7921 20.3965 27.3587 22.2577C27.4654 22.2924 27.575 22.3098 27.685 22.3096C27.9676 22.3126 28.2431 22.1945 28.4691 21.9736C28.695 21.7528 28.8587 21.4414 28.935 21.0876C28.9774 20.8775 28.9871 20.6585 28.9634 20.4435C28.9396 20.2285 28.8829 20.022 28.7967 19.8359C28.7104 19.6499 28.5964 19.4882 28.4613 19.3605C28.3262 19.2327 28.1727 19.1415 28.01 19.0922V19.0938ZM28.01 27.5438C21.0158 25.5418 13.7704 25.5418 6.77625 27.5438C6.61358 27.5928 6.46009 27.6837 6.32489 27.8111C6.18969 27.9384 6.0755 28.0998 5.98904 28.2855C5.90259 28.4712 5.84568 28.6775 5.82158 28.8923C5.79748 29.107 5.80669 29.326 5.84874 29.536C5.94162 29.961 6.15907 30.3215 6.45428 30.5403C6.74949 30.759 7.0989 30.8186 7.42749 30.706C13.9941 28.8448 20.7921 28.8448 27.3587 30.706C27.6873 30.816 28.0358 30.7554 28.3305 30.537C28.6252 30.3186 28.8429 29.9596 28.9375 29.536C28.9797 29.3259 28.9891 29.1067 28.9651 28.8918C28.9411 28.6768 28.8842 28.4703 28.7977 28.2844C28.7113 28.0985 28.597 27.9371 28.4617 27.8096C28.3264 27.6821 28.1728 27.5911 28.01 27.5421V27.5438ZM7.42749 39.1625C13.9941 37.3013 20.7921 37.3013 27.3587 39.1625C27.4654 39.1978 27.5749 39.2158 27.685 39.2161C27.9676 39.2181 28.243 39.0995 28.4688 38.8785C28.6946 38.6575 28.8584 38.3462 28.935 37.9925C28.9772 37.7823 28.9866 37.5633 28.9626 37.3483C28.9386 37.1333 28.8817 36.9267 28.7952 36.7408C28.7087 36.5549 28.5945 36.3935 28.4592 36.266C28.3239 36.1386 28.1703 36.0476 28.0075 35.9987C21.0131 33.9988 13.7681 33.9988 6.77373 35.9987C6.61093 36.0476 6.45737 36.1386 6.32207 36.266C6.18677 36.3935 6.07254 36.5549 5.98607 36.7408C5.8996 36.9267 5.84261 37.1333 5.8186 37.3483C5.79459 37.5633 5.80398 37.7823 5.84622 37.9925C5.93937 38.4179 6.15721 38.7788 6.45291 38.9976C6.74861 39.2164 7.09856 39.2756 7.42749 39.1625ZM28.01 44.4518C21.0157 42.452 13.7706 42.452 6.77625 44.4518C6.61345 44.5008 6.45988 44.5918 6.32458 44.7192C6.18929 44.8467 6.07498 45.0082 5.98851 45.1941C5.90204 45.38 5.84513 45.5865 5.82112 45.8015C5.79711 46.0165 5.8065 46.2355 5.84874 46.4457C5.94191 46.8704 6.15939 47.2308 6.45451 47.4495C6.74964 47.6682 7.09891 47.7279 7.42749 47.6158C13.9941 45.7546 20.7921 45.7546 27.3587 47.6158C27.4654 47.651 27.575 47.669 27.685 47.6694C27.9677 47.6717 28.2431 47.5532 28.469 47.3321C28.6948 47.111 28.8586 46.7995 28.935 46.4457C28.9778 46.2354 28.9878 46.0162 28.9642 45.8008C28.9406 45.5855 28.884 45.3783 28.7977 45.1919C28.7115 45.0055 28.5974 44.8436 28.462 44.7157C28.3267 44.5877 28.173 44.4963 28.01 44.447V44.4518ZM38.625 13.8076C45.1916 11.9465 51.9896 11.9465 58.5563 13.8076C58.6633 13.8429 58.7733 13.861 58.8837 13.8613C59.1665 13.8641 59.4422 13.7457 59.6682 13.5246C59.8941 13.3034 60.0577 12.9917 60.1337 12.6376C60.1759 12.4274 60.1854 12.2084 60.1614 11.9934C60.1374 11.7784 60.0804 11.5719 59.9939 11.386C59.9075 11.2001 59.7932 11.0386 59.6579 10.9111C59.5226 10.7836 59.3691 10.6927 59.2063 10.6437C52.212 8.64388 44.9669 8.64388 37.9725 10.6437C37.8097 10.6927 37.6561 10.7836 37.5208 10.9111C37.3855 11.0386 37.2713 11.2001 37.1848 11.386C37.0983 11.5719 37.0414 11.7784 37.0174 11.9934C36.9934 12.2084 37.0028 12.4274 37.045 12.6376C37.1387 13.062 37.3566 13.4218 37.652 13.6396C37.9474 13.8575 38.2967 13.916 38.625 13.8028V13.8076ZM59.2087 19.097C52.214 17.0972 44.9685 17.0972 37.9738 19.097C37.811 19.146 37.6574 19.2369 37.5221 19.3644C37.3868 19.4919 37.2725 19.6533 37.186 19.8392C37.0995 20.0251 37.0426 20.2317 37.0186 20.4467C36.9946 20.6617 37.004 20.8807 37.0462 21.0909C37.1394 21.5156 37.3569 21.8759 37.652 22.0946C37.9471 22.3133 38.2964 22.373 38.625 22.2608C45.1916 20.3996 51.9896 20.3996 58.5563 22.2608C58.8848 22.3708 59.2333 22.3102 59.528 22.0918C59.8227 21.8734 60.0405 21.5144 60.135 21.0909C60.1778 20.8805 60.1877 20.6611 60.1641 20.4456C60.1404 20.2302 60.0837 20.023 59.9973 19.8366C59.9109 19.6502 59.7966 19.4882 59.6611 19.3604C59.5257 19.2325 59.3718 19.1413 59.2087 19.0922V19.097ZM59.2087 27.547C52.2142 25.5449 44.9683 25.5449 37.9738 27.547C37.8111 27.5961 37.6576 27.6869 37.5224 27.8142C37.3872 27.9416 37.273 28.1029 37.1866 28.2886C37.1001 28.4743 37.0432 28.6807 37.0191 28.8955C36.995 29.1103 37.0042 29.3291 37.0462 29.5392C37.1391 29.9641 37.3565 30.3248 37.6517 30.5435C37.9469 30.7623 38.2964 30.8218 38.625 30.7093C45.1916 28.8481 51.9896 28.8481 58.5563 30.7093C58.8848 30.8193 59.2333 30.7586 59.528 30.5402C59.8227 30.3218 60.0405 29.9627 60.135 29.5392C60.1776 29.3289 60.1874 29.1097 60.1636 28.8944C60.1399 28.6792 60.0831 28.4723 59.9968 28.2861C59.9104 28.0998 59.7961 27.938 59.6608 27.8102C59.5254 27.6824 59.3717 27.5912 59.2087 27.5421V27.547ZM38.625 39.1625C45.1916 37.3013 51.9896 37.3013 58.5563 39.1625C58.6629 39.1977 58.7725 39.2157 58.8825 39.2161C59.1652 39.2184 59.4406 39.0999 59.6665 38.8788C59.8923 38.6577 60.0561 38.3464 60.1325 37.9925C60.1747 37.7824 60.1842 37.5635 60.1603 37.3486C60.1363 37.1337 60.0795 36.9272 59.9932 36.7413C59.9068 36.5555 59.7927 36.394 59.6576 36.2664C59.5224 36.1389 59.369 36.0478 59.2063 35.9987C52.2115 33.9988 44.966 33.9988 37.9712 35.9987C37.8084 36.0476 37.6549 36.1386 37.5196 36.266C37.3843 36.3935 37.27 36.5549 37.1835 36.7408C37.097 36.9267 37.0401 37.1333 37.0161 37.3483C36.9921 37.5633 37.0015 37.7823 37.0437 37.9925C37.1369 38.4179 37.3547 38.7788 37.6504 38.9976C37.9461 39.2164 38.2961 39.2756 38.625 39.1625ZM59.2087 44.4518C52.214 42.452 44.9685 42.452 37.9738 44.4518C37.811 44.5008 37.6574 44.5918 37.5221 44.7192C37.3868 44.8467 37.2725 45.0082 37.186 45.1941C37.0995 45.38 37.0426 45.5865 37.0186 45.8015C36.9946 46.0165 37.004 46.2355 37.0462 46.4457C37.1394 46.8704 37.3569 47.2308 37.652 47.4495C37.9471 47.6682 38.2964 47.7279 38.625 47.6158C45.1916 45.7546 51.9896 45.7546 58.5563 47.6158C58.6633 47.6511 58.7733 47.6691 58.8837 47.6694C59.1664 47.6717 59.4419 47.5532 59.6678 47.3321C59.8936 47.111 60.0573 46.7995 60.1337 46.4457C60.1766 46.2354 60.1865 46.0162 60.1629 45.8008C60.1394 45.5855 60.0828 45.3783 59.9965 45.1919C59.9103 45.0055 59.7961 44.8436 59.6608 44.7157C59.5254 44.5877 59.3717 44.4963 59.2087 44.447V44.4518Z" fill="#8B0F1A"/>
</g>
<defs>
<clipPath id="clip0_82_109">
<rect width="65" height="65" fill="white" transform="translate(0.5)"/>
</clipPath>
</defs>
</svg>
