<svg width="133" height="134" fill="none" xmlns="http://www.w3.org/2000/svg"><g clip-path="url(#clip0_118_190)"><path d="M56.79 51.298v.03l-.5-1.39.07-.56.08-.82-.7-2.19-.76-2.17-.25-.73-.26.73-.09.27a39.62 39.62 0 00-1.9 7.93c-.11.84-.2 1.7-.26 2.56-.02.26-.05.5-.07.75l-.33 2.98-.32 2.88s0 .62.03 1.33c.02.89.04 1.92.05 2.01l.06.34c.13.75.32 1.55.93 2.14l.41.32.33-.78.19-.48.16-.08-.66-.57s-.02-.01-.03-.02c.04-.04.08-.1.08-.1.11-.13.23-.28.33-.43a1.674 1.674 0 00.26-1.38s-.15-.37-.24-.58c0 0 .07-.2.15-.39.07-.2.15-.4.15-.41v-.65l.13-.41s.15-.44.15-.43l.5-1.04.28-.49c.43-.84.56-1.89.69-2.9l.5-1.61.19-.6c.25-.64.5-1.3.62-1.95.06-.37.1-.73.05-1.09l-.02-.02zm-3.85 12.97c0 .38-.2.61-.47.93 0 0-.02.02-.03.04h-.03c-.04-.2-.09-.38-.13-.61l-.02-1.75h.51c-.06.18-.12.39-.12.39s.19.57.25.73c.02.09.03.18.03.26l.01.01zm3.03-11.88c-.12.54-.29 1.1-.53 1.68l-.27.88h-2.22c.07-.86.17-1.71.29-2.56h2.73zm69.07 15.5l-.02 1.74c0 .38.29.7.67.71.37 0 .69-.28.69-.66l.02-1.78c0-29.65-21.19-54.69-50.38-59.54a.689.689 0 00-.79.56c-.06.37.19.72.56.78 28.53 4.74 49.24 29.22 49.24 58.2l.01-.01zM0 67.598c0 36.53 29.71 66.24 66.25 66.24 17.69 0 34.33-6.89 46.84-19.4 12.51-12.51 19.4-29.15 19.4-46.84 0-17.69-6.89-34.33-19.4-46.84-11.86-11.85-27.4-18.65-44.04-19.34l3.42 3.83c14.39 1.41 27.73 7.69 38.09 18.05 11.83 11.84 18.35 27.57 18.35 44.31 0 2.91-.21 5.79-.6 8.62l-5.81-1.06c-.48-.76-1.42-1.26-2.45-1.2-1.29.1-2.23 1.04-2.33 2.16l-3.62 3.07c-.22-.04-.44-.09-.67-.07-1.12.08-1.99.8-2.27 1.73-.05 0-.09-.03-.15-.04-.7-.05-1.33.16-1.84.52l-3.84-.94c-.42-.61-1.1-1.07-1.95-1.13-1.43-.1-2.67.85-2.8 2.14 0 .08.03.14.03.22l-3.28 1.83c-.28-.12-.57-.21-.89-.23-1.43-.1-2.67.85-2.79 2.14-.04.36.05.7.19 1.02l-2.43 3.66s-.03-.01-.05-.01c-1.43-.11-2.68.85-2.8 2.14-.05.62.18 1.21.59 1.66l-1.97 2.98c-.12-.02-.22-.08-.34-.09-.41-.03-.79.01-1.15.12l-2.11-3.18c.2-.37.33-.77.29-1.2-.1-1.11-1.05-1.93-2.22-2.09l-2.56-3.86c.17-.34.27-.71.24-1.12-.07-.82-.63-1.47-1.38-1.83l.37-2.61.12-.73s.42-2.05.42-2.06l.71-2.73.33-1.64c.04-.2.08-.41.12-.62h.63c.11.19.25.36.48.49 0 0 .1.02.13.02l-.02.02c-.32.19-.83.47-.83 1.07 0 .04 0 .08.02.13-.27.12-.59.19-.71.5-.06.15-.09.31-.09.46 0 .3.11.58.33.78l.03.13 1-.15.48-.05h.19l1.17-.78.59-.42.22-.12.46-.31.56-1.39.1-.38h42.65l-7.42-7.94H84.68v-.12l-.29-2.23h33.87l-7.42-7.94H83.57l-.1-.97-.36-1.59h26.64l-7.66-8.2H82.1c.02-.82.05-1.67.12-2.56h18.79l-7.67-8.2H82.65c-.06-.21-.12-.42-.21-.62l-.79-.98-.17-.17-.2-.22s-.36-.31-.64-.56h11.62l-7.65-8.2h-9.67c.04-.09.08-.15.11-.26l.26-.69.45-1.61h7.75l-7.65-8.2h-2.4c-.05-.12-.1-.23-.1-.35 0-.09.02-.18.07-.28l.1-.16-.8-1.4-.21-.16-.42-.22h2.67L66.35.338l-8.43 9.01h5.58l-.71.31-.41.24-1.4 1.06c-.18.27-.34.6-.49.95h-3.65l-7.66 8.2h12.49s.04.07.05.1l.85.94.92 1.16.07.29s.01.04.02.07h-15.5l-7.66 8.2h10.79l-.64.83-.62 1.73H39.33l-7.66 8.2h16.59l-.3 2.56H30.59l-7.65 8.2h24.07c-.11.84-.16 1.7-.17 2.56H21.85l-7.42 7.94h33.04l.04 1.16s.01.72.02 1.2H12.79l-7.41 7.94H47.2c.01.15.03.27.03.27l.43.44s.22.18.23.18l.34.47.52.69.34.29s.22.17.23.18l.24.25s.28.28.27.28l.5.33s.33.22.34.21l-.1.68s-.12.66-.12.67l.05.79-.1.86-4.45-1.09c-.41-.61-1.1-1.07-1.96-1.13-1.42-.1-2.68.86-2.79 2.14 0 .07.03.14.03.21l-3.3 1.84c-.28-.12-.57-.21-.89-.23-1.42-.11-2.67.85-2.78 2.14-.03.36.04.7.18 1.02l-2.42 3.66s-.04-.01-.06-.01c-1.43-.1-2.68.85-2.79 2.14-.07.65.18 1.26.62 1.72l-2.04 3.07c-.09-.01-.17-.06-.27-.07-1.11-.09-2.1.5-2.54 1.37l-.76-1.15c.03-.06.08-.12.11-.18l.07-.04-.02-.03c.11-.3.17-.62.13-.95-.1-1.08-1-1.88-2.13-2.06l-2.52-3.8c.13-.31.21-.64.17-1-.1-1.13-1.09-1.96-2.28-2.09l-3.78-3.83c.05-.21.1-.42.08-.64-.11-1.29-1.36-2.25-2.78-2.15-.52.04-.96.25-1.34.52l-4.86-1.02c-.13-.01-.33.01-.52.1-.59-3.46-.92-7-.92-10.63-.01-32.58 24.98-59.44 56.8-62.4l3.48-3.81C28.44 2.648 0 31.868 0 67.598zm16.74 17.71c-.33.08-.61.21-.87.39-1.09-1.1-2.3-2.33-2.89-2.92.26-.18.47-.39.63-.64.62.62 2.13 2.16 3.13 3.18v-.01zm4.71 6.81c-.34.05-.64.15-.91.31-.73-1.1-1.49-2.24-1.9-2.85.29-.14.55-.33.75-.55.41.61 1.25 1.88 2.06 3.1v-.01zm2.82 7.76l-2.1 2.02c-.21-.07-.42-.15-.65-.17h-.02l.09-5.07c.17.02.34.07.52.06.02 0 .03-.02.06-.02l2.1 3.18zm-.78 2.86l-.09.02c-.15-.19-.34-.36-.54-.5.38-.36.98-.93 1.65-1.57-.06.23-.12.45-.09.7.02.15.09.28.13.43-.45.45-.82.84-1.06 1.08-.01-.03-.03-.05-.04-.07l.05-.08-.01-.01zm1.76-3.81l-.44.43c-.71-1.08-1.45-2.2-1.89-2.86.3-.12.56-.28.79-.49.26.38.62.93 1.02 1.54.02.52.2 1 .53 1.38h-.01zm6.05-6.02c-.81 1.22-1.65 2.5-2.05 3.09-.21-.22-.46-.41-.75-.55l1.89-2.85c.28.15.58.26.91.32v-.01zm1.78 10.07c-.17.05-.32.09-.46.16l-3.11-1.74c.01-.13.07-.26.06-.41-.06-.64-.4-1.19-.89-1.58.65-.38 1.11-.99 1.18-1.73.03-.35-.04-.69-.17-.99l2.18-3.3 1.21 9.59zm-3.78-.84c.63.36 1.66.93 2.65 1.48-.2.21-.35.46-.45.73-1.02-.57-2.09-1.17-2.73-1.52.23-.2.4-.43.53-.69zm6.33-16.25c-.77 1.17-1.61 2.42-2.07 3.11-.22-.2-.48-.37-.79-.49.48-.73 1.33-2 2.1-3.17.21.22.46.4.75.54l.01.01zm4.39 15.88c-.52.36-.87.88-.97 1.48l-2.91.72c-.43-.66-1.19-1.08-2.06-1.12l-1.27-10.12c.82-.34 1.45-1.04 1.52-1.91.04-.33-.02-.65-.13-.95v-.03l-.03-.03c-.03-.08-.09-.13-.13-.2l2.33-3.53c.09.01.17.06.26.06s.16-.02.24-.02l3.15 15.64v.01zm-3.51 3.18c-.01-.1-.07-.19-.1-.29.67-.17 1.68-.42 2.63-.65.05.28.15.54.31.77-1.07.27-2.28.56-2.92.72.04-.18.09-.36.08-.55zm5.31-23.56c-1 .56-2.04 1.14-2.66 1.49a2.2 2.2 0 00-.53-.69c.63-.35 1.7-.95 2.73-1.52.11.26.25.51.46.73v-.01zm2.9 14.56c-.51.46-.82 1.11-.76 1.81.04.43.24.8.49 1.12l-2.02 2.53a2.8 2.8 0 00-1.09-.15c-.13.01-.25.07-.37.1l-3.1-15.43c.84-.33 1.47-1.04 1.55-1.92.01-.14-.04-.27-.06-.41l3.12-1.74c.25.13.54.22.86.26l1.39 13.82-.01.01zm.25 3.46c.26.18.54.32.86.4-.74.93-1.54 1.93-2.07 2.59-.17-.25-.39-.47-.65-.66.52-.65 1.21-1.52 1.87-2.34l-.01.01zm1.02-18.37l4.15 1.03c-.04.26-.07.53-.11.79l-.3-.03-.99 5.82c-.69.47-1.14 1.2-1.07 2.04.04.4.21.75.43 1.06-.06.26-.11.55-.14.88l-1.3 2.64c-.11 0-.22-.04-.33-.03-.24.02-.45.1-.66.17l-1.33-13.29c.7-.14 1.29-.52 1.66-1.07l-.01-.01zm1.84 13.52l-.03.39-.13.55c-.09-.04-.15-.1-.24-.13.12-.24.25-.52.4-.82v.01zm2.19-7.41c.01.2.04.42.04.42l-.16.26.12-.68zm.3-6.66l-.09.83c-1.42-.35-3.05-.75-3.97-.97.03-.11.09-.19.1-.3.02-.19-.04-.36-.08-.54.8.19 2.51.61 4.04.99v-.01zm27.38-.38l-.12.72-.36 2.5-.49 3.39-.13 1.16-.09.86-.53 3.92-.91 1.8-.45.74-.42.72s-1 1.9-1.01 1.9l-.71 3.63-.1.74-.19 1.3s0 .04-.01.06c-.02.17-.15 1.07-.25 1.9-.04.26-.07.5-.1.7-.04.32-.07.55-.08.58 0 0-.05.33-.1.8-.17 1.28-.48 3.64-.48 3.64l-.34 1.18-.47 1.52-.35 1.4.09 1.69s.04.98.05 1.34c-.04 0-.1.01-.1.01l-.62.1-.25.04.02.33c.08 1.1.79 1.77 1.41 2.37 0 0 1.02 1.28 1.06 1.45l.06.33.11.29.11.7c-1.49.24-4.29.5-6.04.04-.48-.12-1.08-.28-1.21-.55-.07-.15.02-.39.1-.56l.28-.46-2.06-.27-.81-.07c-.88-.09-1.4-.37-1.44-.49l.17-.71.13-.39.1-.34.28-.78.03-.23.14-1.83-.11-.12s.13-.32.13-.34l.1-1.1.04-.69c.3-2.72.65-5.59 1.24-8.13l.38-1.25.41-1.52.06-.23.02-.44.05-.97v-.11l.03-1.06.07-.58.14-1.26.34-2.87.55-2.11.08-1.26.02-.84.09-.81.11-1.2-.03-.78-.02-.84.16-1.65s.01-.09.01-.22c.03-.43.08-1.41.13-2.17.03-.53.05-.95.05-.95l-.13-.65-.12-.48c-.11-1.04.07-2.04.24-3.01.19-1.09.39-2.21.16-3.34l-.16-.78-.5.62c-.72.91-1.18 1.98-1.67 3.12l-.17.41-.28.53-.33.64s-.31 1.11-.31 1.12l-.17.39s-.25.61-.25.62l-.24 1.86-.29.86-.26.7-.36 2.51-.25 2.1-.3.87s-.05.14-.11.3c-.08.25-.19.55-.19.55s-1.37 3.1-1.37 3.11l-.26.38-.11.16-.55.9-.57 2.04-.25 1.06-.85 2.9-1.25 4.54-.18.59-.25.94-.15 1.26-.29 2.02-.4 1.34-.45 1.59-.07.37s-.24 1.43-.24 1.44l.03.83-.01.78-.24.22-.58.78.25 1.34c.16.46.35.98.22 1.28-.15.38-1.37.47-2.18.52l-1.03.09-.38-.11.2 1.09s.07.25.09.25c-.08.11-.61.31-1.53.36l-4.74-.21s-.59-.05-1.05-.1c.28-1.36 1.14-2.41 2.04-3.37 0 0 .59-.65.66-.78l.53-1.46.14-.16-.71-.78-.39-.49.13-.39.16-.42.2-1.73.11-1.21 1.54-7.73.65-2.9.41-2.45.17-.9.19-1.05.18-1.01.08-.25.1-.35.03-.12.25-1.02.09-.41.12-.47.1-1.37.05-.82v-.07c.02-.16.05-.28.07-.41.12-.89.4-1.36.93-2.15l.09-.13-.04-.15c-.01-.07-.02-.13-.02-.2 0-.29.18-.56.44-.89.03-.03.04-.06.07-.1 0 0 .15-.27.3-.53.13-.24.27-.48.27-.48l-.07-1.05-.08-.36c-.04-.34-.06-.7-.06-1.05 0-1 .14-2.02.29-3.03.01-.11.03-.22.04-.33l.04-.41.09-.83.09-.74.11-1.02-.05-.8.1-.49.09-1.09-.68-.63-.39-.25-.48-.51-.54-.42-.46-.61-.38-.52-.36-.31-.13-.11-.07-.05-.06-.96v-.71l-.05-.4-.05-.37.42-1.89.42-2.11-.18-.69-.12-.42v-.34l-.02-1.19-.04-1.17-.04-.91c-.32-2.34-.61-4.64-.61-6.87v-.16c0-.86.07-1.71.18-2.56.03-.23.04-.46.08-.68l.62-5.17.28-2.35.3-2.56v-.08l.14-.78.27-2.66s-.1-.38-.16-.51l.24-.7.25-.66.25-.79s.39-1.08.73-2.03c.27-.74.51-1.41.51-1.41l.76-.96s.08-.08.17-.19c.12-.13.26-.29.32-.35.39-.46.84-.98 1.38-1.14l.53-.09.54-.08 3.15-.67.7-.33.3-.18.49-.26s.96-.58 1.18-.71h.3l1.13-.23s.17-.38.17-.53c0-.03-.01-.05-.03-.06l.51.05.62-.11-.03-.43c.07-.06.19-.09.34-.08l.22.02.12-.18c.3-.45.65-1.06.65-2.04 0-.1 0-.21-.02-.32 0 0-.34-.28-.35-.28 0 0-.03-.11-.07-.22-.03-.1-.07-.22-.07-.22l-.11-.41-1.11-1.43-.46-.5-.27-.3c-.77-1.21-1.46-3.36-1.65-5.1v-.84c.07-.61.3-1.35.59-1.95.1-.2.2-.38.31-.55l1.16-.83.42-.25 1.88-.84.28-.02.41-.03.24-.06.43-.11s.58-.14.78-.17l1.76-.1.47.17s.4.17.41.17l.22.04.39.07s.4.06.4.07l.61.34s.4.18.67.31c.08.13.52.92.6 1.05-.04.12-.08.25-.08.37s.05.23.08.35c.09.37.28.71.48 1.02l.19.29.13.22s.29.48.29.47c0 0 .27.3.39.41l-.08.4-.13.71.62 1.29c.31.43.63.88.64 1.43l-.08.89-.08.8-.07.26-.39 1.34-.27.74c-.07.2-.13.34-.19.49-.31.67-.71.87-1.92 1.08l-.3.07-.03 1.64-.03 1.04.05.16.52.94.2.22.38.41.32.43c.82.83 2.03 1.24 3.22 1.55l.76.2 1.45.45 1.23.39.72.66.22.24.18.19.64.76c.04.1.05.22.09.32.22.67.29 1.43.34 2.24l.2 2.01.23.6.33 1-1.21.54-.13.05-.02.22c-.05.53-.08 1.03-.12 1.54-.06.89-.1 1.75-.11 2.56 0 .23-.02.48-.02.7 0 1.5.08 2.87.25 4.11l.6 2.69.16.7.4 1.7.08.86.29 2.96.13 1.82.4 3.16c.16 1.23.3 2.35.3 2.35v1.29l.29 1.37v1.22l.26 1.27.2 1.26-.22.38-.31.53-.17.62-.06.22s-.4 1.07-.4 1.08l-.53.29-.61.44s-.94.65-.99.67a23 23 0 01-.68.06s-.17.03-.32.05c-.02-.04-.05-.07-.05-.11 0-.07.02-.13.04-.19.06-.15.2-.3.4-.3h.47l-.12-.46c-.06-.24 0-.32.44-.57l.72-.73.16-.09c.14-.07.21-.22.25-.36.02-.05.04-.12.04-.17l-.4-.1s0-.08-.02-.11c0 .03-.01.06-.02.09l-.14-.14a.685.685 0 00-.66-.21l.04.49h-.1c-.38-.2-.33-.73-.2-1.56l.09-1.26-.2-.6-.14-.4.18-1.25.15-.28.26-.54c.19-.71.06-1.32-.15-1.88-.12-.32-.26-.63-.42-.92l-.52-1.33-.04-.11-.29-.76-.37.76c-.05.11-.07.22-.07.31 0 .18.07.32.15.41l-.17.31.12 1.05s.03.14.06.27c.01.1.03.19.03.19.07.61.1 1.22.1 1.82 0 2.06-.38 4.02-.77 5.93-.03.16-.06.32-.1.47l-.34 1.66-.69 2.65-.45 2.15.09.06zm-13.03 1.86c0 .25.02.51.04.77l.25 1.1-.13 2.26-3.72 6.29c-.05-.02-.12-.03-.18-.05l.07-.17.33-.98.27-2.22.32-2.35.23-.64.33-.98s.24-1.84.24-1.85l.19-.47.2-.46.3-1.1.6-1.14.18-.41c.29-.67.64-1.23.97-1.82-.03.58-.11 1.17-.22 1.77-.13.79-.28 1.6-.28 2.46l.01-.01zm-.06 6.77l.02.93.03.73-.1 1.11-.1.85-.03.9-.07 1.15-.55 2.12-.22 1.88-1.42-2.57c.26-.33.46-.71.5-1.13.06-.69-.23-1.32-.72-1.79l2.68-4.53c-.02.21-.03.35-.03.35h.01zm-1.19 10.85c-.32.08-.61.21-.86.38-.66-1.19-1.38-2.47-1.8-3.23.32-.08.61-.2.87-.38.41.73 1.13 2.03 1.79 3.22v.01zm9.08 7.1v-.07c.52-.09 2.67-.48 4.59-.83.06.28.17.53.33.78-2.24.41-4.85.88-4.85.88-.04 0-.1 0-.16-.05.05-.4.09-.68.09-.7v-.01zm6.2-13.86c.04.49.29.91.62 1.26l-6.21 8.23v-.03l.1-.74.68-3.48.94-1.77.44-.74.44-.71s1.01-2.04 1.01-2.05l.53-3.99.07-.62 1.97 2.97c-.4.45-.64 1.04-.58 1.66l-.01.01zm2.06-2.44c-.33.06-.62.17-.9.33-.75-1.15-1.57-2.36-2.01-3.04.29-.12.55-.31.77-.52.46.68 1.34 2.01 2.14 3.23zm3.09 8.04c-.1.24-.18.48-.2.75-.03.36.02.71.14 1.05l-3.25 2.97c-.23-.08-.47-.17-.73-.19-1.37-.1-2.55.81-2.74 2.01l-4.44.81.19-1.47 7.31-9.69c.41.19.87.32 1.36.29.02 0 .04-.01.06-.01l2.3 3.48zm.31 2.46s.05.12.1.18c.15.17.36.29.55.43-1.14 1.04-2.38 2.18-3 2.74-.15-.26-.35-.48-.6-.66.65-.59 1.84-1.68 2.95-2.69zm.84-3.75c-.28.16-.52.35-.73.59-.73-1.11-1.51-2.29-1.96-2.98.3-.12.55-.29.79-.49.44.65 1.18 1.78 1.91 2.88H85zm5.62-2.54c-.71 1.08-1.47 2.22-1.95 2.94-.22-.21-.46-.41-.75-.54.46-.7 1.15-1.74 1.81-2.73.27.17.56.27.89.34v-.01zm-1.42 6.08c.61.34 1.38.77 2.14 1.2-.2.21-.35.46-.45.72-.8-.45-1.63-.9-2.26-1.26.22-.19.41-.4.56-.66h.01zm2.62-6.1l.78 6.61c-.21.06-.41.11-.59.21l-2.54-1.41c.03-.12.06-.24.07-.36.05-.53-.11-1.02-.38-1.48l2.34-3.53c.1-.01.22 0 .32-.03v-.01zm3.2-6.98c-.77 1.16-1.61 2.43-2.06 3.12-.23-.2-.49-.37-.8-.49.49-.73 1.34-2.01 2.11-3.18.2.22.46.41.75.55zm4.87 12.14c-.72.29-1.23.86-1.43 1.55l-2.97.9c-.41-.61-1.1-1-1.89-1.08l-.82-6.96c.52-.39.88-.96.94-1.62.04-.43-.1-.83-.29-1.2l2.34-3.53c.09.02.16.06.25.06.33.02.66-.02.96-.11l2.91 11.97v.02zm-4 3.48c-.01-.13-.07-.22-.11-.33.65-.2 1.64-.5 2.61-.79.04.35.17.66.36.95-1.12.28-2.3.57-2.92.72.03-.18.08-.35.07-.54l-.01-.01zm5.32-20.12c-1.01.56-2.04 1.14-2.66 1.48-.13-.25-.31-.49-.53-.69.63-.35 1.71-.95 2.73-1.52.11.27.26.51.46.72v.01zm3.03 11c-.58.47-.95 1.15-.89 1.91.04.43.24.8.49 1.13l-2.01 2.52c-.3-.1-.62-.13-.95-.12l-2.97-12.21c.51-.39.85-.96.91-1.6.01-.14-.04-.27-.06-.41l3.11-1.74c.31.17.66.29 1.05.33l1.32 10.2v-.01zm.13 3.56c.26.17.54.32.86.4-.75.93-1.54 1.93-2.08 2.59a2.51 2.51 0 00-.65-.65c.52-.65 1.22-1.52 1.87-2.34zm4.23-15.72c-.15.23-.25.5-.31.77-1.02-.25-1.99-.49-2.62-.65.02-.11.08-.19.09-.3 0-.19-.04-.36-.07-.55.6.15 1.73.43 2.91.72v.01zm1.52 3.39l-.61 1.09h-.07c-1.43.11-2.48 1.24-2.38 2.53.05.49.3.91.63 1.26l-1.64 3.32c-.12 0-.22-.05-.33-.04-.19.01-.35.09-.53.14l-1.27-9.82a2.57 2.57 0 001.47-1.05l2.9.72c.16.9.85 1.61 1.83 1.86v-.01zm-1.85 5.36c.28.16.57.27.9.32-.56 1.12-1.14 2.31-1.52 3.08-.24-.2-.52-.34-.84-.45.39-.78.94-1.9 1.45-2.95h.01zm3.62-5.1c-.28.51-.54.97-.73 1.31-.25-.17-.54-.3-.87-.38.17-.29.38-.67.61-1.09.26 0 .53-.03.77-.11l.22.27zm3.19 1.33c-.32.08-.61.22-.86.4-.49-.61-1.01-1.25-1.45-1.8l.48-.88 1.82 2.28h.01zm-.56-3.33l1.28 3.05-2.16-2.69.1-.19s.06.01.1 0c.24-.02.45-.1.67-.18l.01.01zm3.74-5.87c-1 .87-2.07 1.79-2.64 2.28-.2-.22-.43-.41-.7-.56.64-.54 1.84-1.56 2.91-2.47.1.28.24.52.44.74l-.01.01zm1.74.89l.14 15.4c-.11-.02-.2-.07-.31-.08l-1.79-3.62c.18-.29.31-.6.34-.95.08-.91-.44-1.72-1.24-2.17l-1.72-4.08c.54-.47.88-1.13.8-1.85-.02-.22-.11-.41-.19-.61l2.82-2.43c.35.21.77.33 1.2.38-.01 0-.04.03-.04.03l-.01-.02zm-2.5 12.28c.38.77.96 1.96 1.52 3.08-.33.06-.62.16-.9.32-.52-1.05-1.07-2.17-1.45-2.95.31-.1.59-.25.83-.45zm10.57-13.15c-1.7-.3-4.1-.75-5.34-.97.06-.22.12-.44.09-.67 0-.06-.04-.1-.05-.15 1.21.22 3.69.67 5.43.99-.04.27-.1.53-.13.81v-.01zm-7.09.71c.61-.17 1.12-.5 1.45-.99l5.51 1.01a62.223 62.223 0 01-5.9 17.65c-.04-.67-.39-1.25-.93-1.66l-.12-16-.01-.01zm-79.32 46.79l1.17.1 4.86.22c.47-.03.84-.1 1.16-.19.05.24.19.44.43.52a60.658 60.658 0 0016.77 2.36c20.71 0 39.73-10.43 50.9-27.9.21-.32.12-.74-.21-.95a.693.693 0 00-.95.21c-10.91 17.08-29.5 27.26-49.74 27.26a59.2 59.2 0 01-16.19-2.25c-.02-.13-.1-.68-.1-.71.28-.02.59-.05.59-.05 1.22-.09 2.49-.17 2.81-.98.07-.17.1-.34.1-.53 0-.43-.16-.87-.31-1.28 0 0-.22-.97-.22-.96l.29-.31s.49-.56.5-.56l.06-1.13-.03-.68.22-1.36.07-.37.43-1.5.42-1.41.31-2.1.14-1.23.21-.83.18-.64 1.25-4.49.85-2.92.26-1.1.52-1.89.48-.76s.06-.09.13-.2c.27.11.55.2.87.22h.07l2.05 3.69c-.26.32-.46.69-.5 1.12-.09 1.05.6 1.94 1.61 2.32l-.41 1.48-.39 1.31c-.61 2.58-.97 5.47-1.27 8.22l-.05.73s-.09 1.01-.16 1.16l-.15.49s.17.42.18.33c0 .03-.07 1.02-.09 1.35-.04.1-.34.9-.34.9l-.09.32-.12.34s-.17 1.18-.18 1.18c.2.73 1.51.96 2.07 1.02l.84.08s.65.08 1.05.14c-.02.09-.07.2-.07.29 0 .15.03.3.09.44.26.58 1.02.78 1.69.95 1.97.51 5.47.2 7.02-.08l-.23-1.67s-.08-.22-.11-.4c0 0-.08-.36-.08-.38l-1.2-1.54c-.48-.47-.89-.95-1.06-1.57l.57-.08.27.04-.07-2.15-.09-1.52.33-1.25.47-1.51.36-1.25.42-3.19c.13.03.25.04.35.04l5.39-.99c.38.26.81.46 1.32.49 1.43.11 2.67-.85 2.78-2.14.02-.19-.04-.37-.07-.56l3.4-3.11c.28.11.55.21.85.23.57.04 1.12-.07 1.6-.3l2.81 1.57c0 .07-.04.14-.03.22.12 1.28 1.37 2.24 2.8 2.14.85-.06 1.54-.52 1.95-1.12l3.83-.95c.5.37 1.15.58 1.84.53 1.43-.11 2.49-1.23 2.37-2.53 0-.07-.06-.13-.07-.21l2.64-3.29h.05c1.43-.11 2.49-1.23 2.37-2.52a2.2 2.2 0 00-.33-.95l1.79-3.62c1.36-.16 2.37-1.25 2.25-2.49-.03-.44-.23-.81-.5-1.15l.67-1.21 1.31 1.63c-.26.33-.45.7-.49 1.12-.12 1.28.94 2.41 2.37 2.52.11 0 .21-.03.32-.04l1.64 3.32c-.33.36-.58.77-.62 1.27-.12 1.29.94 2.42 2.37 2.52.63.05 1.21-.14 1.68-.45a62.754 62.754 0 01-10.42 13.77c-11.83 11.84-27.57 18.36-44.31 18.36-8.72 0-17.03-1.8-24.59-5.03l.02.01zm-24.54-18.8l2.61-.55c.39.26.83.48 1.35.51 1.41.11 2.67-.85 2.79-2.15.02-.21-.04-.43-.09-.63l1.1-1.12c.5.67 1.35 1.09 2.3 1.03.33-.03.61-.12.89-.24l3.29 1.83c0 .07-.03.14-.03.21.12 1.29 1.37 2.26 2.79 2.16.86-.06 1.54-.52 1.96-1.13l3.83-.94c.5.37 1.15.58 1.85.53 1.42-.11 2.48-1.24 2.36-2.52 0-.08-.04-.14-.06-.21l2.63-3.3h.01l-.11.61-.4 2.4-.65 2.89-1.56 7.8-.11 1.27-.18 1.6-.11.29s-.2.76-.2.77l.66.97s.18.19.28.29c-.14.39-.41 1.15-.41 1.19l-.57.63c-.42.45-.85.94-1.23 1.46a.695.695 0 00-.36-.43 58.51 58.51 0 01-19.38-14.12.683.683 0 00-.97-.05c-.28.25-.3.69-.05.97a60.037 60.037 0 0019.85 14.45c.13.05.27.03.4.01-.3.56-.55 1.16-.62 1.87v.13a63.006 63.006 0 01-23.87-18.5l.01.02zm-1.08-1.37c.78-.16 1.78-.37 2.75-.58.06.29.17.54.33.78-.83.17-1.73.36-2.52.53-.18-.24-.38-.47-.56-.72v-.01zm-1.99-2.83l1.89-12.81c.48.3 1.05.49 1.67.44.1 0 .18-.05.27-.07l2.04 3.08a2.15 2.15 0 00-.62 1.71c.07.78.58 1.4 1.26 1.78l-.1 5.5c-.91.27-1.58 1-1.72 1.89l-3.17.67c-.52-.72-1.03-1.44-1.52-2.18v-.01zm-5.76-10.82l2.01-8.38c.41.18.85.31 1.34.27.23-.02.43-.1.65-.17l3.03 3.08c-.34.43-.54.95-.49 1.51.02.28.12.53.25.77l-1.85 12.46a62.24 62.24 0 01-4.93-9.53l-.01-.01zm-3.38-10.95l3.99.84c.07.41.26.76.52 1.07l-1.65 7.72c-1.2-3.1-2.16-6.32-2.86-9.63zm-.25-1.35c.09-.19.21-.24.24-.25 0 0 2.57.54 4.37.92-.16.24-.27.49-.33.78-1.76-.37-4.01-.85-4.18-.88-.03-.19-.07-.37-.1-.56v-.01zm2.46-8.61l-.06-2.6c0-28.91 20.63-53.37 49.06-58.19.37-.06.63-.41.56-.79a.694.694 0 00-.79-.56c-29.09 4.93-50.21 29.96-50.21 59.52l.06 2.66c0 .36.42.53.42.53.38 0 .63-.28.95-.59l.01.02z" fill="#231F20"/></g><defs><clipPath id="clip0_118_190"><path fill="#fff" transform="translate(0 .338)" d="M0 0h132.48v133.5H0z"/></clipPath></defs></svg>