<svg width="114" height="93" fill="none" xmlns="http://www.w3.org/2000/svg"><g clip-path="url(#clip0_167_329)"><path d="M52.292 25.575v.015l-.249-.697.035-.281.04-.412-.349-1.099-.379-1.089-.124-.366-.13.366-.044.136a20.014 20.014 0 00-1.077 5.264c-.01.13-.025.251-.035.377l-.164 1.495-.16 1.446s0 .31.016.667c.01.447.02.964.025 1.009l.03.17c.064.377.159.779.463 1.075l.204.16.164-.391.095-.241.08-.04-.329-.286s-.01-.005-.015-.01a.39.39 0 00.04-.05 2.46 2.46 0 00.164-.216.844.844 0 00.13-.693s-.075-.186-.12-.291c0 0 .035-.1.075-.196.035-.1.075-.2.075-.206v-.326l.065-.206s.074-.22.074-.215l.25-.522.139-.246c.214-.422.279-.949.343-1.456l.25-.808.094-.3c.125-.322.25-.653.31-.98.03-.185.049-.366.024-.547l-.01-.01zm-1.918 6.51c0 .19-.1.306-.234.466 0 0-.01.01-.015.02h-.015c-.02-.1-.045-.19-.065-.306l-.01-.878h.254c-.03.09-.06.196-.06.196s.095.286.125.366a.61.61 0 01.015.13l.005.006zm1.51-5.963a5.11 5.11 0 01-.264.844l-.135.441H50.38c.035-.431.085-.858.145-1.285h1.36zm34.41 7.78l-.01.873c0 .19.144.351.333.356.185 0 .344-.14.344-.331l.01-.893c0-14.881-10.557-27.448-25.099-29.882a.34.34 0 10-.115.673C75.972 7.076 86.29 19.362 86.29 33.907l.004-.005zM24 33.755C24 52.089 38.801 67 57.005 67c8.813 0 17.103-3.458 23.335-9.736 6.233-6.279 9.665-14.63 9.665-23.508 0-8.878-3.432-17.23-9.665-23.508C74.432 4.301 66.69.888 58.4.542l1.704 1.922c7.169.708 13.814 3.86 18.976 9.059 5.893 5.942 9.142 13.837 9.142 22.238 0 1.46-.105 2.906-.3 4.326l-2.894-.532c-.239-.381-.707-.632-1.22-.602-.643.05-1.111.522-1.161 1.084l-1.804 1.54c-.11-.02-.219-.044-.334-.035-.558.04-.99.402-1.13.869-.025 0-.045-.015-.075-.02a1.394 1.394 0 00-.917.26l-1.913-.471a1.282 1.282 0 00-.971-.567c-.713-.05-1.33.426-1.395 1.074 0 .04.015.07.015.11l-1.634.919a1.316 1.316 0 00-.444-.116c-.712-.05-1.33.427-1.39 1.074-.02.18.025.352.095.512l-1.21 1.837s-.016-.005-.026-.005c-.712-.055-1.335.427-1.394 1.074-.025.311.09.607.293.833l-.98 1.496c-.06-.01-.11-.04-.17-.045a1.538 1.538 0 00-.573.06l-1.051-1.596c.1-.186.164-.387.144-.603-.05-.557-.523-.968-1.106-1.048l-1.275-1.938a1.07 1.07 0 00.12-.562c-.036-.411-.315-.737-.688-.918l.184-1.31.06-.366.21-1.034.353-1.37.164-.823.06-.312h.314a.618.618 0 00.239.246s.05.01.065.01l-.01.01c-.16.096-.414.236-.414.537 0 .02 0 .04.01.066-.134.06-.294.095-.353.25a.634.634 0 00-.045.231c0 .151.054.291.164.392l.015.065.498-.075.24-.025h.094l.583-.392.294-.21.11-.06.229-.156.279-.698.05-.19h21.247l-3.696-3.986H66.187v-.06l-.145-1.119h16.874l-3.697-3.985H65.634l-.05-.487-.18-.798h13.272l-3.816-4.115h-9.959c.01-.411.025-.838.06-1.285h9.361l-3.821-4.115h-5.326c-.03-.105-.06-.21-.104-.311l-.394-.492-.085-.085-.1-.11s-.179-.156-.318-.282h5.789l-3.811-4.115h-4.818c.02-.045.04-.075.055-.13l.13-.347.224-.808h3.86l-3.81-4.115h-1.196c-.025-.06-.05-.116-.05-.176 0-.045.01-.09.035-.14l.05-.08-.399-.703-.104-.08-.21-.111h1.33L57.055 0l-4.2 4.522h2.78l-.354.155-.204.12-.697.533a3.03 3.03 0 00-.245.477h-1.818l-3.816 4.115h6.222s.02.035.025.05l.424.472.458.582.035.146.01.035h-7.722l-3.816 4.115h5.375l-.319.417-.308.868h-5.291l-3.816 4.115h8.265l-.15 1.285H39.24l-3.812 4.115H47.42c-.055.422-.08.854-.085 1.285h-12.45l-3.696 3.985h16.46l.02.582s.005.362.01.603H30.372L26.68 36.56h20.834c.005.076.015.136.015.136l.215.22s.11.091.114.091l.17.236.259.346.17.146.114.09.12.126s.139.14.134.14l.249.166s.164.11.17.105l-.05.341-.06.337.024.396-.05.432-2.216-.547a1.274 1.274 0 00-.977-.567c-.707-.05-1.335.431-1.39 1.074 0 .035.015.07.015.105l-1.644.924a1.316 1.316 0 00-.443-.116c-.708-.055-1.33.427-1.385 1.074-.015.18.02.351.09.512l-1.206 1.837s-.02-.005-.03-.005c-.712-.05-1.335.426-1.39 1.074-.035.326.09.632.309.863l-1.016 1.54c-.045-.004-.085-.03-.135-.034a1.295 1.295 0 00-1.265.687l-.379-.577c.015-.03.04-.06.055-.09l.035-.02-.01-.015a1.03 1.03 0 00.065-.477c-.05-.542-.498-.944-1.062-1.034l-1.255-1.907a.998.998 0 00.085-.502c-.05-.567-.543-.984-1.136-1.049l-1.883-1.922a.997.997 0 00.04-.321c-.055-.648-.678-1.13-1.385-1.08-.26.02-.479.126-.668.262l-2.421-.512a.534.534 0 00-.26.05 31.898 31.898 0 01-.457-5.335C25.782 17.41 38.233 3.93 54.085 2.444L55.819.532C38.17 1.159 24 15.824 24 33.756zm8.34 8.888c-.165.04-.304.105-.434.196-.543-.552-1.146-1.17-1.44-1.466.13-.09.235-.195.314-.32.31.31 1.061 1.083 1.56 1.595v-.005zm2.346 3.418c-.17.025-.319.075-.453.156a347.36 347.36 0 00-.947-1.43 1.23 1.23 0 00.374-.277c.204.306.623.944 1.026 1.556v-.005zm1.405 3.894l-1.046 1.014c-.105-.035-.21-.075-.324-.085h-.01l.045-2.545c.085.01.17.035.259.03.01 0 .015-.01.03-.01l1.046 1.596zm-.389 1.436l-.044.01a1.28 1.28 0 00-.27-.251c.19-.18.489-.467.823-.788-.03.115-.06.226-.045.351.01.075.045.14.065.216-.225.226-.409.422-.529.542-.005-.015-.014-.025-.02-.035l.025-.04-.005-.005zm.877-1.912l-.219.215c-.354-.542-.722-1.104-.941-1.435.149-.06.279-.14.393-.246.13.19.309.467.508.773.01.261.1.502.264.693h-.005zm3.014-3.022c-.403.613-.822 1.255-1.021 1.551a1.297 1.297 0 00-.374-.276l.942-1.43c.14.075.289.13.453.16v-.005zm.887 5.054c-.085.025-.16.045-.23.08l-1.548-.873c.005-.065.034-.13.03-.206-.03-.32-.2-.597-.444-.792.324-.191.553-.497.588-.869a1.037 1.037 0 00-.085-.497l1.086-1.656.603 4.813zm-1.883-.421c.314.18.827.466 1.32.742-.1.106-.174.231-.224.367-.508-.286-1.041-.587-1.36-.763.114-.1.2-.216.264-.346zm3.154-8.156c-.384.587-.803 1.215-1.032 1.561-.11-.1-.239-.186-.393-.246.239-.366.662-1.004 1.046-1.59.104.11.229.2.373.27l.006.005zm2.187 7.97a1.13 1.13 0 00-.484.743l-1.45.361a1.276 1.276 0 00-1.026-.562l-.632-5.079c.408-.17.722-.522.757-.959.02-.165-.01-.326-.065-.476v-.015l-.015-.015c-.015-.04-.045-.066-.065-.1l1.161-1.772c.045.005.085.03.13.03.044 0 .08-.01.12-.01l1.569 7.849v.005zm-1.75 1.596c-.004-.05-.034-.095-.049-.146.334-.085.837-.21 1.31-.326a.97.97 0 00.155.387c-.533.135-1.136.28-1.455.36.02-.09.045-.18.04-.275zm2.646-11.824c-.498.28-1.016.572-1.325.748a1.104 1.104 0 00-.264-.347c.314-.175.847-.477 1.36-.763.055.13.125.256.23.367v-.005zm1.445 7.307c-.254.23-.409.557-.379.908.02.216.12.402.245.563l-1.007 1.27a1.384 1.384 0 00-.543-.076c-.065.005-.124.035-.184.05l-1.545-7.744c.419-.165.733-.522.773-.963.005-.07-.02-.136-.03-.206l1.554-.873c.125.065.27.11.429.13l.692 6.936-.005.005zm.124 1.736c.13.09.27.161.429.201-.369.467-.767.969-1.031 1.3a1.357 1.357 0 00-.324-.331c.259-.326.603-.763.931-1.175l-.005.005zm.509-9.219l2.067.517c-.02.13-.035.266-.055.396l-.15-.014-.492 2.92c-.344.236-.568.603-.533 1.024.02.2.104.377.214.532-.03.13-.055.276-.07.442l-.648 1.325c-.054 0-.11-.02-.164-.015-.12.01-.224.05-.329.085l-.662-6.67c.348-.07.642-.26.827-.537l-.005-.005zm.916 6.785l-.015.196-.064.276c-.045-.02-.075-.05-.12-.065.06-.12.125-.261.2-.412v.005zm1.091-3.718c.005.1.02.21.02.21l-.08.13.06-.34zm.15-3.343l-.045.417c-.707-.176-1.52-.377-1.978-.487.015-.055.045-.096.05-.15.01-.096-.02-.181-.04-.272.399.096 1.25.306 2.013.497v-.005zm13.64-.19l-.06.36-.179 1.255-.244 1.702-.065.582-.045.431-.264 1.968-.453.903-.224.372-.21.361s-.498.953-.503.953l-.353 1.822-.05.372-.095.652s0 .02-.005.03c-.01.086-.075.537-.124.954-.02.13-.035.25-.05.351-.02.16-.035.276-.04.291 0 0-.025.166-.05.402l-.239 1.827-.17.592-.233.763-.175.702.045.848s.02.492.025.673c-.02 0-.05.005-.05.005l-.309.05-.124.02.01.166c.04.552.393.888.702 1.19 0 0 .508.642.528.727l.03.166.055.145.055.351c-.743.12-2.138.251-3.01.02-.239-.06-.537-.14-.602-.275-.035-.076.01-.196.05-.282l.14-.23-1.027-.136-.404-.035c-.438-.045-.697-.186-.717-.246l.085-.356.064-.196.05-.17.14-.392.015-.116.07-.918-.055-.06s.064-.16.064-.17l.05-.553.02-.346c.15-1.365.324-2.806.618-4.08l.19-.628.203-.763.03-.115.01-.22.025-.488v-.055l.015-.532.035-.291.07-.632.17-1.44.273-1.06.04-.632.01-.422.045-.406.055-.602-.015-.392-.01-.421.08-.828s.004-.046.004-.11c.015-.217.04-.709.065-1.09.015-.266.025-.477.025-.477l-.065-.326-.06-.24c-.054-.523.035-1.025.12-1.512.095-.547.194-1.109.08-1.676l-.08-.391-.249.31c-.359.458-.588.995-.832 1.567l-.085.206-.14.266-.164.32s-.154.558-.154.563l-.085.196s-.124.306-.124.31l-.12.934-.144.432-.13.351-.18 1.26-.124 1.054-.15.436-.054.151c-.04.125-.095.276-.095.276s-.682 1.556-.682 1.56l-.13.191-.055.08-.274.453-.284 1.023-.124.532-.424 1.456-.622 2.278-.09.296-.124.472-.075.633-.145 1.013-.199.673-.224.798-.035.185-.12.723.015.417-.005.391-.12.11-.288.392.125.672c.08.231.174.492.11.643-.076.19-.683.236-1.087.26l-.513.046-.19-.055.1.547s.035.125.045.125c-.04.056-.304.156-.762.181l-2.362-.105s-.294-.025-.523-.05c.14-.683.568-1.21 1.017-1.692 0 0 .294-.326.328-.391l.264-.733.07-.08-.353-.392-.195-.246.065-.195.08-.211.1-.868.054-.608.767-3.88.324-1.455.204-1.23.085-.45.095-.528.09-.507.04-.125.05-.176.014-.06.125-.512.044-.206.06-.236.05-.687.025-.412v-.035c.01-.08.025-.14.035-.206.06-.446.2-.682.463-1.079l.045-.065-.02-.075c-.005-.035-.01-.066-.01-.1 0-.146.09-.282.22-.447.014-.015.02-.03.034-.05 0 0 .075-.136.15-.266.064-.12.134-.241.134-.241l-.035-.527-.04-.181c-.02-.17-.03-.351-.03-.527 0-.502.07-1.014.145-1.52.005-.056.015-.111.02-.166l.02-.206.045-.417.044-.371.055-.512-.025-.401.05-.246.045-.547-.339-.316-.194-.126-.24-.256-.268-.21-.23-.307-.189-.26-.179-.156-.065-.056-.035-.025-.03-.482v-.356l-.024-.2-.025-.186.209-.949.21-1.059-.09-.346-.06-.21v-.172l-.01-.597-.02-.587-.02-.457c-.16-1.174-.304-2.328-.304-3.448v-.08c0-.431.035-.858.09-1.285.015-.115.02-.23.04-.34l.308-2.595.14-1.18.15-1.285v-.04l.07-.391.134-1.335s-.05-.191-.08-.256l.12-.352.124-.33.125-.397s.194-.542.363-1.02c.135-.37.254-.707.254-.707l.379-.482s.04-.04.085-.095c.06-.065.13-.145.159-.175.194-.231.419-.492.688-.573l.264-.045.269-.04 1.569-.336.349-.166.149-.09.244-.13s.478-.292.588-.357h.15l.562-.115s.085-.191.085-.266c0-.015-.005-.025-.015-.03l.254.024.31-.055-.016-.215c.035-.03.095-.046.17-.04l.11.01.059-.09c.15-.227.324-.533.324-1.025 0-.05 0-.105-.01-.16 0 0-.17-.14-.175-.14 0 0-.014-.056-.034-.111a4.77 4.77 0 00-.035-.11l-.055-.206-.553-.718-.23-.251-.134-.15c-.383-.608-.727-1.687-.822-2.56v-.422c.035-.306.15-.677.294-.978.05-.1.1-.191.155-.276l.578-.417.209-.125.936-.422.14-.01.204-.015.12-.03.214-.055s.289-.07.388-.086l.877-.05.234.085s.2.086.205.086l.11.02.194.035s.199.03.199.035l.304.17s.199.091.334.156c.04.065.259.462.298.527a.621.621 0 00-.04.186c0 .06.026.115.04.176.045.185.14.356.24.511l.094.146.065.11s.145.241.145.236c0 0 .134.15.194.206l-.04.2-.065.357.309.648c.154.215.314.441.319.717l-.04.447-.04.401-.035.13-.194.673-.134.372c-.035.1-.065.17-.095.246-.155.336-.354.436-.957.542l-.15.035-.014.823-.015.522.025.08.259.472.1.11.189.206.16.216c.408.417 1.01.622 1.603.778l.38.1.721.226.613.196.359.331.11.12.09.096.318.381c.02.05.025.11.045.16.11.337.144.718.17 1.125l.099 1.009.115.3.164.503-.603.27-.065.026-.01.11c-.025.266-.04.517-.06.773-.03.447-.05.878-.054 1.285 0 .115-.01.24-.01.351 0 .753.04 1.44.124 2.063l.3 1.35.079.351.2.854.04.431.144 1.486.064.913.2 1.586c.08.617.149 1.18.149 1.18v.646l.145.688v.613l.129.637.1.632-.11.191-.154.266-.085.311-.03.11s-.2.538-.2.543l-.263.145-.304.221s-.468.326-.493.336c-.135.015-.34.03-.34.03s-.084.016-.159.026c-.01-.02-.025-.036-.025-.056 0-.035.01-.065.02-.095.03-.075.1-.15.2-.15h.234l-.06-.231c-.03-.12 0-.161.22-.286l.358-.367.08-.045c.07-.035.104-.11.124-.18a.275.275 0 00.02-.086l-.2-.05s0-.04-.009-.055c0 .015-.005.03-.01.045l-.07-.07a.34.34 0 00-.329-.106l.02.246h-.05c-.189-.1-.164-.366-.1-.783l.046-.632-.1-.301-.07-.201.09-.628.075-.14.13-.271c.094-.356.03-.663-.075-.944-.06-.16-.13-.316-.21-.461l-.259-.668-.02-.055-.144-.381-.184.381a.385.385 0 00-.035.156c0 .09.034.16.074.205l-.084.156.06.527s.014.07.03.135c.004.05.014.096.014.096.035.306.05.612.05.913 0 1.034-.19 2.018-.383 2.976-.015.08-.03.16-.05.236l-.17.833-.343 1.33-.225 1.08.045.03zm-6.491.933c0 .125.01.256.02.386l.124.552-.064 1.135-1.854 3.156c-.025-.01-.06-.015-.09-.025l.035-.085.165-.492.134-1.114.16-1.18.114-.32.165-.492.12-.929.094-.236.1-.23.15-.553.298-.572.09-.206c.144-.336.319-.617.483-.913a6.983 6.983 0 01-.11.888c-.064.397-.14.803-.14 1.235l.006-.005zm-.03 3.397l.01.467.015.367-.05.557-.05.426-.015.452-.035.577-.274 1.064-.11.944-.707-1.29c.13-.166.23-.357.25-.567.03-.347-.115-.663-.36-.899l1.336-2.273-.015.175h.005zm-.593 5.446a1.33 1.33 0 00-.428.19c-.33-.597-.688-1.24-.897-1.62.16-.04.304-.1.433-.191.205.366.563 1.019.892 1.616v.005zm4.524 3.563v-.035c.259-.045 1.33-.24 2.286-.416.03.14.085.265.165.39-1.116.207-2.416.443-2.416.443-.02 0-.05 0-.08-.026.025-.2.045-.34.045-.35v-.006zm3.088-6.956c.02.246.145.457.31.633l-3.094 4.13v-.015l.05-.371.338-1.747.468-.888.22-.372.219-.356s.503-1.024.503-1.029l.264-2.002.035-.312.981 1.491a1.107 1.107 0 00-.289.833l-.005.005zm1.027-1.224c-.165.03-.31.085-.449.165-.373-.577-.782-1.184-1.001-1.525.144-.06.274-.156.384-.261.229.34.667 1.008 1.066 1.62zm1.54 4.035a1.188 1.188 0 00-.03.903l-1.62 1.49c-.114-.04-.234-.085-.364-.095-.682-.05-1.27.407-1.365 1.009l-2.212.407.095-.738 3.642-4.863a1.4 1.4 0 00.677.145c.01 0 .02-.005.03-.005l1.146 1.747zm.153 1.234s.025.06.05.09c.075.086.18.146.274.216-.568.522-1.185 1.095-1.494 1.376a1.052 1.052 0 00-.3-.332c.325-.296.918-.843 1.47-1.35zm.419-1.882a1.39 1.39 0 00-.364.296c-.363-.557-.752-1.149-.976-1.495.15-.06.274-.146.394-.246.219.326.587.893.951 1.445h-.005zm2.8-1.275c-.354.543-.733 1.115-.972 1.476a1.351 1.351 0 00-.373-.271c.229-.351.573-.873.901-1.37.135.085.28.135.444.17v-.005zm-.708 3.052c.304.17.688.386 1.066.602-.1.105-.174.231-.224.361-.398-.225-.812-.451-1.126-.632.11-.095.205-.2.28-.331h.004zm1.306-3.061l.388 3.317c-.104.03-.204.055-.294.105l-1.265-.707c.015-.06.03-.12.035-.181.025-.266-.055-.512-.19-.743l1.166-1.771c.05-.005.11 0 .16-.016v-.005zm1.594-3.504c-.384.583-.802 1.22-1.026 1.566a1.34 1.34 0 00-.399-.246c.244-.366.668-1.008 1.051-1.596.1.11.23.206.374.276zm2.426 6.093a1.197 1.197 0 00-.712.778l-1.48.452a1.271 1.271 0 00-.942-.542l-.408-3.493c.259-.196.438-.482.468-.813.02-.216-.05-.417-.144-.603l1.165-1.771c.045.01.08.03.125.03.165.01.329-.01.478-.055l1.45 6.007v.01zm-1.993 1.747c-.005-.066-.035-.11-.055-.166.324-.1.818-.25 1.3-.396.02.175.085.33.18.476-.558.14-1.146.286-1.455.362.015-.09.04-.176.035-.271l-.005-.005zm2.65-10.098c-.503.281-1.016.572-1.325.743a1.251 1.251 0 00-.264-.346l1.36-.763c.055.135.13.256.23.361v.005zm1.51 5.52c-.289.236-.473.578-.443.96.02.215.12.4.244.566l-1.001 1.265a1.347 1.347 0 00-.474-.06l-1.48-6.128a1.15 1.15 0 00.454-.803c.005-.07-.02-.136-.03-.206l1.55-.873c.154.085.328.145.523.165l.657 5.12v-.005zm.065 1.787c.13.086.269.16.428.201-.373.467-.767.969-1.036 1.3a1.258 1.258 0 00-.324-.326c.26-.327.608-.763.932-1.175zm2.107-7.89a1.193 1.193 0 00-.154.387c-.508-.125-.992-.246-1.305-.326.01-.055.04-.095.044-.15 0-.096-.02-.181-.035-.277.3.076.862.216 1.45.362v.005zm.758 1.702l-.304.547h-.035c-.713.055-1.236.623-1.186 1.27.025.246.15.457.314.632l-.817 1.666c-.06 0-.11-.025-.165-.02-.094.005-.174.046-.264.07l-.632-4.928a1.28 1.28 0 00.732-.527l1.445.362c.08.451.423.808.912.933v-.005zm-.922 2.69c.14.08.284.136.448.16-.279.563-.568 1.16-.757 1.547-.12-.1-.26-.171-.418-.226.194-.392.468-.954.722-1.48h.005zm1.803-2.56c-.14.257-.269.488-.363.658a1.31 1.31 0 00-.434-.19c.085-.146.19-.337.304-.548.13 0 .264-.015.384-.055l.11.136zm1.59.668c-.16.04-.304.11-.429.2-.244-.305-.503-.627-.722-.903l.239-.441.906 1.144h.006zm-.28-1.671l.638 1.53-1.076-1.35.05-.095s.03.005.05 0c.12-.01.224-.05.334-.09l.004.005zm1.864-2.946c-.498.437-1.031.898-1.316 1.144-.1-.11-.214-.206-.348-.28l1.45-1.24c.05.14.12.26.219.37l-.005.006zm.867.447l.07 7.728c-.055-.01-.1-.035-.155-.04l-.892-1.816c.09-.146.155-.302.17-.477.04-.457-.22-.864-.618-1.09L81.5 41.54c.269-.236.438-.567.398-.928-.01-.11-.054-.206-.094-.307l1.405-1.22c.174.106.383.166.598.192-.006 0-.02.015-.02.015l-.005-.01zm-1.246 6.163c.19.386.478.983.757 1.545-.164.03-.308.08-.448.16-.259-.526-.533-1.088-.722-1.48a1.23 1.23 0 00.413-.225zm5.266-6.6c-.847-.15-2.043-.377-2.66-.487a.86.86 0 00.044-.336c0-.03-.02-.05-.024-.075.602.11 1.838.336 2.705.496-.02.136-.05.266-.065.407v-.005zm-3.532.356c.304-.085.558-.25.722-.497l2.745.507a31.386 31.386 0 01-2.94 8.858 1.13 1.13 0 00-.462-.833l-.06-8.03-.005-.005zM44.754 62.684l.583.05 2.422.11c.234-.015.418-.05.578-.095.024.12.094.221.214.261 2.7.783 5.515 1.185 8.354 1.185 10.318 0 19.793-5.235 25.358-14.003a.344.344 0 10-.578-.371C76.25 58.393 66.99 63.5 56.905 63.5a29.29 29.29 0 01-8.065-1.128 14.37 14.37 0 01-.05-.357c.14-.01.294-.025.294-.025.608-.045 1.24-.085 1.4-.492a.682.682 0 00.05-.266c0-.215-.08-.436-.155-.642 0 0-.11-.487-.11-.482l.145-.155s.244-.281.249-.281l.03-.568-.015-.34.11-.683.035-.186.214-.753.209-.707.154-1.054.07-.618.105-.416.09-.321.622-2.254.424-1.465.13-.552.258-.949.24-.381.064-.1c.135.054.274.1.434.11h.034l1.022 1.852c-.13.16-.23.346-.25.562-.044.527.3.973.803 1.164l-.205.743-.194.657c-.304 1.295-.483 2.746-.633 4.126l-.025.366s-.044.507-.08.582l-.074.246s.085.21.09.166l-.045.677c-.02.05-.17.452-.17.452l-.044.16-.06.171s-.085.592-.09.592c.1.367.753.482 1.032.512l.418.04s.324.04.523.07c-.01.046-.035.101-.035.146 0 .076.015.15.045.221.13.291.508.392.842.477.981.256 2.725.1 3.497-.04l-.114-.838s-.04-.11-.055-.201c0 0-.04-.18-.04-.19l-.598-.774c-.239-.236-.443-.477-.528-.788l.284-.04.135.02-.035-1.079-.045-.763.164-.627.234-.758.18-.627.209-1.601c.065.015.124.02.174.02l2.686-.497c.189.13.403.231.657.246.713.055 1.33-.426 1.385-1.074.01-.095-.02-.186-.035-.281l1.694-1.56c.14.054.274.105.424.115.284.02.558-.036.797-.151l1.4.788c0 .035-.02.07-.015.11.06.643.682 1.125 1.395 1.074.423-.03.767-.26.971-.562l1.908-.477c.25.186.573.292.917.267.712-.056 1.24-.618 1.18-1.27 0-.035-.03-.066-.034-.106l1.315-1.65h.025c.712-.056 1.24-.618 1.18-1.265a1.109 1.109 0 00-.164-.477l.892-1.817c.677-.08 1.18-.627 1.12-1.25-.014-.22-.114-.406-.248-.577l.333-.607.653.818a1.08 1.08 0 00-.244.562c-.06.642.468 1.21 1.18 1.265.055 0 .105-.015.16-.02l.817 1.666c-.164.18-.289.386-.309.637-.06.648.469 1.215 1.18 1.265.315.025.604-.07.838-.226a31.478 31.478 0 01-5.191 6.91c-5.894 5.943-13.735 9.215-22.075 9.215a30.91 30.91 0 01-12.25-2.524l.01.005zM32.53 53.249l1.3-.276c.195.13.414.24.673.256.702.055 1.33-.427 1.39-1.08.01-.105-.02-.215-.045-.316l.548-.562c.249.337.672.547 1.146.517a1.41 1.41 0 00.443-.12l1.64.918c0 .035-.016.07-.016.106.06.647.683 1.134 1.39 1.084.429-.03.767-.261.977-.568l1.908-.471c.249.185.573.29.921.266.708-.055 1.236-.623 1.176-1.265 0-.04-.02-.07-.03-.105l1.31-1.657h.005l-.054.307-.2 1.204-.324 1.45-.777 3.915-.054.638-.09.802-.055.146s-.1.381-.1.386l.33.487s.089.096.139.146c-.07.196-.204.577-.204.597l-.284.316c-.21.226-.424.472-.613.733a.349.349 0 00-.18-.216 29.161 29.161 0 01-9.654-7.086.339.339 0 00-.484-.025.35.35 0 00-.025.486 29.922 29.922 0 009.89 7.252.384.384 0 00.199.006c-.15.28-.274.582-.31.938v.065a31.42 31.42 0 01-11.891-9.284l.005.01zm-.538-.688c.389-.08.887-.186 1.37-.291.03.146.085.271.164.391-.413.086-.861.181-1.255.267-.09-.121-.19-.236-.28-.362v-.005zM31 51.141l.941-6.43c.24.151.523.247.832.222.05 0 .09-.025.135-.035l1.016 1.545a1.08 1.08 0 00-.309.858c.035.392.289.703.628.894l-.05 2.76a1.196 1.196 0 00-.857.949l-1.58.336A34.269 34.269 0 0131 51.146v-.005zm-2.87-5.43l1.001-4.206c.205.09.424.155.668.135.114-.01.214-.05.324-.085l1.51 1.546a1.07 1.07 0 00-.245.758c.01.14.06.266.125.386l-.922 6.253a31.321 31.321 0 01-2.456-4.782l-.005-.005zm-1.684-5.496l1.988.422c.035.205.13.381.259.537l-.822 3.874a31.54 31.54 0 01-1.425-4.833zm-.124-.678c.044-.095.104-.12.12-.125l2.176.462a1.09 1.09 0 00-.164.391c-.877-.185-1.998-.426-2.083-.441-.015-.096-.034-.186-.05-.282v-.005zm1.225-4.32l-.03-1.306c0-14.509 10.278-26.784 24.441-29.203a.34.34 0 00.28-.397.346.346 0 00-.394-.281C37.35 6.504 26.83 19.066 26.83 33.901l.03 1.335c0 .181.209.267.209.267.19 0 .314-.141.473-.297l.005.01z" fill="#231F20"/></g><path d="M8.19 73.92v.2a1.33 1.33 0 00-.47.08c-.1.04-.17.12-.21.24-.034.113-.05.293-.05.54v4.96c0 .24.016.423.05.55a.4.4 0 00.21.25c.106.04.263.06.47.06h.3c-.027.267-.047.523-.06.77a22 22 0 00-.01.57c0 .133.003.253.01.36.006.113.013.213.02.3h-.23c-.08-.46-.207-.82-.38-1.08a1.46 1.46 0 00-.62-.56A2.044 2.044 0 006.4 81H4.41c-.234 0-.54-.003-.92-.01-.374-.013-.757-.02-1.15-.02-.34 0-.66.003-.96.01-.3 0-.54.007-.72.02v-.2c.206-.013.36-.04.46-.08a.334.334 0 00.21-.24c.04-.12.06-.3.06-.54v-4.96c0-.247-.02-.427-.06-.54a.334.334 0 00-.21-.24c-.1-.047-.254-.073-.46-.08v-.2a51.091 51.091 0 001.68.03 57.672 57.672 0 001.59-.03v.2a1.33 1.33 0 00-.47.08c-.1.04-.17.12-.21.24-.034.113-.05.293-.05.54v4.96c0 .24.02.423.06.55a.39.39 0 00.23.25c.12.04.293.06.52.06h.83c.226 0 .396-.02.51-.06a.39.39 0 00.24-.25c.04-.127.06-.31.06-.55v-4.96c0-.247-.02-.427-.06-.54a.334.334 0 00-.21-.24c-.1-.047-.254-.073-.46-.08v-.2c.186.007.423.013.71.02a38.536 38.536 0 001.84 0c.3-.007.54-.013.72-.02zm3.047 1.76c.586 0 1.046.173 1.38.52.333.347.5.917.5 1.71h-3.21l-.01-.19h1.86a4.89 4.89 0 00-.04-.9 1.946 1.946 0 00-.2-.67c-.087-.167-.204-.25-.35-.25-.2 0-.37.143-.51.43-.14.287-.227.773-.26 1.46l.04.07c-.014.073-.02.15-.02.23v.24c0 .46.06.827.18 1.1.126.273.283.467.47.58.186.113.38.17.58.17.113 0 .24-.017.38-.05s.286-.103.44-.21c.153-.107.3-.263.44-.47l.17.06c-.074.26-.2.517-.38.77a2.215 2.215 0 01-.67.62c-.274.16-.604.24-.99.24-.44 0-.834-.09-1.18-.27-.347-.187-.624-.477-.83-.87-.2-.4-.3-.92-.3-1.56 0-.633.11-1.153.33-1.56.22-.407.52-.707.9-.9.38-.2.806-.3 1.28-.3zm8.429.15v.21c-.22 0-.377.05-.47.15-.087.1-.13.29-.13.57v3.31c0 .28.043.47.13.57.093.1.25.15.47.15V81a26.324 26.324 0 00-.6-.02 14.886 14.886 0 00-1.55 0 23.71 23.71 0 00-.57.02v-.21c.186 0 .316-.05.39-.15.073-.1.11-.29.11-.57v-3.31c0-.28-.037-.47-.11-.57-.074-.1-.204-.15-.39-.15v-.21l.54.03a33.063 33.063 0 001.55 0l.63-.03zm-3.29 0v.21c-.187 0-.317.05-.39.15-.074.1-.11.29-.11.57v3.31c0 .28.036.47.11.57.073.1.203.15.39.15V81a23.94 23.94 0 00-.55-.02 13.51 13.51 0 00-.73-.02c-.274 0-.547.007-.82.02-.274.007-.48.013-.62.02v-.21c.22 0 .373-.05.46-.15.093-.1.14-.29.14-.57v-3.31c0-.28-.047-.47-.14-.57-.087-.1-.24-.15-.46-.15v-.21l.58.03a31.057 31.057 0 001.56 0l.58-.03zm1.67 2.4v.2h-2.82v-.2h2.82zm7.525-2.4a19.27 19.27 0 00-.06.85c-.007.273-.01.483-.01.63a7.497 7.497 0 00.03.7h-.23c-.094-.487-.217-.873-.37-1.16-.147-.293-.304-.5-.47-.62-.167-.127-.33-.19-.49-.19h-.31v3.93c0 .327.08.547.24.66.166.107.386.16.66.16V81a45.787 45.787 0 00-.72-.02 23.387 23.387 0 00-1.97 0c-.307.007-.55.013-.73.02v-.21c.286 0 .506-.04.66-.12.16-.087.24-.293.24-.62v-4.01h-.33c-.154 0-.314.063-.48.19-.167.127-.324.333-.47.62-.14.287-.26.673-.36 1.16h-.23c.013-.08.02-.183.02-.31a8.247 8.247 0 00-.01-1.01 14.21 14.21 0 00-.05-.86h1.1c.173 0 .406.007.7.02a20.547 20.547 0 001.84 0c.3-.013.536-.02.71-.02h1.09zm2.648-.11v6.08c0 .32.076.533.23.64.16.107.376.16.65.16v.21l-.75-.03a48.35 48.35 0 00-1.01-.01c-.254 0-.507.003-.76.01l-.56.03v-.21c.213 0 .363-.05.45-.15.086-.093.13-.277.13-.55v-4.98c0-.3-.044-.52-.13-.66-.087-.147-.244-.22-.47-.22v-.21c.213.02.42.03.62.03.306 0 .593-.01.86-.03.266-.027.513-.063.74-.11zm1.53-.04c.34 0 .64.093.9.28.266.18.476.457.63.83.16.367.24.83.24 1.39 0 .527-.06.977-.18 1.35-.114.373-.277.68-.49.92-.207.24-.454.417-.74.53a2.53 2.53 0 01-.91.16 2.11 2.11 0 01-.69-.11.99.99 0 01-.49-.33l.1-.13c.06.093.143.163.25.21.106.047.22.07.34.07.273 0 .49-.093.65-.28.166-.193.286-.473.36-.84a6.96 6.96 0 00.11-1.34c0-.58-.034-1.03-.1-1.35-.067-.327-.157-.557-.27-.69a.511.511 0 00-.4-.2.818.818 0 00-.58.25c-.167.16-.26.38-.28.66l-.02-.42c.14-.32.346-.56.62-.72.273-.16.59-.24.95-.24zm12.24-1.76v.2a1.331 1.331 0 00-.47.08c-.1.04-.17.12-.21.24-.034.113-.05.293-.05.54v4.96c0 .24.016.42.05.54.04.12.11.2.21.24.106.04.263.067.47.08v.2c-.18-.013-.42-.02-.72-.02a43.133 43.133 0 00-1.84 0 10.5 10.5 0 00-.71.02v-.2c.206-.013.36-.04.46-.08a.334.334 0 00.21-.24c.04-.12.06-.3.06-.54v-4.96c0-.247-.02-.43-.06-.55a.36.36 0 00-.24-.24c-.114-.047-.284-.07-.51-.07h-.83c-.227 0-.4.023-.52.07a.36.36 0 00-.23.24c-.04.12-.06.303-.06.55v4.96c0 .24.016.42.05.54.04.12.11.2.21.24.106.04.263.067.47.08v.2c-.187-.013-.427-.02-.72-.02a43.133 43.133 0 00-1.83 0c-.3 0-.54.007-.72.02v-.2c.206-.013.36-.04.46-.08a.334.334 0 00.21-.24c.04-.12.06-.3.06-.54v-4.96c0-.247-.02-.427-.06-.54a.334.334 0 00-.21-.24c-.1-.047-.254-.073-.46-.08v-.2a51.091 51.091 0 002.85.02c.386-.013.696-.02.93-.02.233 0 .54.007.92.02.38.007.763.01 1.15.01a43.133 43.133 0 001.68-.03zm2.968 1.76c.28 0 .53.03.75.09.22.053.4.123.54.21.174.107.314.243.42.41.107.167.16.36.16.58a.888.888 0 01-.25.64.854.854 0 01-.63.25c-.26 0-.466-.077-.62-.23a.819.819 0 01-.22-.59c0-.233.074-.43.22-.59.147-.16.32-.267.52-.32a.593.593 0 00-.21-.13.754.754 0 00-.29-.05.838.838 0 00-.57.2 1.41 1.41 0 00-.38.53c-.093.22-.163.47-.21.75-.04.273-.06.557-.06.85 0 .493.064.88.19 1.16.134.273.297.467.49.58a1.283 1.283 0 00.98.11 1.3 1.3 0 00.44-.21c.16-.107.31-.267.45-.48l.17.06c-.073.26-.196.517-.37.77a2.166 2.166 0 01-.67.63c-.273.16-.606.24-1 .24-.44 0-.84-.09-1.2-.27-.353-.18-.636-.47-.85-.87-.213-.4-.32-.923-.32-1.57 0-.627.11-1.14.33-1.54.22-.407.52-.71.9-.91.387-.2.817-.3 1.29-.3zm8.58.15v.21c-.22 0-.376.05-.47.15-.086.1-.13.29-.13.57v3.31c0 .28.044.47.13.57.094.1.25.15.47.15V81a26.282 26.282 0 00-.6-.02 14.883 14.883 0 00-1.55 0 23.75 23.75 0 00-.57.02v-.21c.187 0 .317-.05.39-.15.074-.1.11-.29.11-.57v-3.31c0-.28-.036-.47-.11-.57-.073-.1-.203-.15-.39-.15v-.21l.54.03a33.051 33.051 0 001.55 0l.63-.03zm-3.48 0v.21c-.186 0-.316.05-.39.15-.073.1-.11.29-.11.57v3.31c0 .28.037.47.11.57.074.1.204.15.39.15V81c-.126-.007-.31-.013-.55-.02a13.19 13.19 0 00-.73-.02c-.273 0-.546.007-.82.02-.273.007-.48.013-.62.02v-.21c.22 0 .374-.05.46-.15.094-.1.14-.29.14-.57v-3.31c0-.28-.046-.47-.14-.57-.086-.1-.24-.15-.46-.15v-.21l.58.03a31.069 31.069 0 001.56 0l.58-.03zm1.38.59l.17.09-2.25 4.1-.17-.09 2.25-4.1zm4.89-.6v.21c-.133 0-.23.03-.29.09-.053.06-.046.143.02.25l2.62 3.92c.074.1.154.203.24.31.087.107.188.17.3.19V81a19 19 0 00-.51-.02c-.226-.013-.453-.02-.68-.02-.252 0-.51.007-.77.02a23.75 23.75 0 00-.57.02v-.21c.134 0 .227-.03.28-.09.06-.06.058-.143-.01-.25l-2.62-3.92a1.72 1.72 0 00-.27-.35.523.523 0 00-.27-.15v-.21l.58.03a28.612 28.612 0 001.44 0l.51-.03zm-.4 2.83l.01.06c.014.04.024.08.03.12.008.033.01.05.01.05l-.25.33c-.212.273-.332.527-.36.76a.749.749 0 00.17.58c.134.147.318.23.55.25v.2a9.65 9.65 0 00-.49-.01c-.2-.007-.392-.01-.58-.01-.186-.007-.34-.01-.46-.01a5.97 5.97 0 00-.38.01c-.106 0-.21.007-.31.02v-.2c.168-.073.32-.17.46-.29.148-.127.304-.297.47-.51l1.13-1.35zm2.97-2.83v.2c-.14.053-.29.15-.45.29a4.4 4.4 0 00-.48.5l-1.09 1.32-.02-.05-.02-.12-.01-.06.41-.53c.194-.233.31-.45.35-.65.04-.2.007-.36-.1-.48-.1-.127-.27-.2-.51-.22v-.2l.64.02c.227.007.424.01.59.01.148 0 .274-.003.38-.01l.31-.02zm2.916-.14c.5 0 .937.09 1.31.27.38.173.673.46.88.86.213.4.32.933.32 1.6s-.107 1.2-.32 1.6c-.207.4-.5.69-.88.87-.373.173-.81.26-1.31.26-.493 0-.93-.087-1.31-.26a1.947 1.947 0 01-.88-.87c-.213-.4-.32-.933-.32-1.6s.107-1.2.32-1.6c.213-.4.507-.687.88-.86.38-.18.817-.27 1.31-.27zm0 .2c-.233 0-.43.2-.59.6-.153.393-.23 1.037-.23 1.93s.077 1.54.23 1.94c.16.393.357.59.59.59.24 0 .437-.197.59-.59.153-.4.23-1.047.23-1.94s-.077-1.537-.23-1.93c-.153-.4-.35-.6-.59-.6zm7.293-.05a19.27 19.27 0 00-.06.85c-.007.273-.01.483-.01.63 0 .133.003.263.01.39.007.12.013.223.02.31h-.23c-.1-.473-.22-.853-.36-1.14-.14-.293-.287-.503-.44-.63-.153-.133-.31-.2-.47-.2h-.1c-.12 0-.21.04-.27.12-.053.08-.08.227-.08.44v3.37c0 .327.08.547.24.66.16.107.38.16.66.16V81a48.88 48.88 0 00-.76-.02c-.32-.013-.66-.02-1.02-.02-.26 0-.517.007-.77.02a23.75 23.75 0 00-.57.02v-.21c.22 0 .373-.05.46-.15.093-.1.14-.29.14-.57v-3.31c0-.28-.047-.47-.14-.57-.087-.1-.24-.15-.46-.15v-.21l.58.03c.267.007.527.01.78.01.247 0 .49-.007.73-.02.247-.013.44-.02.58-.02h1.54zm3.078-.15c.587 0 1.047.173 1.38.52.333.347.5.917.5 1.71h-3.21l-.01-.19h1.86a4.89 4.89 0 00-.04-.9 1.949 1.949 0 00-.2-.67c-.087-.167-.203-.25-.35-.25-.2 0-.37.143-.51.43-.14.287-.227.773-.26 1.46l.04.07c-.013.073-.02.15-.02.23v.24c0 .46.06.827.18 1.1.127.273.283.467.47.58.187.113.38.17.58.17.113 0 .24-.017.38-.05s.287-.103.44-.21c.153-.107.3-.263.44-.47l.17.06c-.073.26-.2.517-.38.77a2.217 2.217 0 01-.67.62c-.273.16-.603.24-.99.24-.44 0-.833-.09-1.18-.27-.347-.187-.623-.477-.83-.87-.2-.4-.3-.92-.3-1.56 0-.633.11-1.153.33-1.56.22-.407.52-.707.9-.9.38-.2.807-.3 1.28-.3zm8.429.15v.21c-.22 0-.377.05-.47.15-.087.1-.13.29-.13.57v3.31c0 .28.043.47.13.57.093.1.25.15.47.15V81a26.282 26.282 0 00-.6-.02 14.883 14.883 0 00-1.55 0 23.75 23.75 0 00-.57.02v-.21c.187 0 .317-.05.39-.15.073-.1.11-.29.11-.57v-3.31c0-.28-.037-.47-.11-.57-.073-.1-.203-.15-.39-.15v-.21l.54.03a33.051 33.051 0 001.55 0l.63-.03zm-3.29 0v.21c-.187 0-.317.05-.39.15-.073.1-.11.29-.11.57v3.31c0 .28.037.47.11.57.073.1.203.15.39.15V81c-.127-.007-.31-.013-.55-.02a13.19 13.19 0 00-.73-.02c-.273 0-.547.007-.82.02-.273.007-.48.013-.62.02v-.21c.22 0 .373-.05.46-.15.093-.1.14-.29.14-.57v-3.31c0-.28-.047-.47-.14-.57-.087-.1-.24-.15-.46-.15v-.21l.58.03a31.069 31.069 0 001.56 0l.58-.03zm1.67 2.4v.2h-2.82v-.2h2.82zm4.695-2.55c.587 0 1.047.173 1.38.52.333.347.5.917.5 1.71h-3.21l-.01-.19h1.86a4.89 4.89 0 00-.04-.9 1.949 1.949 0 00-.2-.67c-.087-.167-.203-.25-.35-.25-.2 0-.37.143-.51.43-.14.287-.227.773-.26 1.46l.04.07c-.013.073-.02.15-.02.23v.24c0 .46.06.827.18 1.1.127.273.283.467.47.58.187.113.38.17.58.17.113 0 .24-.017.38-.05s.287-.103.44-.21c.153-.107.3-.263.44-.47l.17.06c-.073.26-.2.517-.38.77a2.217 2.217 0 01-.67.62c-.273.16-.603.24-.99.24-.44 0-.833-.09-1.18-.27-.347-.187-.623-.477-.83-.87-.2-.4-.3-.92-.3-1.56 0-.633.11-1.153.33-1.56.22-.407.52-.707.9-.9.38-.2.807-.3 1.28-.3zm7.869.15a19.27 19.27 0 00-.06.85c-.007.273-.01.483-.01.63 0 .133.003.263.01.39.007.12.013.223.02.31h-.23c-.093-.487-.217-.873-.37-1.16-.147-.293-.303-.5-.47-.62-.167-.127-.33-.19-.49-.19h-.31v3.93c0 .327.08.547.24.66.167.107.387.16.66.16V81a45.859 45.859 0 00-.72-.02 23.38 23.38 0 00-1.97 0c-.307.007-.55.013-.73.02v-.21c.287 0 .507-.04.66-.12.16-.087.24-.293.24-.62v-4.01h-.33c-.153 0-.313.063-.48.19-.167.127-.323.333-.47.62-.14.287-.26.673-.36 1.16h-.23c.013-.08.02-.183.02-.31.007-.127.01-.257.01-.39 0-.147-.007-.353-.02-.62a13.5 13.5 0 00-.05-.86h1.1c.173 0 .407.007.7.02a20.544 20.544 0 001.84 0c.3-.013.537-.02.71-.02h1.09zm6.668 0v.21c-.22 0-.377.05-.47.15-.087.1-.13.29-.13.57v3.31c0 .28.043.47.13.57.093.1.25.15.47.15V81a26.282 26.282 0 00-.6-.02 14.883 14.883 0 00-1.55 0 23.75 23.75 0 00-.57.02v-.21c.187 0 .317-.05.39-.15.073-.1.11-.29.11-.57v-3.31c0-.28-.037-.47-.11-.57-.073-.1-.203-.15-.39-.15v-.21l.54.03a33.051 33.051 0 001.55 0l.63-.03zm-3.48 0v.21c-.187 0-.317.05-.39.15-.073.1-.11.29-.11.57v3.31c0 .28.037.47.11.57.073.1.203.15.39.15V81c-.127-.007-.31-.013-.55-.02a13.19 13.19 0 00-.73-.02c-.273 0-.547.007-.82.02-.273.007-.48.013-.62.02v-.21c.22 0 .373-.05.46-.15.093-.1.14-.29.14-.57v-3.31c0-.28-.047-.47-.14-.57-.087-.1-.24-.15-.46-.15v-.21l.58.03a31.069 31.069 0 001.56 0l.58-.03zm1.38.59l.17.09-2.25 4.1-.17-.09 2.25-4.1zm7.22-.74c.36 0 .624.083.79.25.167.167.25.377.25.63 0 .26-.08.467-.24.62a.804.804 0 01-.58.22c-.133 0-.27-.023-.41-.07a.844.844 0 01-.34-.25.713.713 0 01-.14-.45c0-.127.034-.253.1-.38a.84.84 0 01.36-.33c-.193.02-.34.08-.44.18a.905.905 0 00-.23.42l-.2.71a3.52 3.52 0 01-.18.5.973.973 0 01-.26.37 1.233 1.233 0 01-.48.22l.03-.07c.534-.08.97-.07 1.31.03.34.1.597.257.77.47.147.18.254.397.32.65.074.253.174.533.3.84.074.173.144.303.21.39.074.087.187.14.34.16V81a4.16 4.16 0 01-.39.04c-.12.013-.24.02-.36.02-.413 0-.746-.077-1-.23-.253-.153-.426-.423-.52-.81a2.671 2.671 0 00-.09-.36 5.084 5.084 0 00-.17-.49 1.417 1.417 0 00-.25-.42.957.957 0 00-.39-.26c-.16-.06-.36-.077-.6-.05v-.18c.294-.02.517-.07.67-.15a.82.82 0 00.36-.39c.08-.173.154-.393.22-.66.08-.287.16-.533.24-.74a.988.988 0 01.35-.47c.154-.113.37-.17.65-.17zm-1.87.15v.21c-.213 0-.363.05-.45.15-.086.1-.13.29-.13.57v3.31c0 .28.044.47.13.57.087.1.237.15.45.15V81c-.14-.007-.346-.013-.62-.02a16.457 16.457 0 00-1.59 0 23.72 23.72 0 00-.59.02v-.21c.22 0 .374-.05.46-.15.094-.1.14-.29.14-.57v-3.31c0-.28-.046-.47-.14-.57-.086-.1-.24-.15-.46-.15v-.21l.63.03a34.753 34.753 0 001.59 0l.58-.03zm9.68 0v.21c-.22 0-.377.05-.47.15-.087.1-.13.29-.13.57v3.31c0 .28.043.47.13.57.093.1.25.15.47.15V81a26.577 26.577 0 00-.6-.02 14.904 14.904 0 00-1.55 0c-.254.007-.444.013-.57.02v-.21c.186 0 .316-.05.39-.15.073-.1.11-.29.11-.57v-3.31c0-.28-.037-.47-.11-.57-.074-.1-.204-.15-.39-.15v-.21l.54.03a33.137 33.137 0 001.55 0l.63-.03zm-3.48 0v.21c-.187 0-.317.05-.39.15-.074.1-.11.29-.11.57v3.31c0 .28.036.47.11.57.073.1.203.15.39.15V81c-.127-.007-.31-.013-.55-.02a13.21 13.21 0 00-.73-.02c-.274 0-.547.007-.82.02-.274.007-.48.013-.62.02v-.21c.22 0 .373-.05.46-.15.093-.1.14-.29.14-.57v-3.31c0-.28-.047-.47-.14-.57-.087-.1-.24-.15-.46-.15v-.21l.58.03a30.985 30.985 0 001.56 0l.58-.03zm1.38.59l.17.09-2.25 4.1-.17-.09 2.25-4.1zm-83.752 7.5c-.027.313-.047.617-.06.91-.007.293-.01.517-.01.67 0 .133.003.263.01.39.007.12.013.223.02.31h-.23c-.1-.52-.237-.93-.41-1.23-.173-.3-.373-.51-.6-.63a1.472 1.472 0 00-.73-.19h-.21c-.187 0-.327.017-.42.05a.272.272 0 00-.19.18 1.73 1.73 0 00-.04.44v5.12c0 .22.013.393.04.52.027.127.077.217.15.27.08.047.197.07.35.07.287 0 .51-.07.67-.21.167-.147.283-.357.35-.63.067-.28.1-.613.1-1 0-.38-.037-.72-.11-1.02-.067-.3-.197-.533-.39-.7-.187-.173-.463-.26-.83-.26h-1v-.19h.6c.2-.007.383-.01.55-.01.593 0 1.087.063 1.48.19.393.12.703.283.93.49.233.2.4.427.5.68.1.247.15.503.15.77 0 .293-.057.567-.17.82-.113.253-.29.477-.53.67a2.69 2.69 0 01-.91.44c-.367.1-.803.15-1.31.15-.16 0-.373-.003-.64-.01a38.31 38.31 0 00-1.8 0c-.3 0-.54.007-.72.02v-.2c.207-.013.36-.04.46-.08a.334.334 0 00.21-.24c.04-.12.06-.3.06-.54v-4.96c0-.247-.02-.427-.06-.54a.334.334 0 00-.21-.24c-.1-.047-.253-.073-.46-.08v-.2l.9.02c.32 0 .637.003.95.01h2.54c.38-.007.72-.017 1.02-.03zm3.79 1.76c.5 0 .937.09 1.31.27.38.173.674.46.88.86.213.4.32.933.32 1.6s-.107 1.2-.32 1.6c-.207.4-.5.69-.88.87-.373.173-.81.26-1.31.26-.493 0-.93-.087-1.31-.26a1.947 1.947 0 01-.88-.87c-.213-.4-.32-.933-.32-1.6s.107-1.2.32-1.6c.213-.4.507-.687.88-.86.38-.18.817-.27 1.31-.27zm0 .2c-.233 0-.43.2-.59.6-.153.393-.23 1.037-.23 1.93s.077 1.54.23 1.94c.16.393.357.59.59.59.24 0 .437-.197.59-.59.154-.4.23-1.047.23-1.94s-.076-1.537-.23-1.93c-.153-.4-.35-.6-.59-.6zm5.263-.16v6.08c0 .32.077.533.23.64.16.107.377.16.65.16v.21l-.75-.03a48.35 48.35 0 00-1.01-.01c-.253 0-.506.003-.76.01l-.56.03v-.21c.214 0 .364-.05.45-.15.087-.093.13-.277.13-.55v-4.98c0-.3-.043-.52-.13-.66-.086-.147-.243-.22-.47-.22v-.21c.214.02.42.03.62.03.307 0 .594-.01.86-.03.267-.027.514-.063.74-.11zm1.53-.04c.34 0 .64.093.9.28.267.18.477.457.63.83.16.367.24.83.24 1.39 0 .527-.06.977-.18 1.35a2.41 2.41 0 01-.49.92c-.206.24-.453.417-.74.53-.28.107-.583.16-.91.16a2.11 2.11 0 01-.69-.11.99.99 0 01-.49-.33l.1-.13a.56.56 0 00.25.21c.107.047.22.07.34.07.274 0 .49-.093.65-.28.167-.193.287-.473.36-.84a6.96 6.96 0 00.11-1.34c0-.58-.033-1.03-.1-1.35-.066-.327-.156-.557-.27-.69a.511.511 0 00-.4-.2.818.818 0 00-.58.25c-.166.16-.26.38-.28.66l-.02-.42c.14-.32.347-.56.62-.72.274-.16.59-.24.95-.24zm8.555.15v.21c-.22 0-.377.05-.47.15-.087.1-.13.29-.13.57v3.31c0 .28.043.47.13.57.093.1.25.15.47.15V91a26.282 26.282 0 00-.6-.02 14.883 14.883 0 00-1.55 0 23.75 23.75 0 00-.57.02v-.21c.186 0 .316-.05.39-.15.073-.1.11-.29.11-.57v-3.31c0-.28-.037-.47-.11-.57-.074-.1-.204-.15-.39-.15v-.21l.54.03a33.051 33.051 0 001.55 0l.63-.03zm-3.48 0v.21c-.187 0-.317.05-.39.15-.074.1-.11.29-.11.57v3.31c0 .28.036.47.11.57.073.1.203.15.39.15V91c-.127-.007-.31-.013-.55-.02a13.19 13.19 0 00-.73-.02c-.274 0-.547.007-.82.02-.274.007-.48.013-.62.02v-.21c.22 0 .373-.05.46-.15.093-.1.14-.29.14-.57v-3.31c0-.28-.047-.47-.14-.57-.087-.1-.24-.15-.46-.15v-.21l.58.03a31.069 31.069 0 001.56 0l.58-.03zm1.38.59l.17.09-2.25 4.1-.17-.09 2.25-4.1zm5.17-.74c.28 0 .53.03.75.09.22.053.4.123.54.21.173.107.313.243.42.41.107.167.16.36.16.58a.888.888 0 01-.25.64.854.854 0 01-.63.25c-.26 0-.466-.077-.62-.23a.819.819 0 01-.22-.59.84.84 0 01.22-.59c.147-.16.32-.267.52-.32a.593.593 0 00-.21-.13.754.754 0 00-.29-.05.838.838 0 00-.57.2 1.41 1.41 0 00-.38.53c-.093.22-.163.47-.21.75-.04.273-.06.557-.06.85 0 .493.064.88.19 1.16.133.273.297.467.49.58a1.283 1.283 0 00.98.11 1.3 1.3 0 00.44-.21c.16-.107.31-.267.45-.48l.17.06c-.073.26-.197.517-.37.77a2.166 2.166 0 01-.67.63c-.273.16-.606.24-1 .24-.44 0-.84-.09-1.2-.27-.353-.18-.636-.47-.85-.87-.213-.4-.32-.923-.32-1.57 0-.627.11-1.14.33-1.54.22-.407.52-.71.9-.91.387-.2.817-.3 1.29-.3zm3.74 5.39c-.306 0-.56-.057-.76-.17-.2-.12-.346-.277-.44-.47-.093-.193-.14-.4-.14-.62 0-.28.063-.51.19-.69.133-.18.303-.323.51-.43.207-.113.424-.207.65-.28l.65-.21c.207-.073.373-.157.5-.25.127-.1.19-.227.19-.38v-.83a1.17 1.17 0 00-.07-.41.588.588 0 00-.23-.32c-.107-.087-.257-.13-.45-.13-.12 0-.236.017-.35.05a.815.815 0 00-.3.16c.213.073.37.183.47.33.107.147.16.31.16.49a.733.733 0 01-.26.59.902.902 0 01-.6.21c-.253 0-.45-.08-.59-.24a.876.876 0 01-.2-.58c0-.2.05-.367.15-.5.1-.14.247-.267.44-.38.194-.113.427-.197.7-.25.274-.053.564-.08.87-.08.313 0 .6.033.86.1.267.06.493.183.68.37.147.153.24.34.28.56.04.22.06.5.06.84v2.7c0 .167.014.283.04.35a.16.16 0 00.15.09c.06 0 .117-.017.17-.05a2.18 2.18 0 00.16-.11l.11.17c-.146.12-.32.213-.52.28-.2.06-.417.09-.65.09-.267 0-.476-.033-.63-.1a.72.72 0 01-.32-.29.984.984 0 01-.1-.4c-.147.24-.33.433-.55.58-.22.14-.497.21-.83.21zm.83-.72c.107 0 .2-.02.28-.06a.707.707 0 00.24-.23v-2.08a1.151 1.151 0 01-.22.27c-.087.08-.18.163-.28.25a2.7 2.7 0 00-.29.27c-.087.1-.16.22-.22.36a1.33 1.33 0 00-.08.49c0 .26.053.447.16.56a.54.54 0 00.41.17zm9.15-6.57c.44 0 .8.067 1.08.2.286.127.54.277.76.45.133.1.233.113.3.04.073-.08.123-.263.15-.55h.23c-.014.26-.024.58-.03.96-.007.38-.01.88-.01 1.5h-.23a5.045 5.045 0 00-.13-.82 2.15 2.15 0 00-.24-.62 1.57 1.57 0 00-.46-.48 1.658 1.658 0 00-.52-.29 1.573 1.573 0 00-.58-.11c-.367 0-.677.103-.93.31a2.18 2.18 0 00-.6.8 4.42 4.42 0 00-.32 1.1c-.06.4-.09.803-.09 1.21 0 .413.033.823.1 1.23.066.4.173.763.32 1.09.153.327.356.59.61.79.253.193.563.29.93.29.193 0 .383-.033.57-.1.193-.067.366-.163.52-.29.293-.2.49-.46.59-.78.106-.327.183-.75.23-1.27h.23c0 .647.003 1.17.01 1.57.006.393.016.723.03.99h-.23c-.027-.287-.074-.467-.14-.54-.06-.073-.164-.063-.31.03-.247.173-.51.327-.79.46-.274.127-.627.19-1.06.19-.727 0-1.367-.143-1.92-.43a3.099 3.099 0 01-1.28-1.24c-.3-.54-.45-1.19-.45-1.95 0-.747.156-1.4.47-1.96.313-.56.743-.997 1.29-1.31.553-.313 1.186-.47 1.9-.47zm5.909 1.9c.5 0 .937.09 1.31.27.38.173.673.46.88.86.213.4.32.933.32 1.6s-.107 1.2-.32 1.6c-.207.4-.5.69-.88.87-.373.173-.81.26-1.31.26-.493 0-.93-.087-1.31-.26a1.948 1.948 0 01-.88-.87c-.213-.4-.32-.933-.32-1.6s.107-1.2.32-1.6c.213-.4.507-.687.88-.86.38-.18.817-.27 1.31-.27zm0 .2c-.233 0-.43.2-.59.6-.153.393-.23 1.037-.23 1.93s.077 1.54.23 1.94c.16.393.357.59.59.59.24 0 .437-.197.59-.59.153-.4.23-1.047.23-1.94s-.077-1.537-.23-1.93c-.153-.4-.35-.6-.59-.6zm5.263-.16v6.08c0 .32.077.533.23.64.16.107.377.16.65.16v.21l-.75-.03a48.35 48.35 0 00-1.01-.01c-.253 0-.507.003-.76.01l-.56.03v-.21c.213 0 .364-.05.45-.15.087-.093.13-.277.13-.55v-4.98c0-.3-.043-.52-.13-.66-.087-.147-.243-.22-.47-.22v-.21c.213.02.42.03.62.03.307 0 .594-.01.86-.03.267-.027.514-.063.74-.11zm1.53-.04c.34 0 .64.093.9.28.267.18.477.457.63.83.16.367.24.83.24 1.39 0 .527-.06.977-.18 1.35a2.41 2.41 0 01-.49.92c-.207.24-.453.417-.74.53-.28.107-.583.16-.91.16a2.11 2.11 0 01-.69-.11.99.99 0 01-.49-.33l.1-.13a.56.56 0 00.25.21c.107.047.22.07.34.07.273 0 .49-.093.65-.28.167-.193.287-.473.36-.84a6.96 6.96 0 00.11-1.34c0-.58-.033-1.03-.1-1.35-.066-.327-.156-.557-.27-.69a.511.511 0 00-.4-.2.818.818 0 00-.58.25c-.166.16-.26.38-.28.66l-.02-.42c.14-.32.347-.56.62-.72.273-.16.59-.24.95-.24zm8.555.15v.21c-.22 0-.377.05-.47.15-.087.1-.13.29-.13.57v3.31c0 .28.043.47.13.57.093.1.25.15.47.15V91a26.282 26.282 0 00-.6-.02 14.883 14.883 0 00-1.55 0 23.75 23.75 0 00-.57.02v-.21c.186 0 .316-.05.39-.15.073-.1.11-.29.11-.57v-3.31c0-.28-.037-.47-.11-.57-.074-.1-.204-.15-.39-.15v-.21l.54.03a33.051 33.051 0 001.55 0l.63-.03zm-3.48 0v.21c-.187 0-.317.05-.39.15-.074.1-.11.29-.11.57v3.31c0 .28.036.47.11.57.073.1.203.15.39.15V91c-.127-.007-.31-.013-.55-.02a13.19 13.19 0 00-.73-.02c-.274 0-.547.007-.82.02-.274.007-.48.013-.62.02v-.21c.22 0 .373-.05.46-.15.093-.1.14-.29.14-.57v-3.31c0-.28-.047-.47-.14-.57-.087-.1-.24-.15-.46-.15v-.21l.58.03a31.069 31.069 0 001.56 0l.58-.03zm1.38.59l.17.09-2.25 4.1-.17-.09 2.25-4.1zm8.56-.59v.21c-.22 0-.377.05-.47.15-.087.1-.13.29-.13.57v3.31c0 .28.043.47.13.57.093.1.25.15.47.15V91a26.282 26.282 0 00-.6-.02 14.883 14.883 0 00-1.55 0 23.75 23.75 0 00-.57.02v-.21c.187 0 .317-.05.39-.15.073-.1.11-.29.11-.57v-3.31c0-.28-.037-.47-.11-.57-.073-.1-.203-.15-.39-.15v-.21l.54.03a33.051 33.051 0 001.55 0l.63-.03zm-3.29 0v.21c-.187 0-.317.05-.39.15-.073.1-.11.29-.11.57v3.31c0 .28.037.47.11.57.073.1.203.15.39.15V91a23.94 23.94 0 00-.55-.02 13.19 13.19 0 00-.73-.02c-.273 0-.547.007-.82.02-.273.007-.48.013-.62.02v-.21c.22 0 .373-.05.46-.15.093-.1.14-.29.14-.57v-3.31c0-.28-.047-.47-.14-.57-.087-.1-.24-.15-.46-.15v-.21l.58.03a31.069 31.069 0 001.56 0l.58-.03zm1.67 2.4v.2h-2.82v-.2h2.82zm3.435 2.84c-.307 0-.56-.057-.76-.17-.2-.12-.347-.277-.44-.47-.094-.193-.14-.4-.14-.62 0-.28.063-.51.19-.69.133-.18.303-.323.51-.43.206-.113.423-.207.65-.28l.65-.21a1.94 1.94 0 00.5-.25c.126-.1.19-.227.19-.38v-.83a1.17 1.17 0 00-.07-.41.588.588 0 00-.23-.32c-.107-.087-.257-.13-.45-.13-.12 0-.237.017-.35.05a.813.813 0 00-.3.16c.213.073.37.183.47.33.106.147.16.31.16.49a.734.734 0 01-.26.59.902.902 0 01-.6.21c-.254 0-.45-.08-.59-.24a.876.876 0 01-.2-.58c0-.2.05-.367.15-.5.1-.14.246-.267.44-.38.193-.113.427-.197.7-.25a4.54 4.54 0 01.87-.08c.313 0 .6.033.86.1.267.06.493.183.68.37.147.153.24.34.28.56.04.22.06.5.06.84v2.7c0 .167.013.283.04.35a.16.16 0 00.15.09c.06 0 .117-.017.17-.05a2.3 2.3 0 00.16-.11l.11.17c-.147.12-.32.213-.52.28-.2.06-.417.09-.65.09-.267 0-.477-.033-.63-.1a.718.718 0 01-.32-.29.983.983 0 01-.1-.4c-.147.24-.33.433-.55.58-.22.14-.497.21-.83.21zm.83-.72c.106 0 .2-.02.28-.06a.709.709 0 00.24-.23v-2.08a1.156 1.156 0 01-.22.27c-.087.08-.18.163-.28.25a2.7 2.7 0 00-.29.27c-.087.1-.16.22-.22.36a1.33 1.33 0 00-.08.49c0 .26.053.447.16.56.106.113.243.17.41.17z" fill="#000"/><defs><clipPath id="clip0_167_329"><path fill="#fff" transform="translate(24)" d="M0 0h66v67H0z"/></clipPath></defs></svg>