<svg width="114" height="93" viewBox="0 0 114 93" fill="none" xmlns="http://www.w3.org/2000/svg">
<g clip-path="url(#clip0_167_329)">
<path d="M52.2921 25.5754V25.5905L52.043 24.8929L52.0779 24.6118L52.1178 24.2003L51.769 23.1012L51.3904 22.0121L51.2659 21.6458L51.1363 22.0121L51.0915 22.1476C50.6332 23.4625 50.3243 24.7775 50.1449 26.1275C50.0901 26.5491 50.0453 26.9807 50.0154 27.4123C50.0054 27.5428 49.9905 27.6632 49.9805 27.7887L49.8161 29.2843L49.6567 30.7297C49.6567 30.7297 49.6567 31.0408 49.6716 31.3972C49.6816 31.8438 49.6916 32.3607 49.6966 32.4059C49.7065 32.4611 49.7165 32.5214 49.7265 32.5766C49.7912 32.953 49.8859 33.3545 50.1898 33.6506L50.394 33.8112L50.5584 33.4197L50.6531 33.1788L50.7328 33.1387L50.404 32.8526C50.404 32.8526 50.394 32.8476 50.389 32.8425C50.409 32.8225 50.4289 32.7924 50.4289 32.7924C50.4837 32.7271 50.5435 32.6518 50.5933 32.5766C50.683 32.4411 50.7477 32.2905 50.7477 32.0897C50.7477 32.0245 50.7378 31.9542 50.7228 31.884C50.7228 31.884 50.6481 31.6983 50.6033 31.5929C50.6033 31.5929 50.6381 31.4925 50.678 31.3972C50.7129 31.2968 50.7527 31.1964 50.7527 31.1914C50.7527 31.1914 50.7527 30.8702 50.7527 30.8652L50.8175 30.6594C50.8175 30.6594 50.8922 30.4386 50.8922 30.4436L51.1413 29.9216L51.2808 29.6757C51.495 29.2542 51.5598 28.7272 51.6245 28.2203L51.8736 27.4123L51.9683 27.1112C52.0928 26.79 52.2174 26.4587 52.2772 26.1325C52.3071 25.9468 52.327 25.7661 52.3021 25.5855L52.2921 25.5754ZM50.3741 32.0847C50.3741 32.2754 50.2745 32.3909 50.1399 32.5515C50.1399 32.5515 50.13 32.5615 50.125 32.5715H50.1101C50.0901 32.4712 50.0652 32.3808 50.0453 32.2654C50.0453 32.2654 50.0403 31.8037 50.0353 31.3871H50.2894C50.2595 31.4775 50.2296 31.5828 50.2296 31.5828C50.2296 31.5828 50.3243 31.8689 50.3542 31.9492C50.3641 31.9944 50.3691 32.0395 50.3691 32.0797L50.3741 32.0847ZM51.8836 26.1225C51.8238 26.3935 51.7391 26.6745 51.6196 26.9656L51.4851 27.4073H50.3791C50.414 26.9757 50.4638 26.5491 50.5236 26.1225H51.8836V26.1225ZM86.2935 33.9015L86.2835 34.7748C86.2835 34.9655 86.428 35.1261 86.6173 35.1311C86.8016 35.1311 86.9611 34.9906 86.9611 34.7998L86.971 33.9065C86.971 19.026 76.4144 6.4591 61.8723 4.02502C61.688 3.99491 61.5086 4.12037 61.4787 4.30607C61.4488 4.49176 61.5734 4.66742 61.7577 4.69753C75.971 7.0764 86.2885 19.3622 86.2885 33.9065L86.2935 33.9015ZM24 33.756C24 52.0894 38.8012 67 57.005 67C65.8179 67 74.1078 63.5421 80.3401 57.2637C86.5725 50.9852 90.005 42.6341 90.005 33.756C90.005 24.8778 86.5725 16.5267 80.3401 10.2482C74.4316 4.30105 66.6898 0.888315 58.3999 0.542022L60.1037 2.46419C67.2726 3.17184 73.9185 6.3236 79.0797 11.523C84.9733 17.4652 88.2215 25.3596 88.2215 33.761C88.2215 35.2214 88.1169 36.6668 87.9226 38.0871L85.0281 37.5551C84.789 37.1737 84.3207 36.9228 83.8075 36.9529C83.1649 37.0031 82.6966 37.4748 82.6467 38.0369L80.8433 39.5777C80.7337 39.5576 80.6241 39.5325 80.5095 39.5425C79.9515 39.5827 79.5181 39.944 79.3786 40.4108C79.3537 40.4108 79.3338 40.3957 79.3039 40.3907C78.9552 40.3656 78.6413 40.471 78.3872 40.6517L76.4742 40.1799C76.2649 39.8738 75.9262 39.6429 75.5027 39.6128C74.7903 39.5626 74.1726 40.0394 74.1078 40.6868C74.1078 40.727 74.1227 40.7571 74.1227 40.7972L72.4887 41.7157C72.3492 41.6554 72.2047 41.6103 72.0453 41.6002C71.3329 41.55 70.7151 42.0268 70.6553 42.6742C70.6354 42.8549 70.6803 43.0255 70.75 43.1861L69.5394 45.023C69.5394 45.023 69.5245 45.018 69.5145 45.018C68.8021 44.9628 68.1793 45.4446 68.1196 46.092C68.0947 46.4031 68.2092 46.6993 68.4135 46.9251L67.4321 48.4207C67.3723 48.4106 67.3225 48.3805 67.2627 48.3755C67.0584 48.3604 66.8691 48.3805 66.6898 48.4357L65.6386 46.8398C65.7382 46.6541 65.803 46.4533 65.7831 46.2375C65.7332 45.6804 65.26 45.2689 64.6771 45.1886L63.4017 43.2514C63.4864 43.0807 63.5362 42.8951 63.5213 42.6893C63.4864 42.2778 63.2074 41.9515 62.8338 41.7709L63.0181 40.461L63.0779 40.0946C63.0779 40.0946 63.2871 39.0658 63.2871 39.0607L63.6409 37.6906L63.8053 36.8676C63.8252 36.7672 63.8451 36.6618 63.865 36.5564H64.1789C64.2337 36.6518 64.3034 36.7371 64.418 36.8023C64.418 36.8023 64.4678 36.8124 64.4828 36.8124L64.4728 36.8224C64.3134 36.9178 64.0593 37.0583 64.0593 37.3594C64.0593 37.3795 64.0593 37.3996 64.0693 37.4246C63.9348 37.4849 63.7754 37.52 63.7156 37.6756C63.6857 37.7509 63.6707 37.8312 63.6707 37.9064C63.6707 38.057 63.7255 38.1975 63.8351 38.2979L63.8501 38.3631L64.3483 38.2879L64.5874 38.2628H64.6821L65.2649 37.8713L65.5589 37.6605L65.6685 37.6003L65.8976 37.4447L66.1766 36.7471C66.1766 36.7471 66.2015 36.6518 66.2265 36.5564H87.4742L83.7776 32.5715H66.1866V32.5113L66.0421 31.3921H82.9158L79.2192 27.4073H65.6336L65.5838 26.9204L65.4044 26.1225H78.6762L74.8601 22.0071H64.9013C64.9112 21.5956 64.9262 21.169 64.9611 20.7223H74.322L70.5009 16.607H65.1753C65.1454 16.5016 65.1155 16.3962 65.0707 16.2958L64.6771 15.804C64.6771 15.804 64.5874 15.7136 64.5924 15.7187L64.4928 15.6082C64.4928 15.6082 64.3134 15.4527 64.1739 15.3272H69.9629L66.1517 11.2118H61.3342C61.3542 11.1667 61.3741 11.1366 61.389 11.0813L61.5186 10.7351L61.7428 9.92704H65.6037L61.7926 5.81169H60.5969C60.572 5.75146 60.5471 5.69625 60.5471 5.63603C60.5471 5.59086 60.5571 5.54569 60.582 5.49551L60.6318 5.41521L60.2332 4.71258L60.1286 4.63228L59.9194 4.52187H61.2495L57.0548 0L52.8551 4.52187H55.635C55.4407 4.60719 55.2813 4.67745 55.2813 4.67745L55.077 4.7979L54.3795 5.32989C54.2899 5.46539 54.2101 5.63101 54.1354 5.80667H52.317L48.5009 9.92202H54.7233C54.7233 9.92202 54.7432 9.95715 54.7482 9.97221L55.1717 10.444L55.63 11.0261L55.6649 11.1717C55.6649 11.1717 55.6698 11.1918 55.6748 11.2068H47.9529L44.1368 15.3222H49.5122L49.1934 15.7387L48.8845 16.607H43.5938L39.7776 20.7223H48.0426L47.8931 22.0071H39.2396L35.4284 26.1225H47.4198C47.365 26.544 47.3401 26.9757 47.3351 27.4073H34.8854L31.1889 31.3921H47.649L47.6689 31.9743C47.6689 31.9743 47.6739 32.3357 47.6789 32.5766H30.3718L26.6803 36.5614H47.5145C47.5195 36.6367 47.5294 36.6969 47.5294 36.6969L47.7437 36.9178C47.7437 36.9178 47.8533 37.0081 47.8582 37.0081L48.0276 37.244L48.2867 37.5903L48.4561 37.7358C48.4561 37.7358 48.5657 37.8211 48.5707 37.8261L48.6902 37.9516C48.6902 37.9516 48.8297 38.0921 48.8247 38.0921L49.0738 38.2578C49.0738 38.2578 49.2382 38.3682 49.2432 38.3631L49.1934 38.7044C49.1934 38.7044 49.1336 39.0357 49.1336 39.0407C49.1336 39.0407 49.1585 39.4321 49.1585 39.4372L49.1087 39.8688L46.8918 39.3217C46.6875 39.0156 46.3438 38.7847 45.9153 38.7546C45.2079 38.7044 44.5802 39.1862 44.5254 39.8286C44.5254 39.8637 44.5403 39.8989 44.5403 39.934L42.8963 40.8575C42.7568 40.7972 42.6123 40.7521 42.4529 40.742C41.7455 40.6868 41.1227 41.1686 41.0679 41.816C41.053 41.9967 41.0879 42.1673 41.1576 42.3279L39.952 44.1648C39.952 44.1648 39.9321 44.1598 39.9221 44.1598C39.2097 44.1096 38.587 44.5864 38.5322 45.2338C38.4973 45.56 38.6218 45.8661 38.841 46.097L37.8247 47.6378C37.7799 47.6327 37.74 47.6076 37.6902 47.6026C37.1372 47.5575 36.644 47.8536 36.4248 48.2902L36.0462 47.713C36.0611 47.6829 36.0861 47.6528 36.101 47.6227L36.1359 47.6026L36.1259 47.5876C36.1807 47.437 36.2106 47.2764 36.1907 47.1108C36.1409 46.5688 35.6925 46.1673 35.1295 46.0769L33.8741 44.1698C33.9389 44.0142 33.9787 43.8486 33.9588 43.6679C33.909 43.1008 33.4158 42.6843 32.8229 42.619L30.9398 40.6969C30.9647 40.5915 30.9896 40.4861 30.9796 40.3757C30.9248 39.7282 30.3021 39.2464 29.5947 39.2966C29.3356 39.3167 29.1164 39.4221 28.9271 39.5576L26.5059 39.0457C26.4411 39.0407 26.3415 39.0507 26.2468 39.0959C25.9529 37.3594 25.7885 35.5828 25.7885 33.761C25.7835 17.41 38.2332 3.92966 54.0856 2.44412L55.8193 0.531985C38.1685 1.15933 24 15.824 24 33.756H24ZM32.3397 42.6441C32.1753 42.6843 32.0358 42.7495 31.9063 42.8399C31.3632 42.2878 30.7604 41.6705 30.4665 41.3744C30.596 41.284 30.7006 41.1787 30.7803 41.0532C31.0892 41.3643 31.8415 42.1372 32.3397 42.6491V42.6441ZM34.6861 46.0619C34.5168 46.087 34.3673 46.1372 34.2328 46.2175C33.8691 45.6654 33.4905 45.0933 33.2862 44.7871C33.4307 44.7169 33.5602 44.6215 33.6599 44.5111C33.8641 44.8172 34.2826 45.4546 34.6861 46.0669V46.0619ZM36.091 49.9564L35.0448 50.9702C34.9402 50.9351 34.8356 50.8949 34.721 50.8849H34.7111L34.7559 48.3404C34.8406 48.3504 34.9253 48.3755 35.0149 48.3705C35.0249 48.3705 35.0299 48.3604 35.0448 48.3604L36.091 49.9564ZM35.7024 51.3918L35.6576 51.4018C35.5829 51.3064 35.4882 51.2211 35.3886 51.1509C35.5779 50.9702 35.8768 50.6841 36.2106 50.3629C36.1807 50.4784 36.1508 50.5888 36.1658 50.7142C36.1757 50.7895 36.2106 50.8548 36.2305 50.93C36.0063 51.1559 35.822 51.3516 35.7024 51.4721C35.6975 51.457 35.6875 51.447 35.6825 51.4369L35.7074 51.3968L35.7024 51.3918ZM36.5793 49.4796L36.3601 49.6954C36.0063 49.1534 35.6377 48.5913 35.4185 48.2601C35.5679 48.1999 35.6975 48.1195 35.812 48.0142C35.9416 48.2049 36.1209 48.4809 36.3202 48.787C36.3302 49.048 36.4198 49.2889 36.5842 49.4796H36.5793ZM39.5933 46.4584C39.1898 47.0706 38.7713 47.713 38.572 48.0091C38.4674 47.8987 38.3428 47.8034 38.1984 47.7331C38.4026 47.4219 38.7763 46.8548 39.1399 46.3028C39.2794 46.3781 39.4289 46.4333 39.5933 46.4634V46.4584ZM40.4801 51.5122C40.3954 51.5373 40.3207 51.5574 40.2509 51.5925L38.7015 50.7192C38.7065 50.654 38.7364 50.5888 38.7314 50.5135C38.7015 50.1923 38.5322 49.9163 38.288 49.7205C38.6119 49.5298 38.841 49.2237 38.8759 48.8523C38.8909 48.6766 38.856 48.506 38.7912 48.3554L39.8773 46.6993L40.4801 51.5122V51.5122ZM38.5969 51.0906C38.9108 51.2713 39.4239 51.5574 39.9171 51.8334C39.8175 51.9388 39.7428 52.0643 39.6929 52.1998C39.1848 51.9137 38.6517 51.6126 38.3329 51.4369C38.4475 51.3366 38.5322 51.2211 38.5969 51.0906V51.0906ZM41.7505 42.9352C41.3668 43.5224 40.9484 44.1497 40.7192 44.496C40.6096 44.3957 40.4801 44.3103 40.3256 44.2501C40.5648 43.8837 40.9882 43.2464 41.3718 42.6592C41.4764 42.7696 41.601 42.8599 41.7455 42.9302L41.7505 42.9352ZM43.9375 50.9049C43.6784 51.0856 43.5041 51.3466 43.4543 51.6477L42.0045 52.0091C41.7903 51.6778 41.4117 51.467 40.9783 51.447L40.3456 46.368C40.7541 46.1974 41.0679 45.8461 41.1028 45.4094C41.1227 45.2438 41.0928 45.0832 41.038 44.9327V44.9176L41.0231 44.9025C41.0082 44.8624 40.9783 44.8373 40.9583 44.8022L42.1191 43.0306C42.1639 43.0356 42.2038 43.0607 42.2486 43.0607C42.2935 43.0607 42.3284 43.0506 42.3682 43.0506L43.9375 50.8999V50.9049ZM42.1889 52.5009C42.1839 52.4507 42.154 52.4055 42.139 52.3554C42.4728 52.27 42.976 52.1446 43.4493 52.0291C43.4742 52.1697 43.524 52.3002 43.6037 52.4156C43.0707 52.5511 42.4678 52.6966 42.149 52.7769C42.1689 52.6866 42.1938 52.5963 42.1889 52.5009V52.5009ZM44.8342 40.6768C44.3361 40.9578 43.8179 41.2489 43.5091 41.4246C43.4443 41.2941 43.3596 41.1787 43.245 41.0783C43.5589 40.9026 44.0919 40.6015 44.6051 40.3154C44.6599 40.4459 44.7296 40.5714 44.8342 40.6818V40.6768ZM46.279 47.984C46.0249 48.2149 45.8705 48.5411 45.9004 48.8924C45.9203 49.1082 46.0199 49.2939 46.1445 49.4545L45.1381 50.7243C44.9688 50.6691 44.7894 50.6339 44.5951 50.649C44.5303 50.654 44.4706 50.6841 44.4108 50.6992L42.8664 42.9553C43.2849 42.7897 43.5987 42.4333 43.6386 41.9917C43.6436 41.9214 43.6187 41.8562 43.6087 41.7859L45.163 40.9127C45.2876 40.9779 45.4321 41.0231 45.5915 41.0431L46.284 47.979L46.279 47.984ZM46.4035 49.7205C46.5331 49.8109 46.6726 49.8811 46.832 49.9213C46.4633 50.388 46.0648 50.8899 45.8007 51.2211C45.716 51.0957 45.6064 50.9852 45.4769 50.8899C45.736 50.5637 46.0797 50.127 46.4085 49.7155L46.4035 49.7205ZM46.9117 40.5011L48.9792 41.0181C48.9592 41.1485 48.9443 41.284 48.9244 41.4145L48.7749 41.3995L48.2817 44.3204C47.938 44.5563 47.7138 44.9226 47.7486 45.3442C47.7686 45.5449 47.8533 45.7206 47.9629 45.8762C47.933 46.0067 47.9081 46.1522 47.8931 46.3178L47.2455 47.6428C47.1907 47.6428 47.1359 47.6227 47.0811 47.6277C46.9615 47.6378 46.8569 47.6779 46.7523 47.713L46.0897 41.0431C46.4384 40.9729 46.7323 40.7822 46.9167 40.5061L46.9117 40.5011ZM47.8284 47.2864L47.8134 47.4822L47.7486 47.7582C47.7038 47.7381 47.6739 47.708 47.6291 47.693C47.6889 47.5725 47.7536 47.432 47.8284 47.2814V47.2864ZM48.9194 43.5676C48.9244 43.6679 48.9393 43.7784 48.9393 43.7784L48.8596 43.9088L48.9194 43.5676ZM49.0688 40.2251L49.024 40.6416C48.3166 40.466 47.5045 40.2652 47.0462 40.1548C47.0611 40.0996 47.091 40.0595 47.096 40.0043C47.106 39.9089 47.0761 39.8236 47.0562 39.7333C47.4547 39.8286 48.3066 40.0394 49.0688 40.2301V40.2251ZM62.7092 40.0344L62.6495 40.3957L62.4701 41.6504L62.226 43.3518L62.1612 43.9339L62.1164 44.3655L61.8524 46.3329L61.399 47.2363L61.1748 47.6076L60.9656 47.969C60.9656 47.969 60.4674 48.9225 60.4624 48.9225L60.1087 50.7443L60.0589 51.1157L59.9642 51.7682C59.9642 51.7682 59.9642 51.7882 59.9592 51.7983C59.9493 51.8836 59.8845 52.3353 59.8347 52.7518C59.8148 52.8823 59.7998 53.0028 59.7849 53.1031C59.7649 53.2637 59.75 53.3792 59.745 53.3942C59.745 53.3942 59.7201 53.5599 59.6952 53.7957C59.6105 54.4381 59.4561 55.6225 59.4561 55.6225L59.2867 56.2148L59.0525 56.9776L58.8782 57.6802L58.923 58.5284C58.923 58.5284 58.9429 59.0202 58.9479 59.2009C58.928 59.2009 58.8981 59.2059 58.8981 59.2059L58.5892 59.2561L58.4647 59.2762L58.4746 59.4418C58.5145 59.9939 58.8682 60.3301 59.1771 60.6312C59.1771 60.6312 59.6852 61.2736 59.7052 61.359L59.7351 61.5246L59.7899 61.6701C59.7899 61.6701 59.8247 61.896 59.8447 62.0214C59.1024 62.1419 57.7074 62.2724 56.8356 62.0415C56.5965 61.9813 56.2976 61.901 56.2328 61.7655C56.1979 61.6902 56.2428 61.5697 56.2826 61.4844L56.4221 61.2536L55.3958 61.1181L54.9923 61.0829C54.5539 61.0378 54.2948 60.8972 54.2749 60.837L54.3596 60.4807L54.4244 60.2849L54.4742 60.1143L54.6137 59.7228L54.6286 59.6074L54.6984 58.689L54.6436 58.6288C54.6436 58.6288 54.7083 58.4682 54.7083 58.4581L54.7582 57.9061L54.7781 57.5598C54.9275 56.1947 55.1019 54.7543 55.3958 53.4795L55.5851 52.8522L55.7894 52.0894L55.8193 51.9739L55.8293 51.7531L55.8542 51.2663V51.2111L55.8691 50.6791L55.904 50.388L55.9737 49.7557L56.1431 48.3153L56.4171 47.2563L56.457 46.624L56.4669 46.2024L56.5118 45.7959L56.5666 45.1936L56.5516 44.8022L56.5417 44.3806L56.6214 43.5525C56.6214 43.5525 56.6264 43.5073 56.6264 43.4421C56.6413 43.2263 56.6662 42.7345 56.6911 42.353C56.7061 42.087 56.716 41.8763 56.716 41.8763L56.6513 41.55L56.5915 41.3091C56.5367 40.7872 56.6264 40.2853 56.7111 39.7985C56.8057 39.2515 56.9053 38.6894 56.7908 38.1222L56.7111 37.7308L56.462 38.0419C56.1033 38.4987 55.8741 39.0357 55.63 39.6078L55.5453 39.8136L55.4058 40.0796L55.2414 40.4007C55.2414 40.4007 55.087 40.9578 55.087 40.9628L55.0023 41.1586C55.0023 41.1586 54.8777 41.4647 54.8777 41.4697L54.7582 42.4032L54.6137 42.8348L54.4841 43.1861L54.3048 44.4458L54.1803 45.4998L54.0308 45.9364C54.0308 45.9364 54.0059 46.0067 53.976 46.087C53.9361 46.2124 53.8813 46.363 53.8813 46.363C53.8813 46.363 53.1988 47.9188 53.1988 47.9238L53.0693 48.1145L53.0145 48.1948L52.7405 48.6465L52.4565 49.6703L52.332 50.2023L51.9085 51.6578L51.2858 53.9363L51.1961 54.2324L51.0716 54.7041L50.9968 55.3365L50.8524 56.3503L50.6531 57.0228L50.4289 57.8207L50.394 58.0064C50.394 58.0064 50.2745 58.7241 50.2745 58.7291L50.2894 59.1457C50.2894 59.1457 50.2844 59.5321 50.2844 59.5372L50.1649 59.6476L49.8759 60.039L50.0005 60.7115C50.0802 60.9424 50.1748 61.2034 50.1101 61.3539C50.0353 61.5446 49.4275 61.5898 49.024 61.6149L48.5109 61.6601L48.3216 61.6049L48.4212 62.1519C48.4212 62.1519 48.4561 62.2774 48.466 62.2774C48.4262 62.3326 48.1621 62.433 47.7038 62.4581L45.3424 62.3527C45.3424 62.3527 45.0485 62.3276 44.8193 62.3025C44.9588 61.6199 45.3872 61.093 45.8356 60.6112C45.8356 60.6112 46.1295 60.2849 46.1644 60.2197L46.4284 59.487L46.4982 59.4067L46.1445 59.0152L45.9502 58.7693L46.0149 58.5736L46.0947 58.3628L46.1943 57.4945L46.2491 56.8873L47.0163 53.0078L47.3401 51.5524L47.5444 50.3228L47.6291 49.8711L47.7237 49.3441L47.8134 48.8372L47.8533 48.7118L47.9031 48.5361L47.918 48.4759L48.0426 47.964L48.0874 47.7582L48.1472 47.5223L48.197 46.8348L48.2219 46.4232V46.3881C48.2319 46.3078 48.2468 46.2476 48.2568 46.1823C48.3166 45.7357 48.4561 45.4998 48.7201 45.1033L48.7649 45.0381L48.745 44.9628C48.74 44.9276 48.7351 44.8975 48.7351 44.8624C48.7351 44.7169 48.8247 44.5813 48.9543 44.4157C48.9692 44.4007 48.9742 44.3856 48.9891 44.3655C48.9891 44.3655 49.0639 44.23 49.1386 44.0996C49.2034 43.9791 49.2731 43.8587 49.2731 43.8587L49.2382 43.3317L49.1984 43.151C49.1784 42.9804 49.1685 42.7997 49.1685 42.624C49.1685 42.1222 49.2382 41.6103 49.313 41.1034C49.3179 41.0482 49.3279 40.993 49.3329 40.9378L49.3528 40.732L49.3976 40.3154L49.4425 39.944L49.4973 39.4321L49.4724 39.0306L49.5222 38.7847L49.567 38.2377L49.2283 37.9215L49.034 37.796L48.7948 37.5401L48.5258 37.3293L48.2967 37.0231L48.1073 36.7622L47.928 36.6066L47.8632 36.5514L47.8284 36.5263L47.7985 36.0445C47.7985 36.0445 47.7985 35.7032 47.7985 35.6882L47.7736 35.4874L47.7486 35.3017L47.9579 34.3532L48.1671 33.2942L48.0774 32.9479L48.0177 32.7372V32.5665L48.0077 31.9693C48.0077 31.9693 47.9977 31.6631 47.9878 31.3821C47.9778 31.1462 47.9678 30.9254 47.9678 30.9254C47.8084 29.751 47.664 28.5967 47.664 27.4775C47.664 27.4474 47.664 27.4223 47.664 27.3972C47.664 26.9656 47.6988 26.539 47.7536 26.1124C47.7686 25.997 47.7736 25.8816 47.7935 25.7712L48.1024 23.1765L48.2418 21.9971L48.3913 20.7123V20.6721L48.4611 20.2807L48.5956 18.9457C48.5956 18.9457 48.5457 18.755 48.5159 18.6897L48.6354 18.3384L48.76 18.0072L48.8845 17.6107C48.8845 17.6107 49.0788 17.0687 49.2482 16.5919C49.3827 16.2205 49.5023 15.8843 49.5023 15.8843L49.8809 15.4025C49.8809 15.4025 49.9207 15.3623 49.9656 15.3071C50.0254 15.2419 50.0951 15.1616 50.125 15.1315C50.3193 14.9006 50.5435 14.6396 50.8125 14.5593L51.0765 14.5142L51.3456 14.474L52.9149 14.1378L53.2636 13.9721L53.413 13.8818L53.6572 13.7513C53.6572 13.7513 54.1354 13.4602 54.245 13.395C54.2998 13.395 54.3945 13.395 54.3945 13.395L54.9574 13.2796C54.9574 13.2796 55.0421 13.0888 55.0421 13.0136C55.0421 12.9985 55.0371 12.9885 55.0272 12.9834L55.2813 13.0085L55.5901 12.9533L55.5752 12.7375C55.6101 12.7074 55.6698 12.6924 55.7446 12.6974L55.8542 12.7074L55.9139 12.6171C56.0634 12.3912 56.2378 12.0851 56.2378 11.5933C56.2378 11.5431 56.2378 11.4879 56.2278 11.4327C56.2278 11.4327 56.0584 11.2921 56.0534 11.2921C56.0534 11.2921 56.0385 11.2369 56.0186 11.1817C56.0036 11.1315 55.9837 11.0713 55.9837 11.0713L55.9289 10.8655L55.3759 10.1479L55.1467 9.89693L55.0122 9.74637C54.6286 9.1391 54.2849 8.06007 54.1902 7.18682V6.76524C54.2251 6.4591 54.3397 6.08772 54.4841 5.78659C54.534 5.68622 54.5838 5.59588 54.6386 5.51056L55.2165 5.09401L55.4257 4.96854L56.3623 4.54697L56.5018 4.53693C56.5018 4.53693 56.7111 4.52187 56.7061 4.52187L56.8256 4.49176L57.0399 4.43655C57.0399 4.43655 57.3288 4.36629 57.4284 4.35124C57.4284 4.35124 58.3003 4.30105 58.3053 4.30105L58.5394 4.38637C58.5394 4.38637 58.7387 4.47169 58.7437 4.47169L58.8533 4.49176L59.0476 4.52689C59.0476 4.52689 59.2468 4.557 59.2468 4.56202L59.5507 4.73266C59.5507 4.73266 59.75 4.823 59.8845 4.88824C59.9244 4.95348 60.1436 5.34996 60.1834 5.41521C60.1635 5.47543 60.1436 5.54067 60.1436 5.6009C60.1436 5.66112 60.1685 5.71633 60.1834 5.77655C60.2283 5.96225 60.3229 6.13288 60.4226 6.28846L60.5172 6.43401L60.582 6.54442C60.582 6.54442 60.7265 6.78532 60.7265 6.7803C60.7265 6.7803 60.861 6.93086 60.9207 6.98607L60.8809 7.18682L60.8161 7.54315L61.125 8.19056C61.2794 8.40637 61.4389 8.63221 61.4438 8.90824L61.404 9.35491L61.3641 9.7564L61.3293 9.88689L61.135 10.5594L61.0005 10.9308C60.9656 11.0312 60.9357 11.1014 60.9058 11.1767C60.7514 11.513 60.5521 11.6133 59.9493 11.7187L59.7998 11.7539L59.7849 12.5769L59.7699 13.0989L59.7948 13.1792L60.0539 13.6509L60.1535 13.7613L60.3428 13.9671L60.5023 14.1829C60.9108 14.5995 61.5136 14.8052 62.1064 14.9608L62.4851 15.0612L63.2074 15.287L63.8202 15.4828L64.1789 15.814C64.1789 15.814 64.2835 15.9294 64.2885 15.9345L64.3782 16.0298L64.697 16.4112C64.7169 16.4614 64.7219 16.5216 64.7418 16.5718C64.8515 16.9081 64.8863 17.2895 64.9112 17.696C64.9112 17.696 65.0109 18.6998 65.0109 18.7048L65.1255 19.0059L65.2899 19.5078L64.687 19.7788L64.6223 19.8039L64.6123 19.9143C64.5874 20.1803 64.5725 20.4312 64.5525 20.6872C64.5226 21.1339 64.5027 21.5655 64.4977 21.972C64.4977 22.0874 64.4878 22.2129 64.4878 22.3233C64.4878 23.0761 64.5276 23.7637 64.6123 24.386L64.9112 25.736L64.9909 26.0873L65.1902 26.9405L65.2301 27.3721L65.3746 28.8577L65.4393 29.7711C65.4393 29.7711 65.5439 30.6042 65.6386 31.357C65.7183 31.9743 65.788 32.5364 65.788 32.5364V32.8526V33.1838L65.9325 33.8714V34.4837L66.062 35.1211L66.1617 35.7534L66.0521 35.9441L65.8976 36.2101L65.813 36.5213L65.7831 36.6317C65.7831 36.6317 65.5838 37.1687 65.5838 37.1737L65.3198 37.3193L65.0159 37.5401C65.0159 37.5401 64.5476 37.8663 64.5226 37.8763C64.3881 37.8914 64.1839 37.9064 64.1839 37.9064C64.1839 37.9064 64.0992 37.9215 64.0245 37.9315C64.0145 37.9115 63.9995 37.8964 63.9995 37.8763C63.9995 37.8412 64.0095 37.8111 64.0195 37.781C64.0494 37.7057 64.1191 37.6304 64.2188 37.6304H64.4529L64.3931 37.3995C64.3632 37.2791 64.3931 37.2389 64.6123 37.1135L64.971 36.7471L65.0507 36.7019C65.1205 36.6668 65.1553 36.5915 65.1753 36.5213C65.1852 36.4962 65.1952 36.461 65.1952 36.436L64.9959 36.3858C64.9959 36.3858 64.9959 36.3456 64.986 36.3306C64.986 36.3456 64.981 36.3607 64.976 36.3757L64.9063 36.3055C64.8614 36.2603 64.7618 36.1649 64.5774 36.2001L64.5974 36.446H64.5476C64.3582 36.3456 64.3832 36.0796 64.4479 35.6631L64.4928 35.0307L64.3931 34.7296L64.3234 34.5288L64.413 33.9015L64.4878 33.761L64.6173 33.49C64.712 33.1336 64.6472 32.8275 64.5426 32.5464C64.4828 32.3858 64.413 32.2303 64.3333 32.0847L64.0743 31.4172L64.0544 31.362L63.9099 30.9806L63.7255 31.362C63.7006 31.4172 63.6907 31.4724 63.6907 31.5176C63.6907 31.6079 63.7255 31.6782 63.7654 31.7234L63.6807 31.879L63.7405 32.4059C63.7405 32.4059 63.7554 32.4762 63.7704 32.5414C63.7754 32.5916 63.7853 32.6368 63.7853 32.6368C63.8202 32.9429 63.8351 33.2491 63.8351 33.5502C63.8351 34.584 63.6458 35.5677 63.4515 36.5263C63.4366 36.6066 63.4216 36.6869 63.4017 36.7622L63.2323 37.5953L62.8886 38.9252L62.6644 40.0043L62.7092 40.0344ZM56.2178 40.9679C56.2178 41.0933 56.2278 41.2238 56.2378 41.3543L56.3623 41.9064L56.2976 43.0406L54.4443 46.1974C54.4194 46.1873 54.3845 46.1823 54.3546 46.1723L54.3895 46.087L54.5539 45.5951L54.6884 44.481L54.8478 43.3016L54.9624 42.9804L55.1268 42.4885C55.1268 42.4885 55.2464 41.5651 55.2464 41.5601L55.341 41.3242L55.4407 41.0933L55.5901 40.5413L55.889 39.9691L55.9787 39.7634C56.1232 39.4271 56.2976 39.1461 56.462 38.85C56.447 39.1411 56.4072 39.4372 56.3524 39.7383C56.2876 40.1348 56.2129 40.5413 56.2129 40.9729L56.2178 40.9679ZM56.188 44.3655L56.1979 44.8323L56.2129 45.1987L56.163 45.7557L56.1132 46.1823L56.0983 46.634L56.0634 47.2112L55.7894 48.2751L55.6798 49.2187L54.9724 47.9288C55.1019 47.7632 55.2015 47.5725 55.2215 47.3617C55.2514 47.0154 55.1069 46.6993 54.8628 46.4634L56.1979 44.1899C56.188 44.2953 56.183 44.3655 56.183 44.3655H56.188ZM55.5951 49.8109C55.4357 49.851 55.2912 49.9163 55.1667 50.0016C54.8379 49.4043 54.4792 48.7619 54.2699 48.3805C54.4293 48.3404 54.5738 48.2801 54.7034 48.1898C54.9076 48.5562 55.2663 49.2086 55.5951 49.8058V49.8109ZM60.1187 53.3742V53.339C60.3777 53.2939 61.4488 53.0981 62.4053 52.9225C62.4352 53.063 62.49 53.1885 62.5697 53.3139C61.4538 53.5197 60.1535 53.7556 60.1535 53.7556C60.1336 53.7556 60.1037 53.7556 60.0738 53.7305C60.0987 53.5297 60.1187 53.3892 60.1187 53.3792V53.3742ZM63.2074 46.4182C63.2274 46.6641 63.3519 46.8749 63.5163 47.0506L60.4226 51.181V51.1659L60.4724 50.7945L60.8111 49.048L61.2794 48.1597L61.4986 47.7883L61.7178 47.432C61.7178 47.432 62.221 46.4082 62.221 46.4031L62.4851 44.4007L62.5199 44.0895L63.5014 45.5801C63.3021 45.8059 63.1825 46.102 63.2124 46.4132L63.2074 46.4182ZM64.2337 45.1936C64.0693 45.2237 63.9248 45.2789 63.7853 45.3592C63.4117 44.7821 63.0032 44.1748 62.784 43.8336C62.9284 43.7733 63.058 43.678 63.1676 43.5726C63.3967 43.9139 63.8351 44.5813 64.2337 45.1936V45.1936ZM65.7731 49.2287C65.7233 49.3491 65.6834 49.4696 65.6735 49.6051C65.6585 49.7858 65.6834 49.9614 65.7432 50.1321L64.1241 51.6226C64.0095 51.5825 63.8899 51.5373 63.7604 51.5273C63.0779 51.4771 62.49 51.9338 62.3954 52.536L60.1834 52.9425L60.2781 52.2048L63.9198 47.3416C64.1241 47.437 64.3533 47.5022 64.5974 47.4872C64.6073 47.4872 64.6173 47.4822 64.6273 47.4822L65.7731 49.2287V49.2287ZM65.9275 50.4633C65.9275 50.4633 65.9524 50.5235 65.9774 50.5536C66.0521 50.639 66.1567 50.6992 66.2514 50.7694C65.6834 51.2914 65.0657 51.8635 64.7568 52.1446C64.6821 52.0141 64.5824 51.9037 64.4579 51.8133C64.7817 51.5172 65.3746 50.9702 65.9275 50.4633V50.4633ZM66.346 48.5813C66.2065 48.6616 66.087 48.7569 65.9823 48.8774C65.6187 48.3203 65.2301 47.7281 65.0059 47.3818C65.1553 47.3216 65.2799 47.2363 65.3995 47.1359C65.6187 47.4621 65.9873 48.0292 66.351 48.5813H66.346ZM69.1458 47.3065C68.7921 47.8485 68.4135 48.4207 68.1744 48.782C68.0648 48.6766 67.9452 48.5763 67.8007 48.511C68.0299 48.1597 68.3736 47.6378 68.7025 47.1409C68.837 47.2262 68.9814 47.2764 69.1458 47.3115V47.3065ZM68.4384 50.3579C68.7423 50.5285 69.1259 50.7443 69.5045 50.9602C69.4049 51.0655 69.3302 51.191 69.2803 51.3215C68.8818 51.0957 68.4683 50.8698 68.1544 50.6891C68.264 50.5938 68.3587 50.4884 68.4334 50.3579H68.4384ZM69.7437 47.2965L70.1322 50.6139C70.0276 50.644 69.928 50.6691 69.8383 50.7192L68.5729 50.0116C68.5879 49.9514 68.6028 49.8912 68.6078 49.8309C68.6327 49.5649 68.553 49.319 68.4185 49.0882L69.5842 47.3166C69.6341 47.3115 69.6938 47.3166 69.7437 47.3015V47.2965ZM71.3379 43.7934C70.9543 44.3756 70.5358 45.013 70.3116 45.3592C70.197 45.2589 70.0675 45.1736 69.913 45.1133C70.1572 44.747 70.5806 44.1046 70.9642 43.5174C71.0639 43.6278 71.1934 43.7231 71.3379 43.7934ZM73.764 49.8861C73.4053 50.0317 73.1513 50.3178 73.0516 50.664L71.572 51.1157C71.3678 50.8096 71.024 50.6139 70.6304 50.5737L70.2219 47.0807C70.481 46.8849 70.6603 46.5989 70.6902 46.2676C70.7101 46.0518 70.6404 45.8511 70.5457 45.6654L71.7115 43.8938C71.7563 43.9038 71.7912 43.9239 71.8361 43.9239C72.0005 43.9339 72.1649 43.9139 72.3143 43.8687L73.764 49.8761V49.8861ZM71.7713 51.6327C71.7663 51.5674 71.7364 51.5222 71.7165 51.467C72.0403 51.3667 72.5335 51.2161 73.0168 51.0706C73.0367 51.2462 73.1015 51.4018 73.1961 51.5473C72.6381 51.6879 72.0503 51.8334 71.7414 51.9087C71.7563 51.8184 71.7813 51.733 71.7763 51.6377L71.7713 51.6327ZM74.4217 41.535C73.9185 41.816 73.4053 42.1071 73.0965 42.2778C73.0317 42.1523 72.942 42.0318 72.8324 41.9315C73.1463 41.7558 73.6843 41.4547 74.1925 41.1686C74.2473 41.3041 74.322 41.4246 74.4217 41.53V41.535ZM75.9312 47.0556C75.6422 47.2915 75.4579 47.6327 75.4878 48.0142C75.5077 48.23 75.6073 48.4157 75.7319 48.5813L74.7305 49.846C74.5811 49.7958 74.4217 49.7807 74.2572 49.7858L72.7776 43.6579C73.0317 43.4622 73.2011 43.1761 73.231 42.8549C73.236 42.7846 73.2111 42.7194 73.2011 42.6491L74.7505 41.7759C74.9049 41.8612 75.0793 41.9214 75.2736 41.9415L75.9312 47.0606V47.0556ZM75.9959 48.8422C76.1255 48.9276 76.265 49.0028 76.4244 49.043C76.0507 49.5097 75.6572 50.0116 75.3881 50.3428C75.3034 50.2174 75.1938 50.107 75.0643 50.0166C75.3234 49.6904 75.6721 49.2538 75.9959 48.8422ZM78.1033 40.9528C78.0285 41.0682 77.9787 41.2037 77.9488 41.3393C77.4407 41.2138 76.9574 41.0933 76.6436 41.013C76.6535 40.9578 76.6834 40.9177 76.6884 40.8625C76.6884 40.7671 76.6685 40.6818 76.6535 40.5864C76.9525 40.6617 77.5154 40.8022 78.1033 40.9478V40.9528ZM78.8605 42.6542L78.5566 43.2012C78.5566 43.2012 78.5317 43.2012 78.5217 43.2012C77.8093 43.2564 77.2862 43.8235 77.3361 44.4709C77.361 44.7169 77.4855 44.9276 77.6499 45.1033L76.8329 46.7695C76.7731 46.7695 76.7233 46.7444 76.6685 46.7494C76.5738 46.7545 76.4941 46.7946 76.4044 46.8197L75.7717 41.8913C76.0806 41.806 76.3397 41.6153 76.5041 41.3643L77.9488 41.7257C78.0285 42.1774 78.3723 42.5337 78.8605 42.6592V42.6542ZM77.9389 45.3442C78.0784 45.4245 78.2228 45.4797 78.3872 45.5048C78.1082 46.0669 77.8193 46.6641 77.63 47.0506C77.5104 46.9502 77.3709 46.8799 77.2115 46.8247C77.4058 46.4333 77.6798 45.8712 77.9339 45.3442H77.9389ZM79.7423 42.7846C79.6028 43.0406 79.4733 43.2715 79.3786 43.4421C79.2541 43.3568 79.1096 43.2915 78.9452 43.2514C79.0299 43.1058 79.1345 42.9151 79.2491 42.7043C79.3786 42.7043 79.5131 42.6893 79.6327 42.6491L79.7423 42.7846V42.7846ZM81.3315 43.4521C81.1721 43.4923 81.0276 43.5625 80.9031 43.6529C80.659 43.3467 80.3999 43.0255 80.1807 42.7495L80.4198 42.3079C80.6789 42.6341 81.0127 43.0557 81.3265 43.4521H81.3315ZM81.0525 41.7809L81.6902 43.3116L80.6141 41.9616L80.664 41.8662C80.664 41.8662 80.6938 41.8712 80.7138 41.8662C80.8333 41.8562 80.938 41.816 81.0476 41.7759L81.0525 41.7809ZM82.9158 38.8349C82.4176 39.2715 81.8845 39.7333 81.6005 39.9792C81.5009 39.8688 81.3863 39.7734 81.2518 39.6981C81.5707 39.4271 82.1685 38.9152 82.7015 38.4585C82.7514 38.599 82.8211 38.7195 82.9207 38.8299L82.9158 38.8349ZM83.7826 39.2816L83.8524 47.0104C83.7976 47.0004 83.7527 46.9753 83.6979 46.9703L82.8062 45.1535C82.8958 45.0079 82.9606 44.8524 82.9755 44.6767C83.0154 44.22 82.7563 43.8135 82.3578 43.5876L81.5009 41.54C81.7699 41.3041 81.9393 40.9729 81.8995 40.6115C81.8895 40.5011 81.8447 40.4058 81.8048 40.3054L83.2097 39.0858C83.3841 39.1912 83.5933 39.2515 83.8075 39.2766C83.8025 39.2766 83.7876 39.2916 83.7876 39.2916L83.7826 39.2816ZM82.5371 45.4446C82.7265 45.831 83.0154 46.4282 83.2944 46.9903C83.13 47.0204 82.9855 47.0706 82.846 47.1509C82.587 46.624 82.313 46.0619 82.1236 45.6704C82.2781 45.6202 82.4176 45.5449 82.5371 45.4446V45.4446ZM87.803 38.8449C86.9561 38.6944 85.7604 38.4685 85.1427 38.3581C85.1726 38.2477 85.2024 38.1373 85.1875 38.0219C85.1875 37.9918 85.1676 37.9717 85.1626 37.9466C85.7654 38.057 87.0009 38.2828 87.8678 38.4434C87.8478 38.579 87.8179 38.7094 87.803 38.85V38.8449ZM84.2708 39.2013C84.5747 39.116 84.8288 38.9503 84.9932 38.7044L87.7382 39.2113C87.2002 42.3129 86.2088 45.294 84.7989 48.0694C84.779 47.7331 84.6046 47.442 84.3356 47.2363L84.2758 39.2063L84.2708 39.2013ZM44.7545 62.6839L45.3374 62.7341L47.7586 62.8445C47.9928 62.8294 48.1771 62.7943 48.3365 62.7491C48.3614 62.8696 48.4312 62.97 48.5507 63.0101C51.2509 63.793 54.0657 64.1945 56.9053 64.1945C67.2228 64.1945 76.6984 58.96 82.2631 50.1923C82.3678 50.0317 82.3229 49.8209 82.1585 49.7155C81.9991 49.6151 81.7899 49.6603 81.6852 49.8209C76.25 58.3929 66.9887 63.5019 56.9053 63.5019C54.1653 63.5019 51.4502 63.1205 48.8397 62.3727C48.8297 62.3075 48.7899 62.0315 48.7899 62.0164C48.9293 62.0064 49.0838 61.9913 49.0838 61.9913C49.6916 61.9461 50.3243 61.906 50.4837 61.4995C50.5186 61.4142 50.5335 61.3288 50.5335 61.2335C50.5335 61.0177 50.4538 60.7969 50.3791 60.5911C50.3791 60.5911 50.2695 60.1043 50.2695 60.1093L50.414 59.9537C50.414 59.9537 50.6581 59.6727 50.663 59.6727L50.6929 59.1055L50.678 58.7643L50.7876 58.0817L50.8225 57.896L51.0367 57.1432L51.2459 56.4356L51.4004 55.3816L51.4701 54.7643L51.5747 54.3478L51.6644 54.0266L52.2871 51.7732L52.7106 50.3077L52.8401 49.7557L53.0992 48.8071L53.3383 48.4257C53.3383 48.4257 53.3682 48.3805 53.4031 48.3253C53.5376 48.3805 53.6771 48.4257 53.8365 48.4357C53.8515 48.4357 53.8614 48.4357 53.8714 48.4357L54.8927 50.2876C54.7631 50.4482 54.6635 50.6339 54.6436 50.8497C54.5987 51.3767 54.9425 51.8234 55.4457 52.0141L55.2414 52.7569L55.0471 53.4143C54.7432 54.7091 54.5639 56.1596 54.4144 57.5397L54.3895 57.9061C54.3895 57.9061 54.3447 58.413 54.3098 58.4882L54.2351 58.7342C54.2351 58.7342 54.3197 58.9449 54.3247 58.8998C54.3247 58.9148 54.2899 59.4117 54.2799 59.5773C54.26 59.6275 54.1105 60.029 54.1105 60.029L54.0657 60.1896L54.0059 60.3602C54.0059 60.3602 53.9212 60.9524 53.9162 60.9524C54.0159 61.3188 54.6685 61.4342 54.9475 61.4643L55.3659 61.5045C55.3659 61.5045 55.6898 61.5446 55.889 61.5748C55.8791 61.6199 55.8542 61.6751 55.8542 61.7203C55.8542 61.7956 55.8691 61.8709 55.899 61.9411C56.0285 62.2322 56.4072 62.3326 56.7409 62.4179C57.7224 62.6739 59.466 62.5183 60.2382 62.3778L60.1236 61.5396C60.1236 61.5396 60.0838 61.4292 60.0688 61.3389C60.0688 61.3389 60.029 61.1582 60.029 61.1482L59.4312 60.3753C59.192 60.1394 58.9878 59.8985 58.9031 59.5873L59.187 59.5472L59.3216 59.5673L59.2867 58.4882L59.2418 57.7254L59.4063 57.0981L59.6404 56.3402L59.8197 55.7129C59.8197 55.7129 59.9393 54.7945 60.029 54.1119C60.0938 54.127 60.1535 54.132 60.2034 54.132L62.8886 53.6351C63.0779 53.7656 63.2921 53.866 63.5462 53.881C64.2586 53.9363 64.8764 53.4545 64.9312 52.807C64.9411 52.7117 64.9112 52.6214 64.8963 52.526L66.5901 50.9652C66.7296 51.0204 66.8641 51.0706 67.0136 51.0806C67.2976 51.1007 67.5716 51.0455 67.8107 50.93L69.2106 51.718C69.2106 51.7531 69.1907 51.7882 69.1957 51.8284C69.2554 52.4708 69.8782 52.9526 70.5906 52.9024C71.014 52.8723 71.3578 52.6414 71.5621 52.3403L73.4701 51.8635C73.7192 52.0492 74.043 52.1546 74.3868 52.1295C75.0992 52.0743 75.6273 51.5122 75.5675 50.8598C75.5675 50.8246 75.5376 50.7945 75.5326 50.7544L76.8478 49.1032C76.8478 49.1032 76.8628 49.1032 76.8727 49.1032C77.5851 49.048 78.1132 48.4859 78.0534 47.8385C78.0385 47.6628 77.9737 47.5022 77.889 47.3617L78.7808 45.5449C79.4583 45.4646 79.9615 44.9176 79.9017 44.2953C79.8868 44.0745 79.7871 43.8888 79.6526 43.7181L79.9864 43.1109L80.639 43.9289C80.5095 44.0945 80.4149 44.2802 80.3949 44.491C80.3351 45.1334 80.8632 45.7005 81.5756 45.7557C81.6304 45.7557 81.6803 45.7407 81.7351 45.7357L82.5521 47.4019C82.3877 47.5825 82.2631 47.7883 82.2432 48.0393C82.1834 48.6867 82.7115 49.2538 83.4239 49.304C83.7378 49.3291 84.0267 49.2337 84.2609 49.0781C82.8709 51.5825 81.1372 53.9061 79.0698 55.9889C73.1762 61.9311 65.3347 65.2033 56.995 65.2033C52.6508 65.2033 48.5109 64.2999 44.7446 62.6789L44.7545 62.6839ZM32.529 53.2487L33.8293 52.9727C34.0236 53.1031 34.2428 53.2136 34.5018 53.2286C35.2043 53.2838 35.832 52.802 35.8918 52.1496C35.9017 52.0442 35.8718 51.9338 35.8469 51.8334L36.3949 51.2713C36.644 51.6076 37.0675 51.8184 37.5408 51.7882C37.7052 51.7732 37.8447 51.728 37.9841 51.6678L39.6232 52.5862C39.6232 52.6213 39.6082 52.6565 39.6082 52.6916C39.668 53.339 40.2908 53.8258 40.9982 53.7757C41.4266 53.7455 41.7654 53.5147 41.9746 53.2085L43.8827 52.7368C44.1318 52.9225 44.4556 53.0279 44.8043 53.0028C45.5118 52.9476 46.0399 52.3804 45.9801 51.7381C45.9801 51.6979 45.9601 51.6678 45.9502 51.6327L47.2604 49.9765H47.2654L47.2106 50.2826L47.0113 51.4871L46.6875 52.9375L45.9103 56.8521L45.8555 57.4895L45.7659 58.2925L45.7111 58.4381C45.7111 58.4381 45.6114 58.8195 45.6114 58.8245L45.9402 59.3113C45.9402 59.3113 46.0299 59.4067 46.0797 59.4569C46.01 59.6526 45.8755 60.034 45.8755 60.0541L45.5915 60.3703C45.3822 60.5961 45.168 60.842 44.9787 61.103C44.9488 61.0127 44.894 60.9324 44.7994 60.8872C41.1178 59.2109 37.8646 56.827 35.1445 53.8007C35.0149 53.6552 34.8007 53.6502 34.6612 53.7757C34.5217 53.9011 34.5118 54.1219 34.6363 54.2625C37.4262 57.359 40.7541 59.7981 44.5254 61.5145C44.5901 61.5396 44.6599 61.5296 44.7246 61.5196C44.5752 61.8006 44.4506 62.1017 44.4158 62.4581V62.5233C39.7378 60.4355 35.6626 57.2336 32.524 53.2387L32.529 53.2487ZM31.9909 52.5611C32.3795 52.4808 32.8777 52.3754 33.361 52.27C33.3909 52.4156 33.4457 52.541 33.5254 52.6615C33.1119 52.7468 32.6635 52.8422 32.2699 52.9275C32.1803 52.807 32.0806 52.6916 31.9909 52.5661V52.5611ZM30.9995 51.1408L31.9411 44.7118C32.1803 44.8624 32.4642 44.9578 32.7731 44.9327C32.8229 44.9327 32.8628 44.9076 32.9076 44.8975L33.9239 46.4433C33.7047 46.6691 33.5851 46.9753 33.615 47.3015C33.6499 47.693 33.904 48.0041 34.2428 48.1948L34.1929 50.9551C33.7396 51.0906 33.4058 51.457 33.3361 51.9037L31.7568 52.2399C31.4977 51.8786 31.2437 51.5172 30.9995 51.1458V51.1408ZM28.13 45.7106L29.1313 41.5049C29.3356 41.5952 29.5548 41.6605 29.7989 41.6404C29.9135 41.6303 30.0131 41.5902 30.1227 41.5551L31.6322 43.1008C31.4629 43.3166 31.3632 43.5776 31.3881 43.8587C31.3981 43.9992 31.4479 44.1246 31.5127 44.2451L30.591 50.4984C29.6445 48.9878 28.8175 47.3868 28.135 45.7156L28.13 45.7106ZM26.4461 40.2151L28.4339 40.6366C28.4688 40.8424 28.5634 41.0181 28.6929 41.1736L27.8709 45.0481C27.2731 43.4923 26.7948 41.8763 26.4461 40.2151V40.2151ZM26.3216 39.5375C26.3664 39.4422 26.4262 39.4171 26.4411 39.4121C26.4411 39.4121 27.7215 39.6831 28.6182 39.8738C28.5385 39.9942 28.4837 40.1197 28.4538 40.2652C27.577 40.0796 26.4561 39.8387 26.3714 39.8236C26.3564 39.7282 26.3365 39.6379 26.3216 39.5425V39.5375ZM27.5471 35.2164L27.5172 33.9115C27.5172 19.4024 37.7948 7.12659 51.9583 4.70757C52.1427 4.67745 52.2722 4.5018 52.2373 4.31109C52.2024 4.12539 52.0281 3.99992 51.8438 4.03004C37.3514 6.50427 26.8297 19.0661 26.8297 33.9015L26.8596 35.2365C26.8596 35.4172 27.0688 35.5025 27.0688 35.5025C27.2582 35.5025 27.3827 35.3619 27.5421 35.2064L27.5471 35.2164Z" fill="#231F20"/>
</g>
<path d="M8.18961 73.92V74.12C7.98294 74.1267 7.82628 74.1533 7.71961 74.2C7.61961 74.24 7.54961 74.32 7.50961 74.44C7.47628 74.5533 7.45961 74.7333 7.45961 74.98V79.94C7.45961 80.18 7.47628 80.3633 7.50961 80.49C7.54961 80.61 7.61961 80.6933 7.71961 80.74C7.82628 80.78 7.98294 80.8 8.18961 80.8H8.48961C8.46294 81.0667 8.44294 81.3233 8.42961 81.57C8.42294 81.8233 8.41961 82.0133 8.41961 82.14C8.41961 82.2733 8.42294 82.3933 8.42961 82.5C8.43628 82.6133 8.44294 82.7133 8.44961 82.8H8.21961C8.13961 82.34 8.01294 81.98 7.83961 81.72C7.67294 81.46 7.46628 81.2733 7.21961 81.16C6.97294 81.0533 6.69961 81 6.39961 81C6.17961 81 5.95628 81 5.72961 81C5.50294 81 5.27628 81 5.04961 81C4.82961 81 4.61628 81 4.40961 81C4.17628 81 3.86961 80.9967 3.48961 80.99C3.11628 80.9767 2.73294 80.97 2.33961 80.97C1.99961 80.97 1.67961 80.9733 1.37961 80.98C1.07961 80.98 0.839609 80.9867 0.659609 81V80.8C0.866276 80.7867 1.01961 80.76 1.11961 80.72C1.22628 80.68 1.29628 80.6 1.32961 80.48C1.36961 80.36 1.38961 80.18 1.38961 79.94V74.98C1.38961 74.7333 1.36961 74.5533 1.32961 74.44C1.29628 74.32 1.22628 74.24 1.11961 74.2C1.01961 74.1533 0.866276 74.1267 0.659609 74.12V73.92C0.839609 73.9267 1.07961 73.9333 1.37961 73.94C1.67961 73.9467 1.99961 73.95 2.33961 73.95C2.63294 73.95 2.92294 73.9467 3.20961 73.94C3.50294 73.9333 3.74294 73.9267 3.92961 73.92V74.12C3.72294 74.1267 3.56628 74.1533 3.45961 74.2C3.35961 74.24 3.28961 74.32 3.24961 74.44C3.21628 74.5533 3.19961 74.7333 3.19961 74.98V79.94C3.19961 80.18 3.21961 80.3633 3.25961 80.49C3.29961 80.61 3.37628 80.6933 3.48961 80.74C3.60961 80.78 3.78294 80.8 4.00961 80.8H4.83961C5.06628 80.8 5.23628 80.78 5.34961 80.74C5.46961 80.6933 5.54961 80.61 5.58961 80.49C5.62961 80.3633 5.64961 80.18 5.64961 79.94V74.98C5.64961 74.7333 5.62961 74.5533 5.58961 74.44C5.55628 74.32 5.48628 74.24 5.37961 74.2C5.27961 74.1533 5.12628 74.1267 4.91961 74.12V73.92C5.10628 73.9267 5.34294 73.9333 5.62961 73.94C5.92294 73.9467 6.21628 73.95 6.50961 73.95C6.84961 73.95 7.16961 73.9467 7.46961 73.94C7.76961 73.9333 8.00961 73.9267 8.18961 73.92ZM11.2367 75.68C11.8234 75.68 12.2834 75.8533 12.6167 76.2C12.9501 76.5467 13.1167 77.1167 13.1167 77.91H9.90672L9.89672 77.72H11.7567C11.7701 77.3933 11.7567 77.0933 11.7167 76.82C11.6767 76.54 11.6101 76.3167 11.5167 76.15C11.4301 75.9833 11.3134 75.9 11.1667 75.9C10.9667 75.9 10.7967 76.0433 10.6567 76.33C10.5167 76.6167 10.4301 77.1033 10.3967 77.79L10.4367 77.86C10.4234 77.9333 10.4167 78.01 10.4167 78.09C10.4167 78.1633 10.4167 78.2433 10.4167 78.33C10.4167 78.79 10.4767 79.1567 10.5967 79.43C10.7234 79.7033 10.8801 79.8967 11.0667 80.01C11.2534 80.1233 11.4467 80.18 11.6467 80.18C11.7601 80.18 11.8867 80.1633 12.0267 80.13C12.1667 80.0967 12.3134 80.0267 12.4667 79.92C12.6201 79.8133 12.7667 79.6567 12.9067 79.45L13.0767 79.51C13.0034 79.77 12.8767 80.0267 12.6967 80.28C12.5234 80.5267 12.3001 80.7333 12.0267 80.9C11.7534 81.06 11.4234 81.14 11.0367 81.14C10.5967 81.14 10.2034 81.05 9.85672 80.87C9.51005 80.6833 9.23339 80.3933 9.02672 80C8.82672 79.6 8.72672 79.08 8.72672 78.44C8.72672 77.8067 8.83672 77.2867 9.05672 76.88C9.27672 76.4733 9.57672 76.1733 9.95672 75.98C10.3367 75.78 10.7634 75.68 11.2367 75.68ZM19.6658 75.83V76.04C19.4458 76.04 19.2891 76.09 19.1958 76.19C19.1091 76.29 19.0658 76.48 19.0658 76.76V80.07C19.0658 80.35 19.1091 80.54 19.1958 80.64C19.2891 80.74 19.4458 80.79 19.6658 80.79V81C19.5324 80.9933 19.3324 80.9867 19.0658 80.98C18.8058 80.9667 18.5524 80.96 18.3058 80.96C18.0391 80.96 17.7758 80.9667 17.5158 80.98C17.2624 80.9867 17.0724 80.9933 16.9458 81V80.79C17.1324 80.79 17.2624 80.74 17.3358 80.64C17.4091 80.54 17.4458 80.35 17.4458 80.07V76.76C17.4458 76.48 17.4091 76.29 17.3358 76.19C17.2624 76.09 17.1324 76.04 16.9458 76.04V75.83C17.0658 75.8367 17.2458 75.8467 17.4858 75.86C17.7258 75.8667 17.9724 75.87 18.2258 75.87C18.4924 75.87 18.7624 75.8667 19.0358 75.86C19.3158 75.8467 19.5258 75.8367 19.6658 75.83ZM16.3758 75.83V76.04C16.1891 76.04 16.0591 76.09 15.9858 76.19C15.9124 76.29 15.8758 76.48 15.8758 76.76V80.07C15.8758 80.35 15.9124 80.54 15.9858 80.64C16.0591 80.74 16.1891 80.79 16.3758 80.79V81C16.2491 80.9933 16.0658 80.9867 15.8258 80.98C15.5858 80.9667 15.3424 80.96 15.0958 80.96C14.8224 80.96 14.5491 80.9667 14.2758 80.98C14.0024 80.9867 13.7958 80.9933 13.6558 81V80.79C13.8758 80.79 14.0291 80.74 14.1158 80.64C14.2091 80.54 14.2558 80.35 14.2558 80.07V76.76C14.2558 76.48 14.2091 76.29 14.1158 76.19C14.0291 76.09 13.8758 76.04 13.6558 76.04V75.83C13.7824 75.8367 13.9758 75.8467 14.2358 75.86C14.5024 75.8667 14.7624 75.87 15.0158 75.87C15.2824 75.87 15.5424 75.8667 15.7958 75.86C16.0491 75.8467 16.2424 75.8367 16.3758 75.83ZM18.0458 78.23V78.43H15.2258V78.23H18.0458ZM25.5706 75.83C25.544 76.1233 25.524 76.4067 25.5106 76.68C25.504 76.9533 25.5006 77.1633 25.5006 77.31C25.5006 77.4433 25.504 77.5733 25.5106 77.7C25.5173 77.82 25.524 77.9233 25.5306 78.01H25.3006C25.2073 77.5233 25.084 77.1367 24.9306 76.85C24.784 76.5567 24.6273 76.35 24.4606 76.23C24.294 76.1033 24.1306 76.04 23.9706 76.04H23.6606V79.97C23.6606 80.2967 23.7406 80.5167 23.9006 80.63C24.0673 80.7367 24.2873 80.79 24.5606 80.79V81C24.3873 80.9933 24.1473 80.9867 23.8406 80.98C23.534 80.9667 23.2073 80.96 22.8606 80.96C22.514 80.96 22.184 80.9667 21.8706 80.98C21.564 80.9867 21.3206 80.9933 21.1406 81V80.79C21.4273 80.79 21.6473 80.75 21.8006 80.67C21.9606 80.5833 22.0406 80.3767 22.0406 80.05V76.04H21.7106C21.5573 76.04 21.3973 76.1033 21.2306 76.23C21.064 76.3567 20.9073 76.5633 20.7606 76.85C20.6206 77.1367 20.5006 77.5233 20.4006 78.01H20.1706C20.184 77.93 20.1906 77.8267 20.1906 77.7C20.1973 77.5733 20.2006 77.4433 20.2006 77.31C20.2006 77.1633 20.194 76.9567 20.1806 76.69C20.174 76.4167 20.1573 76.13 20.1306 75.83H21.2306C21.404 75.83 21.6373 75.8367 21.9306 75.85C22.2306 75.8633 22.534 75.87 22.8406 75.87C23.1606 75.87 23.4706 75.8633 23.7706 75.85C24.0706 75.8367 24.3073 75.83 24.4806 75.83H25.5706ZM28.2186 75.72V81.8C28.2186 82.12 28.2953 82.3333 28.4486 82.44C28.6086 82.5467 28.8253 82.6 29.0986 82.6V82.81C28.9186 82.8033 28.6686 82.7933 28.3486 82.78C28.0286 82.7733 27.6919 82.77 27.3386 82.77C27.0853 82.77 26.8319 82.7733 26.5786 82.78C26.3319 82.7933 26.1453 82.8033 26.0186 82.81V82.6C26.2319 82.6 26.3819 82.55 26.4686 82.45C26.5553 82.3567 26.5986 82.1733 26.5986 81.9V76.92C26.5986 76.62 26.5553 76.4 26.4686 76.26C26.3819 76.1133 26.2253 76.04 25.9986 76.04V75.83C26.2119 75.85 26.4186 75.86 26.6186 75.86C26.9253 75.86 27.2119 75.85 27.4786 75.83C27.7453 75.8033 27.9919 75.7667 28.2186 75.72ZM29.7486 75.68C30.0886 75.68 30.3886 75.7733 30.6486 75.96C30.9153 76.14 31.1253 76.4167 31.2786 76.79C31.4386 77.1567 31.5186 77.62 31.5186 78.18C31.5186 78.7067 31.4586 79.1567 31.3386 79.53C31.2253 79.9033 31.0619 80.21 30.8486 80.45C30.6419 80.69 30.3953 80.8667 30.1086 80.98C29.8286 81.0867 29.5253 81.14 29.1986 81.14C28.9519 81.14 28.7219 81.1033 28.5086 81.03C28.3019 80.9633 28.1386 80.8533 28.0186 80.7L28.1186 80.57C28.1786 80.6633 28.2619 80.7333 28.3686 80.78C28.4753 80.8267 28.5886 80.85 28.7086 80.85C28.9819 80.85 29.1986 80.7567 29.3586 80.57C29.5253 80.3767 29.6453 80.0967 29.7186 79.73C29.7919 79.3633 29.8286 78.9167 29.8286 78.39C29.8286 77.81 29.7953 77.36 29.7286 77.04C29.6619 76.7133 29.5719 76.4833 29.4586 76.35C29.3453 76.2167 29.2119 76.15 29.0586 76.15C28.8453 76.15 28.6519 76.2333 28.4786 76.4C28.3119 76.56 28.2186 76.78 28.1986 77.06L28.1786 76.64C28.3186 76.32 28.5253 76.08 28.7986 75.92C29.0719 75.76 29.3886 75.68 29.7486 75.68ZM41.9884 73.92V74.12C41.7818 74.1267 41.6251 74.1533 41.5184 74.2C41.4184 74.24 41.3484 74.32 41.3084 74.44C41.2751 74.5533 41.2584 74.7333 41.2584 74.98V79.94C41.2584 80.18 41.2751 80.36 41.3084 80.48C41.3484 80.6 41.4184 80.68 41.5184 80.72C41.6251 80.76 41.7818 80.7867 41.9884 80.8V81C41.8084 80.9867 41.5684 80.98 41.2684 80.98C40.9684 80.9733 40.6484 80.97 40.3084 80.97C40.0151 80.97 39.7218 80.9733 39.4284 80.98C39.1418 80.98 38.9051 80.9867 38.7184 81V80.8C38.9251 80.7867 39.0784 80.76 39.1784 80.72C39.2851 80.68 39.3551 80.6 39.3884 80.48C39.4284 80.36 39.4484 80.18 39.4484 79.94V74.98C39.4484 74.7333 39.4284 74.55 39.3884 74.43C39.3484 74.31 39.2684 74.23 39.1484 74.19C39.0351 74.1433 38.8651 74.12 38.6384 74.12H37.8084C37.5818 74.12 37.4084 74.1433 37.2884 74.19C37.1751 74.23 37.0984 74.31 37.0584 74.43C37.0184 74.55 36.9984 74.7333 36.9984 74.98V79.94C36.9984 80.18 37.0151 80.36 37.0484 80.48C37.0884 80.6 37.1584 80.68 37.2584 80.72C37.3651 80.76 37.5218 80.7867 37.7284 80.8V81C37.5418 80.9867 37.3018 80.98 37.0084 80.98C36.7218 80.9733 36.4318 80.97 36.1384 80.97C35.7984 80.97 35.4784 80.9733 35.1784 80.98C34.8784 80.98 34.6384 80.9867 34.4584 81V80.8C34.6651 80.7867 34.8184 80.76 34.9184 80.72C35.0251 80.68 35.0951 80.6 35.1284 80.48C35.1684 80.36 35.1884 80.18 35.1884 79.94V74.98C35.1884 74.7333 35.1684 74.5533 35.1284 74.44C35.0951 74.32 35.0251 74.24 34.9184 74.2C34.8184 74.1533 34.6651 74.1267 34.4584 74.12V73.92C34.6384 73.9267 34.8784 73.9333 35.1784 73.94C35.4784 73.9467 35.7984 73.95 36.1384 73.95C36.5318 73.95 36.9218 73.9467 37.3084 73.94C37.6951 73.9267 38.0051 73.92 38.2384 73.92C38.4718 73.92 38.7784 73.9267 39.1584 73.94C39.5384 73.9467 39.9218 73.95 40.3084 73.95C40.6484 73.95 40.9684 73.9467 41.2684 73.94C41.5684 73.9333 41.8084 73.9267 41.9884 73.92ZM44.9574 75.68C45.2374 75.68 45.4874 75.71 45.7074 75.77C45.9274 75.8233 46.1074 75.8933 46.2474 75.98C46.4208 76.0867 46.5608 76.2233 46.6674 76.39C46.7741 76.5567 46.8274 76.75 46.8274 76.97C46.8274 77.2233 46.7441 77.4367 46.5774 77.61C46.4108 77.7767 46.2008 77.86 45.9474 77.86C45.6874 77.86 45.4808 77.7833 45.3274 77.63C45.1808 77.4767 45.1074 77.28 45.1074 77.04C45.1074 76.8067 45.1808 76.61 45.3274 76.45C45.4741 76.29 45.6474 76.1833 45.8474 76.13C45.7941 76.0767 45.7241 76.0333 45.6374 76C45.5574 75.9667 45.4608 75.95 45.3474 75.95C45.1208 75.95 44.9308 76.0167 44.7774 76.15C44.6241 76.2767 44.4974 76.4533 44.3974 76.68C44.3041 76.9 44.2341 77.15 44.1874 77.43C44.1474 77.7033 44.1274 77.9867 44.1274 78.28C44.1274 78.7733 44.1908 79.16 44.3174 79.44C44.4508 79.7133 44.6141 79.9067 44.8074 80.02C45.0074 80.1267 45.2108 80.18 45.4174 80.18C45.5241 80.18 45.6474 80.1633 45.7874 80.13C45.9274 80.0967 46.0741 80.0267 46.2274 79.92C46.3874 79.8133 46.5374 79.6533 46.6774 79.44L46.8474 79.5C46.7741 79.76 46.6508 80.0167 46.4774 80.27C46.3041 80.5233 46.0808 80.7333 45.8074 80.9C45.5341 81.06 45.2008 81.14 44.8074 81.14C44.3674 81.14 43.9674 81.05 43.6074 80.87C43.2541 80.69 42.9708 80.4 42.7574 80C42.5441 79.6 42.4374 79.0767 42.4374 78.43C42.4374 77.8033 42.5474 77.29 42.7674 76.89C42.9874 76.4833 43.2874 76.18 43.6674 75.98C44.0541 75.78 44.4841 75.68 44.9574 75.68ZM53.5374 75.83V76.04C53.3174 76.04 53.1608 76.09 53.0674 76.19C52.9808 76.29 52.9374 76.48 52.9374 76.76V80.07C52.9374 80.35 52.9808 80.54 53.0674 80.64C53.1608 80.74 53.3174 80.79 53.5374 80.79V81C53.4041 80.9933 53.2041 80.9867 52.9374 80.98C52.6774 80.9667 52.4241 80.96 52.1774 80.96C51.9108 80.96 51.6474 80.9667 51.3874 80.98C51.1341 80.9867 50.9441 80.9933 50.8174 81V80.79C51.0041 80.79 51.1341 80.74 51.2074 80.64C51.2808 80.54 51.3174 80.35 51.3174 80.07V76.76C51.3174 76.48 51.2808 76.29 51.2074 76.19C51.1341 76.09 51.0041 76.04 50.8174 76.04V75.83C50.9374 75.8367 51.1174 75.8467 51.3574 75.86C51.5974 75.8667 51.8441 75.87 52.0974 75.87C52.3641 75.87 52.6341 75.8667 52.9074 75.86C53.1874 75.8467 53.3974 75.8367 53.5374 75.83ZM50.0574 75.83V76.04C49.8708 76.04 49.7408 76.09 49.6674 76.19C49.5941 76.29 49.5574 76.48 49.5574 76.76V80.07C49.5574 80.35 49.5941 80.54 49.6674 80.64C49.7408 80.74 49.8708 80.79 50.0574 80.79V81C49.9308 80.9933 49.7474 80.9867 49.5074 80.98C49.2674 80.9667 49.0241 80.96 48.7774 80.96C48.5041 80.96 48.2308 80.9667 47.9574 80.98C47.6841 80.9867 47.4774 80.9933 47.3374 81V80.79C47.5574 80.79 47.7108 80.74 47.7974 80.64C47.8908 80.54 47.9374 80.35 47.9374 80.07V76.76C47.9374 76.48 47.8908 76.29 47.7974 76.19C47.7108 76.09 47.5574 76.04 47.3374 76.04V75.83C47.4641 75.8367 47.6574 75.8467 47.9174 75.86C48.1841 75.8667 48.4441 75.87 48.6974 75.87C48.9641 75.87 49.2241 75.8667 49.4774 75.86C49.7308 75.8467 49.9241 75.8367 50.0574 75.83ZM51.4374 76.42L51.6074 76.51L49.3574 80.61L49.1874 80.52L51.4374 76.42ZM56.3278 75.82V76.03C56.1945 76.03 56.0978 76.06 56.0378 76.12C55.9845 76.18 55.9911 76.2633 56.0578 76.37L58.6778 80.29C58.7511 80.39 58.8311 80.4933 58.9178 80.6C59.0045 80.7067 59.1045 80.77 59.2178 80.79V81C59.1045 80.9933 58.9345 80.9867 58.7078 80.98C58.4811 80.9667 58.2545 80.96 58.0278 80.96C57.7745 80.96 57.5178 80.9667 57.2578 80.98C57.0045 80.9867 56.8145 80.9933 56.6878 81V80.79C56.8211 80.79 56.9145 80.76 56.9678 80.7C57.0278 80.64 57.0245 80.5567 56.9578 80.45L54.3378 76.53C54.2378 76.37 54.1478 76.2533 54.0678 76.18C53.9878 76.1 53.8978 76.05 53.7978 76.03V75.82C53.9245 75.8267 54.1178 75.8367 54.3778 75.85C54.6378 75.8567 54.8945 75.86 55.1478 75.86C55.3745 75.86 55.5978 75.8567 55.8178 75.85C56.0445 75.8367 56.2145 75.8267 56.3278 75.82ZM55.9278 78.65C55.9278 78.65 55.9311 78.67 55.9378 78.71C55.9511 78.75 55.9611 78.79 55.9678 78.83C55.9745 78.8633 55.9778 78.88 55.9778 78.88L55.7278 79.21C55.5145 79.4833 55.3945 79.7367 55.3678 79.97C55.3478 80.2033 55.4045 80.3967 55.5378 80.55C55.6711 80.6967 55.8545 80.78 56.0878 80.8V81C55.9611 80.9933 55.7978 80.99 55.5978 80.99C55.3978 80.9833 55.2045 80.98 55.0178 80.98C54.8311 80.9733 54.6778 80.97 54.5578 80.97C54.4111 80.97 54.2845 80.9733 54.1778 80.98C54.0711 80.98 53.9678 80.9867 53.8678 81V80.8C54.0345 80.7267 54.1878 80.63 54.3278 80.51C54.4745 80.3833 54.6311 80.2133 54.7978 80L55.9278 78.65ZM58.8978 75.82V76.02C58.7578 76.0733 58.6078 76.17 58.4478 76.31C58.2945 76.4433 58.1345 76.61 57.9678 76.81L56.8778 78.13C56.8778 78.13 56.8711 78.1133 56.8578 78.08C56.8511 78.04 56.8445 78 56.8378 77.96C56.8311 77.92 56.8278 77.9 56.8278 77.9L57.2378 77.37C57.4311 77.1367 57.5478 76.92 57.5878 76.72C57.6278 76.52 57.5945 76.36 57.4878 76.24C57.3878 76.1133 57.2178 76.04 56.9778 76.02V75.82C57.1778 75.8267 57.3911 75.8333 57.6178 75.84C57.8445 75.8467 58.0411 75.85 58.2078 75.85C58.3545 75.85 58.4811 75.8467 58.5878 75.84C58.7011 75.8333 58.8045 75.8267 58.8978 75.82ZM61.8129 75.68C62.3129 75.68 62.7496 75.77 63.1229 75.95C63.5029 76.1233 63.7962 76.41 64.0029 76.81C64.2162 77.21 64.3229 77.7433 64.3229 78.41C64.3229 79.0767 64.2162 79.61 64.0029 80.01C63.7962 80.41 63.5029 80.7 63.1229 80.88C62.7496 81.0533 62.3129 81.14 61.8129 81.14C61.3196 81.14 60.8829 81.0533 60.5029 80.88C60.1296 80.7 59.8362 80.41 59.6229 80.01C59.4096 79.61 59.3029 79.0767 59.3029 78.41C59.3029 77.7433 59.4096 77.21 59.6229 76.81C59.8362 76.41 60.1296 76.1233 60.5029 75.95C60.8829 75.77 61.3196 75.68 61.8129 75.68ZM61.8129 75.88C61.5796 75.88 61.3829 76.08 61.2229 76.48C61.0696 76.8733 60.9929 77.5167 60.9929 78.41C60.9929 79.3033 61.0696 79.95 61.2229 80.35C61.3829 80.7433 61.5796 80.94 61.8129 80.94C62.0529 80.94 62.2496 80.7433 62.4029 80.35C62.5562 79.95 62.6329 79.3033 62.6329 78.41C62.6329 77.5167 62.5562 76.8733 62.4029 76.48C62.2496 76.08 62.0529 75.88 61.8129 75.88ZM69.106 75.83C69.0793 76.1233 69.0593 76.4067 69.046 76.68C69.0393 76.9533 69.036 77.1633 69.036 77.31C69.036 77.4433 69.0393 77.5733 69.046 77.7C69.0527 77.82 69.0593 77.9233 69.066 78.01H68.836C68.736 77.5367 68.616 77.1567 68.476 76.87C68.336 76.5767 68.1893 76.3667 68.036 76.24C67.8827 76.1067 67.726 76.04 67.566 76.04C67.546 76.04 67.5293 76.04 67.516 76.04C67.5027 76.04 67.486 76.04 67.466 76.04C67.346 76.04 67.256 76.08 67.196 76.16C67.1427 76.24 67.116 76.3867 67.116 76.6V79.97C67.116 80.2967 67.196 80.5167 67.356 80.63C67.516 80.7367 67.736 80.79 68.016 80.79V81C67.836 80.9933 67.5827 80.9867 67.256 80.98C66.936 80.9667 66.596 80.96 66.236 80.96C65.976 80.96 65.7193 80.9667 65.466 80.98C65.2127 80.9867 65.0227 80.9933 64.896 81V80.79C65.116 80.79 65.2693 80.74 65.356 80.64C65.4493 80.54 65.496 80.35 65.496 80.07V76.76C65.496 76.48 65.4493 76.29 65.356 76.19C65.2693 76.09 65.116 76.04 64.896 76.04V75.83C65.0227 75.8367 65.216 75.8467 65.476 75.86C65.7427 75.8667 66.0027 75.87 66.256 75.87C66.5027 75.87 66.746 75.8633 66.986 75.85C67.2327 75.8367 67.426 75.83 67.566 75.83H69.106ZM72.184 75.68C72.7707 75.68 73.2307 75.8533 73.564 76.2C73.8973 76.5467 74.064 77.1167 74.064 77.91H70.854L70.844 77.72H72.704C72.7173 77.3933 72.704 77.0933 72.664 76.82C72.624 76.54 72.5573 76.3167 72.464 76.15C72.3773 75.9833 72.2607 75.9 72.114 75.9C71.914 75.9 71.744 76.0433 71.604 76.33C71.464 76.6167 71.3773 77.1033 71.344 77.79L71.384 77.86C71.3707 77.9333 71.364 78.01 71.364 78.09C71.364 78.1633 71.364 78.2433 71.364 78.33C71.364 78.79 71.424 79.1567 71.544 79.43C71.6707 79.7033 71.8273 79.8967 72.014 80.01C72.2007 80.1233 72.394 80.18 72.594 80.18C72.7073 80.18 72.834 80.1633 72.974 80.13C73.114 80.0967 73.2607 80.0267 73.414 79.92C73.5673 79.8133 73.714 79.6567 73.854 79.45L74.024 79.51C73.9507 79.77 73.824 80.0267 73.644 80.28C73.4707 80.5267 73.2473 80.7333 72.974 80.9C72.7007 81.06 72.3707 81.14 71.984 81.14C71.544 81.14 71.1507 81.05 70.804 80.87C70.4573 80.6833 70.1807 80.3933 69.974 80C69.774 79.6 69.674 79.08 69.674 78.44C69.674 77.8067 69.784 77.2867 70.004 76.88C70.224 76.4733 70.524 76.1733 70.904 75.98C71.284 75.78 71.7107 75.68 72.184 75.68ZM80.613 75.83V76.04C80.393 76.04 80.2364 76.09 80.143 76.19C80.0564 76.29 80.013 76.48 80.013 76.76V80.07C80.013 80.35 80.0564 80.54 80.143 80.64C80.2364 80.74 80.393 80.79 80.613 80.79V81C80.4797 80.9933 80.2797 80.9867 80.013 80.98C79.753 80.9667 79.4997 80.96 79.253 80.96C78.9864 80.96 78.723 80.9667 78.463 80.98C78.2097 80.9867 78.0197 80.9933 77.893 81V80.79C78.0797 80.79 78.2097 80.74 78.283 80.64C78.3564 80.54 78.393 80.35 78.393 80.07V76.76C78.393 76.48 78.3564 76.29 78.283 76.19C78.2097 76.09 78.0797 76.04 77.893 76.04V75.83C78.013 75.8367 78.193 75.8467 78.433 75.86C78.673 75.8667 78.9197 75.87 79.173 75.87C79.4397 75.87 79.7097 75.8667 79.983 75.86C80.263 75.8467 80.473 75.8367 80.613 75.83ZM77.323 75.83V76.04C77.1364 76.04 77.0064 76.09 76.933 76.19C76.8597 76.29 76.823 76.48 76.823 76.76V80.07C76.823 80.35 76.8597 80.54 76.933 80.64C77.0064 80.74 77.1364 80.79 77.323 80.79V81C77.1964 80.9933 77.013 80.9867 76.773 80.98C76.533 80.9667 76.2897 80.96 76.043 80.96C75.7697 80.96 75.4964 80.9667 75.223 80.98C74.9497 80.9867 74.743 80.9933 74.603 81V80.79C74.823 80.79 74.9764 80.74 75.063 80.64C75.1564 80.54 75.203 80.35 75.203 80.07V76.76C75.203 76.48 75.1564 76.29 75.063 76.19C74.9764 76.09 74.823 76.04 74.603 76.04V75.83C74.7297 75.8367 74.923 75.8467 75.183 75.86C75.4497 75.8667 75.7097 75.87 75.963 75.87C76.2297 75.87 76.4897 75.8667 76.743 75.86C76.9964 75.8467 77.1897 75.8367 77.323 75.83ZM78.993 78.23V78.43H76.173V78.23H78.993ZM83.6879 75.68C84.2746 75.68 84.7346 75.8533 85.0679 76.2C85.4012 76.5467 85.5679 77.1167 85.5679 77.91H82.3579L82.3479 77.72H84.2079C84.2212 77.3933 84.2079 77.0933 84.1679 76.82C84.1279 76.54 84.0612 76.3167 83.9679 76.15C83.8812 75.9833 83.7646 75.9 83.6179 75.9C83.4179 75.9 83.2479 76.0433 83.1079 76.33C82.9679 76.6167 82.8812 77.1033 82.8479 77.79L82.8879 77.86C82.8746 77.9333 82.8679 78.01 82.8679 78.09C82.8679 78.1633 82.8679 78.2433 82.8679 78.33C82.8679 78.79 82.9279 79.1567 83.0479 79.43C83.1746 79.7033 83.3312 79.8967 83.5179 80.01C83.7046 80.1233 83.8979 80.18 84.0979 80.18C84.2112 80.18 84.3379 80.1633 84.4779 80.13C84.6179 80.0967 84.7646 80.0267 84.9179 79.92C85.0712 79.8133 85.2179 79.6567 85.3579 79.45L85.5279 79.51C85.4546 79.77 85.3279 80.0267 85.1479 80.28C84.9746 80.5267 84.7512 80.7333 84.4779 80.9C84.2046 81.06 83.8746 81.14 83.4879 81.14C83.0479 81.14 82.6546 81.05 82.3079 80.87C81.9612 80.6833 81.6846 80.3933 81.4779 80C81.2779 79.6 81.1779 79.08 81.1779 78.44C81.1779 77.8067 81.2879 77.2867 81.5079 76.88C81.7279 76.4733 82.0279 76.1733 82.4079 75.98C82.7879 75.78 83.2146 75.68 83.6879 75.68ZM91.557 75.83C91.5303 76.1233 91.5103 76.4067 91.497 76.68C91.4903 76.9533 91.487 77.1633 91.487 77.31C91.487 77.4433 91.4903 77.5733 91.497 77.7C91.5036 77.82 91.5103 77.9233 91.517 78.01H91.287C91.1936 77.5233 91.0703 77.1367 90.917 76.85C90.7703 76.5567 90.6136 76.35 90.447 76.23C90.2803 76.1033 90.117 76.04 89.957 76.04H89.647V79.97C89.647 80.2967 89.727 80.5167 89.887 80.63C90.0536 80.7367 90.2736 80.79 90.547 80.79V81C90.3736 80.9933 90.1336 80.9867 89.827 80.98C89.5203 80.9667 89.1936 80.96 88.847 80.96C88.5003 80.96 88.1703 80.9667 87.857 80.98C87.5503 80.9867 87.307 80.9933 87.127 81V80.79C87.4136 80.79 87.6336 80.75 87.787 80.67C87.947 80.5833 88.027 80.3767 88.027 80.05V76.04H87.697C87.5436 76.04 87.3836 76.1033 87.217 76.23C87.0503 76.3567 86.8936 76.5633 86.747 76.85C86.607 77.1367 86.487 77.5233 86.387 78.01H86.157C86.1703 77.93 86.177 77.8267 86.177 77.7C86.1836 77.5733 86.187 77.4433 86.187 77.31C86.187 77.1633 86.1803 76.9567 86.167 76.69C86.1603 76.4167 86.1436 76.13 86.117 75.83H87.217C87.3903 75.83 87.6236 75.8367 87.917 75.85C88.217 75.8633 88.5203 75.87 88.827 75.87C89.147 75.87 89.457 75.8633 89.757 75.85C90.057 75.8367 90.2936 75.83 90.467 75.83H91.557ZM98.2249 75.83V76.04C98.0049 76.04 97.8483 76.09 97.7549 76.19C97.6683 76.29 97.6249 76.48 97.6249 76.76V80.07C97.6249 80.35 97.6683 80.54 97.7549 80.64C97.8483 80.74 98.0049 80.79 98.2249 80.79V81C98.0916 80.9933 97.8916 80.9867 97.6249 80.98C97.3649 80.9667 97.1116 80.96 96.8649 80.96C96.5983 80.96 96.3349 80.9667 96.0749 80.98C95.8216 80.9867 95.6316 80.9933 95.5049 81V80.79C95.6916 80.79 95.8216 80.74 95.8949 80.64C95.9683 80.54 96.0049 80.35 96.0049 80.07V76.76C96.0049 76.48 95.9683 76.29 95.8949 76.19C95.8216 76.09 95.6916 76.04 95.5049 76.04V75.83C95.6249 75.8367 95.8049 75.8467 96.0449 75.86C96.2849 75.8667 96.5316 75.87 96.7849 75.87C97.0516 75.87 97.3216 75.8667 97.5949 75.86C97.8749 75.8467 98.0849 75.8367 98.2249 75.83ZM94.7449 75.83V76.04C94.5583 76.04 94.4283 76.09 94.3549 76.19C94.2816 76.29 94.2449 76.48 94.2449 76.76V80.07C94.2449 80.35 94.2816 80.54 94.3549 80.64C94.4283 80.74 94.5583 80.79 94.7449 80.79V81C94.6183 80.9933 94.4349 80.9867 94.1949 80.98C93.9549 80.9667 93.7116 80.96 93.4649 80.96C93.1916 80.96 92.9183 80.9667 92.6449 80.98C92.3716 80.9867 92.1649 80.9933 92.0249 81V80.79C92.2449 80.79 92.3983 80.74 92.4849 80.64C92.5783 80.54 92.6249 80.35 92.6249 80.07V76.76C92.6249 76.48 92.5783 76.29 92.4849 76.19C92.3983 76.09 92.2449 76.04 92.0249 76.04V75.83C92.1516 75.8367 92.3449 75.8467 92.6049 75.86C92.8716 75.8667 93.1316 75.87 93.3849 75.87C93.6516 75.87 93.9116 75.8667 94.1649 75.86C94.4183 75.8467 94.6116 75.8367 94.7449 75.83ZM96.1249 76.42L96.2949 76.51L94.0449 80.61L93.8749 80.52L96.1249 76.42ZM103.345 75.68C103.705 75.68 103.969 75.7633 104.135 75.93C104.302 76.0967 104.385 76.3067 104.385 76.56C104.385 76.82 104.305 77.0267 104.145 77.18C103.992 77.3267 103.799 77.4 103.565 77.4C103.432 77.4 103.295 77.3767 103.155 77.33C103.022 77.2767 102.909 77.1933 102.815 77.08C102.722 76.96 102.675 76.81 102.675 76.63C102.675 76.5033 102.709 76.3767 102.775 76.25C102.849 76.1167 102.969 76.0067 103.135 75.92C102.942 75.94 102.795 76 102.695 76.1C102.595 76.1933 102.519 76.3333 102.465 76.52C102.412 76.7067 102.345 76.9433 102.265 77.23C102.212 77.4167 102.152 77.5833 102.085 77.73C102.025 77.8767 101.939 78 101.825 78.1C101.712 78.1933 101.552 78.2667 101.345 78.32L101.375 78.25C101.909 78.17 102.345 78.18 102.685 78.28C103.025 78.38 103.282 78.5367 103.455 78.75C103.602 78.93 103.709 79.1467 103.775 79.4C103.849 79.6533 103.949 79.9333 104.075 80.24C104.149 80.4133 104.219 80.5433 104.285 80.63C104.359 80.7167 104.472 80.77 104.625 80.79V81C104.492 81.02 104.362 81.0333 104.235 81.04C104.115 81.0533 103.995 81.06 103.875 81.06C103.462 81.06 103.129 80.9833 102.875 80.83C102.622 80.6767 102.449 80.4067 102.355 80.02C102.342 79.9333 102.312 79.8133 102.265 79.66C102.219 79.5 102.162 79.3367 102.095 79.17C102.029 79.0033 101.945 78.8633 101.845 78.75C101.745 78.6367 101.615 78.55 101.455 78.49C101.295 78.43 101.095 78.4133 100.855 78.44V78.26C101.149 78.24 101.372 78.19 101.525 78.11C101.685 78.0233 101.805 77.8933 101.885 77.72C101.965 77.5467 102.039 77.3267 102.105 77.06C102.185 76.7733 102.265 76.5267 102.345 76.32C102.425 76.1133 102.542 75.9567 102.695 75.85C102.849 75.7367 103.065 75.68 103.345 75.68ZM101.475 75.83V76.04C101.262 76.04 101.112 76.09 101.025 76.19C100.939 76.29 100.895 76.48 100.895 76.76V80.07C100.895 80.35 100.939 80.54 101.025 80.64C101.112 80.74 101.262 80.79 101.475 80.79V81C101.335 80.9933 101.129 80.9867 100.855 80.98C100.582 80.9667 100.315 80.96 100.055 80.96C99.7953 80.96 99.532 80.9667 99.2653 80.98C98.9986 80.9867 98.802 80.9933 98.6753 81V80.79C98.8953 80.79 99.0486 80.74 99.1353 80.64C99.2286 80.54 99.2753 80.35 99.2753 80.07V76.76C99.2753 76.48 99.2286 76.29 99.1353 76.19C99.0486 76.09 98.8953 76.04 98.6753 76.04V75.83C98.8153 75.8367 99.0253 75.8467 99.3053 75.86C99.592 75.8667 99.862 75.87 100.115 75.87C100.382 75.87 100.642 75.8667 100.895 75.86C101.149 75.8467 101.342 75.8367 101.475 75.83ZM111.155 75.83V76.04C110.935 76.04 110.778 76.09 110.685 76.19C110.598 76.29 110.555 76.48 110.555 76.76V80.07C110.555 80.35 110.598 80.54 110.685 80.64C110.778 80.74 110.935 80.79 111.155 80.79V81C111.021 80.9933 110.821 80.9867 110.555 80.98C110.295 80.9667 110.041 80.96 109.795 80.96C109.528 80.96 109.265 80.9667 109.005 80.98C108.751 80.9867 108.561 80.9933 108.435 81V80.79C108.621 80.79 108.751 80.74 108.825 80.64C108.898 80.54 108.935 80.35 108.935 80.07V76.76C108.935 76.48 108.898 76.29 108.825 76.19C108.751 76.09 108.621 76.04 108.435 76.04V75.83C108.555 75.8367 108.735 75.8467 108.975 75.86C109.215 75.8667 109.461 75.87 109.715 75.87C109.981 75.87 110.251 75.8667 110.525 75.86C110.805 75.8467 111.015 75.8367 111.155 75.83ZM107.675 75.83V76.04C107.488 76.04 107.358 76.09 107.285 76.19C107.211 76.29 107.175 76.48 107.175 76.76V80.07C107.175 80.35 107.211 80.54 107.285 80.64C107.358 80.74 107.488 80.79 107.675 80.79V81C107.548 80.9933 107.365 80.9867 107.125 80.98C106.885 80.9667 106.641 80.96 106.395 80.96C106.121 80.96 105.848 80.9667 105.575 80.98C105.301 80.9867 105.095 80.9933 104.955 81V80.79C105.175 80.79 105.328 80.74 105.415 80.64C105.508 80.54 105.555 80.35 105.555 80.07V76.76C105.555 76.48 105.508 76.29 105.415 76.19C105.328 76.09 105.175 76.04 104.955 76.04V75.83C105.081 75.8367 105.275 75.8467 105.535 75.86C105.801 75.8667 106.061 75.87 106.315 75.87C106.581 75.87 106.841 75.8667 107.095 75.86C107.348 75.8467 107.541 75.8367 107.675 75.83ZM109.055 76.42L109.225 76.51L106.975 80.61L106.805 80.52L109.055 76.42ZM25.303 83.92C25.2763 84.2333 25.2563 84.5367 25.243 84.83C25.2363 85.1233 25.233 85.3467 25.233 85.5C25.233 85.6333 25.2363 85.7633 25.243 85.89C25.2497 86.01 25.2563 86.1133 25.263 86.2H25.033C24.933 85.68 24.7963 85.27 24.623 84.97C24.4497 84.67 24.2497 84.46 24.023 84.34C23.7963 84.2133 23.553 84.15 23.293 84.15H23.083C22.8963 84.15 22.7563 84.1667 22.663 84.2C22.5697 84.2267 22.5063 84.2867 22.473 84.38C22.4463 84.4733 22.433 84.62 22.433 84.82V89.94C22.433 90.16 22.4463 90.3333 22.473 90.46C22.4997 90.5867 22.5497 90.6767 22.623 90.73C22.703 90.7767 22.8197 90.8 22.973 90.8C23.2597 90.8 23.483 90.73 23.643 90.59C23.8097 90.4433 23.9263 90.2333 23.993 89.96C24.0597 89.68 24.093 89.3467 24.093 88.96C24.093 88.58 24.0563 88.24 23.983 87.94C23.9163 87.64 23.7863 87.4067 23.593 87.24C23.4063 87.0667 23.1297 86.98 22.763 86.98C22.663 86.98 22.553 86.98 22.433 86.98C22.3197 86.98 22.203 86.98 22.083 86.98C21.9697 86.98 21.863 86.98 21.763 86.98V86.79C21.963 86.79 22.163 86.79 22.363 86.79C22.563 86.7833 22.7463 86.78 22.913 86.78C23.5063 86.78 23.9997 86.8433 24.393 86.97C24.7863 87.09 25.0963 87.2533 25.323 87.46C25.5563 87.66 25.723 87.8867 25.823 88.14C25.923 88.3867 25.973 88.6433 25.973 88.91C25.973 89.2033 25.9163 89.4767 25.803 89.73C25.6897 89.9833 25.513 90.2067 25.273 90.4C25.033 90.5867 24.7297 90.7333 24.363 90.84C23.9963 90.94 23.5597 90.99 23.053 90.99C22.893 90.99 22.6797 90.9867 22.413 90.98C22.153 90.9733 21.833 90.97 21.453 90.97C21.193 90.97 20.913 90.9733 20.613 90.98C20.313 90.98 20.073 90.9867 19.893 91V90.8C20.0997 90.7867 20.253 90.76 20.353 90.72C20.4597 90.68 20.5297 90.6 20.563 90.48C20.603 90.36 20.623 90.18 20.623 89.94V84.98C20.623 84.7333 20.603 84.5533 20.563 84.44C20.5297 84.32 20.4597 84.24 20.353 84.2C20.253 84.1533 20.0997 84.1267 19.893 84.12V83.92C20.173 83.9267 20.473 83.9333 20.793 83.94C21.113 83.94 21.4297 83.9433 21.743 83.95C22.0563 83.95 22.3463 83.95 22.613 83.95C22.8797 83.95 23.0997 83.95 23.273 83.95C23.5663 83.95 23.903 83.95 24.283 83.95C24.663 83.9433 25.003 83.9333 25.303 83.92ZM29.0932 85.68C29.5932 85.68 30.0298 85.77 30.4032 85.95C30.7832 86.1233 31.0765 86.41 31.2832 86.81C31.4965 87.21 31.6032 87.7433 31.6032 88.41C31.6032 89.0767 31.4965 89.61 31.2832 90.01C31.0765 90.41 30.7832 90.7 30.4032 90.88C30.0298 91.0533 29.5932 91.14 29.0932 91.14C28.5998 91.14 28.1632 91.0533 27.7832 90.88C27.4098 90.7 27.1165 90.41 26.9032 90.01C26.6898 89.61 26.5832 89.0767 26.5832 88.41C26.5832 87.7433 26.6898 87.21 26.9032 86.81C27.1165 86.41 27.4098 86.1233 27.7832 85.95C28.1632 85.77 28.5998 85.68 29.0932 85.68ZM29.0932 85.88C28.8598 85.88 28.6632 86.08 28.5032 86.48C28.3498 86.8733 28.2732 87.5167 28.2732 88.41C28.2732 89.3033 28.3498 89.95 28.5032 90.35C28.6632 90.7433 28.8598 90.94 29.0932 90.94C29.3332 90.94 29.5298 90.7433 29.6832 90.35C29.8365 89.95 29.9132 89.3033 29.9132 88.41C29.9132 87.5167 29.8365 86.8733 29.6832 86.48C29.5298 86.08 29.3332 85.88 29.0932 85.88ZM34.3563 85.72V91.8C34.3563 92.12 34.433 92.3333 34.5863 92.44C34.7463 92.5467 34.963 92.6 35.2363 92.6V92.81C35.0563 92.8033 34.8063 92.7933 34.4863 92.78C34.1663 92.7733 33.8296 92.77 33.4763 92.77C33.223 92.77 32.9696 92.7733 32.7163 92.78C32.4696 92.7933 32.283 92.8033 32.1563 92.81V92.6C32.3696 92.6 32.5196 92.55 32.6063 92.45C32.693 92.3567 32.7363 92.1733 32.7363 91.9V86.92C32.7363 86.62 32.693 86.4 32.6063 86.26C32.5196 86.1133 32.363 86.04 32.1363 86.04V85.83C32.3496 85.85 32.5563 85.86 32.7563 85.86C33.063 85.86 33.3496 85.85 33.6163 85.83C33.883 85.8033 34.1296 85.7667 34.3563 85.72ZM35.8863 85.68C36.2263 85.68 36.5263 85.7733 36.7863 85.96C37.053 86.14 37.263 86.4167 37.4163 86.79C37.5763 87.1567 37.6563 87.62 37.6563 88.18C37.6563 88.7067 37.5963 89.1567 37.4763 89.53C37.363 89.9033 37.1996 90.21 36.9863 90.45C36.7796 90.69 36.533 90.8667 36.2463 90.98C35.9663 91.0867 35.663 91.14 35.3363 91.14C35.0896 91.14 34.8596 91.1033 34.6463 91.03C34.4396 90.9633 34.2763 90.8533 34.1563 90.7L34.2563 90.57C34.3163 90.6633 34.3996 90.7333 34.5063 90.78C34.613 90.8267 34.7263 90.85 34.8463 90.85C35.1196 90.85 35.3363 90.7567 35.4963 90.57C35.663 90.3767 35.783 90.0967 35.8563 89.73C35.9296 89.3633 35.9663 88.9167 35.9663 88.39C35.9663 87.81 35.933 87.36 35.8663 87.04C35.7996 86.7133 35.7096 86.4833 35.5963 86.35C35.483 86.2167 35.3496 86.15 35.1963 86.15C34.983 86.15 34.7896 86.2333 34.6163 86.4C34.4496 86.56 34.3563 86.78 34.3363 87.06L34.3163 86.64C34.4563 86.32 34.663 86.08 34.9363 85.92C35.2096 85.76 35.5263 85.68 35.8863 85.68ZM44.4407 85.83V86.04C44.2207 86.04 44.0641 86.09 43.9707 86.19C43.8841 86.29 43.8407 86.48 43.8407 86.76V90.07C43.8407 90.35 43.8841 90.54 43.9707 90.64C44.0641 90.74 44.2207 90.79 44.4407 90.79V91C44.3074 90.9933 44.1074 90.9867 43.8407 90.98C43.5807 90.9667 43.3274 90.96 43.0807 90.96C42.8141 90.96 42.5507 90.9667 42.2907 90.98C42.0374 90.9867 41.8474 90.9933 41.7207 91V90.79C41.9074 90.79 42.0374 90.74 42.1107 90.64C42.1841 90.54 42.2207 90.35 42.2207 90.07V86.76C42.2207 86.48 42.1841 86.29 42.1107 86.19C42.0374 86.09 41.9074 86.04 41.7207 86.04V85.83C41.8407 85.8367 42.0207 85.8467 42.2607 85.86C42.5007 85.8667 42.7474 85.87 43.0007 85.87C43.2674 85.87 43.5374 85.8667 43.8107 85.86C44.0907 85.8467 44.3007 85.8367 44.4407 85.83ZM40.9607 85.83V86.04C40.7741 86.04 40.6441 86.09 40.5707 86.19C40.4974 86.29 40.4607 86.48 40.4607 86.76V90.07C40.4607 90.35 40.4974 90.54 40.5707 90.64C40.6441 90.74 40.7741 90.79 40.9607 90.79V91C40.8341 90.9933 40.6507 90.9867 40.4107 90.98C40.1707 90.9667 39.9274 90.96 39.6807 90.96C39.4074 90.96 39.1341 90.9667 38.8607 90.98C38.5874 90.9867 38.3807 90.9933 38.2407 91V90.79C38.4607 90.79 38.6141 90.74 38.7007 90.64C38.7941 90.54 38.8407 90.35 38.8407 90.07V86.76C38.8407 86.48 38.7941 86.29 38.7007 86.19C38.6141 86.09 38.4607 86.04 38.2407 86.04V85.83C38.3674 85.8367 38.5607 85.8467 38.8207 85.86C39.0874 85.8667 39.3474 85.87 39.6007 85.87C39.8674 85.87 40.1274 85.8667 40.3807 85.86C40.6341 85.8467 40.8274 85.8367 40.9607 85.83ZM42.3407 86.42L42.5107 86.51L40.2607 90.61L40.0907 90.52L42.3407 86.42ZM47.5111 85.68C47.7911 85.68 48.0411 85.71 48.2611 85.77C48.4811 85.8233 48.6611 85.8933 48.8011 85.98C48.9745 86.0867 49.1145 86.2233 49.2211 86.39C49.3278 86.5567 49.3811 86.75 49.3811 86.97C49.3811 87.2233 49.2978 87.4367 49.1311 87.61C48.9645 87.7767 48.7545 87.86 48.5011 87.86C48.2411 87.86 48.0345 87.7833 47.8811 87.63C47.7345 87.4767 47.6611 87.28 47.6611 87.04C47.6611 86.8067 47.7345 86.61 47.8811 86.45C48.0278 86.29 48.2011 86.1833 48.4011 86.13C48.3478 86.0767 48.2778 86.0333 48.1911 86C48.1111 85.9667 48.0145 85.95 47.9011 85.95C47.6745 85.95 47.4845 86.0167 47.3311 86.15C47.1778 86.2767 47.0511 86.4533 46.9511 86.68C46.8578 86.9 46.7878 87.15 46.7411 87.43C46.7011 87.7033 46.6811 87.9867 46.6811 88.28C46.6811 88.7733 46.7445 89.16 46.8711 89.44C47.0045 89.7133 47.1678 89.9067 47.3611 90.02C47.5611 90.1267 47.7645 90.18 47.9711 90.18C48.0778 90.18 48.2011 90.1633 48.3411 90.13C48.4811 90.0967 48.6278 90.0267 48.7811 89.92C48.9411 89.8133 49.0911 89.6533 49.2311 89.44L49.4011 89.5C49.3278 89.76 49.2045 90.0167 49.0311 90.27C48.8578 90.5233 48.6345 90.7333 48.3611 90.9C48.0878 91.06 47.7545 91.14 47.3611 91.14C46.9211 91.14 46.5211 91.05 46.1611 90.87C45.8078 90.69 45.5245 90.4 45.3111 90C45.0978 89.6 44.9911 89.0767 44.9911 88.43C44.9911 87.8033 45.1011 87.29 45.3211 86.89C45.5411 86.4833 45.8411 86.18 46.2211 85.98C46.6078 85.78 47.0378 85.68 47.5111 85.68ZM51.2511 91.07C50.9445 91.07 50.6911 91.0133 50.4911 90.9C50.2911 90.78 50.1445 90.6233 50.0511 90.43C49.9578 90.2367 49.9111 90.03 49.9111 89.81C49.9111 89.53 49.9745 89.3 50.1011 89.12C50.2345 88.94 50.4045 88.7967 50.6111 88.69C50.8178 88.5767 51.0345 88.4833 51.2611 88.41C51.4878 88.3367 51.7045 88.2667 51.9111 88.2C52.1178 88.1267 52.2845 88.0433 52.4111 87.95C52.5378 87.85 52.6011 87.7233 52.6011 87.57V86.74C52.6011 86.5933 52.5778 86.4567 52.5311 86.33C52.4911 86.1967 52.4145 86.09 52.3011 86.01C52.1945 85.9233 52.0445 85.88 51.8511 85.88C51.7311 85.88 51.6145 85.8967 51.5011 85.93C51.3878 85.9633 51.2878 86.0167 51.2011 86.09C51.4145 86.1633 51.5711 86.2733 51.6711 86.42C51.7778 86.5667 51.8311 86.73 51.8311 86.91C51.8311 87.1567 51.7445 87.3533 51.5711 87.5C51.4045 87.64 51.2045 87.71 50.9711 87.71C50.7178 87.71 50.5211 87.63 50.3811 87.47C50.2478 87.31 50.1811 87.1167 50.1811 86.89C50.1811 86.69 50.2311 86.5233 50.3311 86.39C50.4311 86.25 50.5778 86.1233 50.7711 86.01C50.9645 85.8967 51.1978 85.8133 51.4711 85.76C51.7445 85.7067 52.0345 85.68 52.3411 85.68C52.6545 85.68 52.9411 85.7133 53.2011 85.78C53.4678 85.84 53.6945 85.9633 53.8811 86.15C54.0278 86.3033 54.1211 86.49 54.1611 86.71C54.2011 86.93 54.2211 87.21 54.2211 87.55V90.25C54.2211 90.4167 54.2345 90.5333 54.2611 90.6C54.2945 90.66 54.3445 90.69 54.4111 90.69C54.4711 90.69 54.5278 90.6733 54.5811 90.64C54.6345 90.6067 54.6878 90.57 54.7411 90.53L54.8511 90.7C54.7045 90.82 54.5311 90.9133 54.3311 90.98C54.1311 91.04 53.9145 91.07 53.6811 91.07C53.4145 91.07 53.2045 91.0367 53.0511 90.97C52.9045 90.8967 52.7978 90.8 52.7311 90.68C52.6711 90.56 52.6378 90.4267 52.6311 90.28C52.4845 90.52 52.3011 90.7133 52.0811 90.86C51.8611 91 51.5845 91.07 51.2511 91.07ZM52.0811 90.35C52.1878 90.35 52.2811 90.33 52.3611 90.29C52.4478 90.2433 52.5278 90.1667 52.6011 90.06V87.98C52.5478 88.0733 52.4745 88.1633 52.3811 88.25C52.2945 88.33 52.2011 88.4133 52.1011 88.5C52.0011 88.58 51.9045 88.67 51.8111 88.77C51.7245 88.87 51.6511 88.99 51.5911 89.13C51.5378 89.2633 51.5111 89.4267 51.5111 89.62C51.5111 89.88 51.5645 90.0667 51.6711 90.18C51.7778 90.2933 51.9145 90.35 52.0811 90.35ZM61.2307 83.78C61.6707 83.78 62.0307 83.8467 62.3107 83.98C62.5973 84.1067 62.8507 84.2567 63.0707 84.43C63.204 84.53 63.304 84.5433 63.3707 84.47C63.444 84.39 63.494 84.2067 63.5207 83.92H63.7507C63.7373 84.18 63.7273 84.5 63.7207 84.88C63.714 85.26 63.7107 85.76 63.7107 86.38H63.4807C63.454 86.0667 63.4107 85.7933 63.3507 85.56C63.2973 85.3267 63.2173 85.12 63.1107 84.94C63.004 84.76 62.8507 84.6 62.6507 84.46C62.4973 84.3333 62.324 84.2367 62.1307 84.17C61.944 84.0967 61.7507 84.06 61.5507 84.06C61.184 84.06 60.874 84.1633 60.6207 84.37C60.374 84.57 60.174 84.8367 60.0207 85.17C59.874 85.4967 59.7673 85.8633 59.7007 86.27C59.6407 86.67 59.6107 87.0733 59.6107 87.48C59.6107 87.8933 59.644 88.3033 59.7107 88.71C59.7773 89.11 59.884 89.4733 60.0307 89.8C60.184 90.1267 60.3873 90.39 60.6407 90.59C60.894 90.7833 61.204 90.88 61.5707 90.88C61.764 90.88 61.954 90.8467 62.1407 90.78C62.334 90.7133 62.5073 90.6167 62.6607 90.49C62.954 90.29 63.1507 90.03 63.2507 89.71C63.3573 89.3833 63.434 88.96 63.4807 88.44H63.7107C63.7107 89.0867 63.714 89.61 63.7207 90.01C63.7273 90.4033 63.7373 90.7333 63.7507 91H63.5207C63.494 90.7133 63.4473 90.5333 63.3807 90.46C63.3207 90.3867 63.2173 90.3967 63.0707 90.49C62.824 90.6633 62.5607 90.8167 62.2807 90.95C62.0073 91.0767 61.654 91.14 61.2207 91.14C60.494 91.14 59.854 90.9967 59.3007 90.71C58.754 90.4233 58.3273 90.01 58.0207 89.47C57.7207 88.93 57.5707 88.28 57.5707 87.52C57.5707 86.7733 57.7273 86.12 58.0407 85.56C58.354 85 58.784 84.5633 59.3307 84.25C59.884 83.9367 60.5173 83.78 61.2307 83.78ZM67.14 85.68C67.64 85.68 68.0767 85.77 68.45 85.95C68.83 86.1233 69.1234 86.41 69.33 86.81C69.5434 87.21 69.65 87.7433 69.65 88.41C69.65 89.0767 69.5434 89.61 69.33 90.01C69.1234 90.41 68.83 90.7 68.45 90.88C68.0767 91.0533 67.64 91.14 67.14 91.14C66.6467 91.14 66.21 91.0533 65.83 90.88C65.4567 90.7 65.1634 90.41 64.95 90.01C64.7367 89.61 64.63 89.0767 64.63 88.41C64.63 87.7433 64.7367 87.21 64.95 86.81C65.1634 86.41 65.4567 86.1233 65.83 85.95C66.21 85.77 66.6467 85.68 67.14 85.68ZM67.14 85.88C66.9067 85.88 66.71 86.08 66.55 86.48C66.3967 86.8733 66.32 87.5167 66.32 88.41C66.32 89.3033 66.3967 89.95 66.55 90.35C66.71 90.7433 66.9067 90.94 67.14 90.94C67.38 90.94 67.5767 90.7433 67.73 90.35C67.8834 89.95 67.96 89.3033 67.96 88.41C67.96 87.5167 67.8834 86.8733 67.73 86.48C67.5767 86.08 67.38 85.88 67.14 85.88ZM72.4032 85.72V91.8C72.4032 92.12 72.4798 92.3333 72.6332 92.44C72.7932 92.5467 73.0098 92.6 73.2832 92.6V92.81C73.1032 92.8033 72.8532 92.7933 72.5332 92.78C72.2132 92.7733 71.8765 92.77 71.5232 92.77C71.2698 92.77 71.0165 92.7733 70.7632 92.78C70.5165 92.7933 70.3298 92.8033 70.2032 92.81V92.6C70.4165 92.6 70.5665 92.55 70.6532 92.45C70.7398 92.3567 70.7832 92.1733 70.7832 91.9V86.92C70.7832 86.62 70.7398 86.4 70.6532 86.26C70.5665 86.1133 70.4098 86.04 70.1832 86.04V85.83C70.3965 85.85 70.6032 85.86 70.8032 85.86C71.1098 85.86 71.3965 85.85 71.6632 85.83C71.9298 85.8033 72.1765 85.7667 72.4032 85.72ZM73.9332 85.68C74.2732 85.68 74.5732 85.7733 74.8332 85.96C75.0998 86.14 75.3098 86.4167 75.4632 86.79C75.6232 87.1567 75.7032 87.62 75.7032 88.18C75.7032 88.7067 75.6432 89.1567 75.5232 89.53C75.4098 89.9033 75.2465 90.21 75.0332 90.45C74.8265 90.69 74.5798 90.8667 74.2932 90.98C74.0132 91.0867 73.7098 91.14 73.3832 91.14C73.1365 91.14 72.9065 91.1033 72.6932 91.03C72.4865 90.9633 72.3232 90.8533 72.2032 90.7L72.3032 90.57C72.3632 90.6633 72.4465 90.7333 72.5532 90.78C72.6598 90.8267 72.7732 90.85 72.8932 90.85C73.1665 90.85 73.3832 90.7567 73.5432 90.57C73.7098 90.3767 73.8298 90.0967 73.9032 89.73C73.9765 89.3633 74.0132 88.9167 74.0132 88.39C74.0132 87.81 73.9798 87.36 73.9132 87.04C73.8465 86.7133 73.7565 86.4833 73.6432 86.35C73.5298 86.2167 73.3965 86.15 73.2432 86.15C73.0298 86.15 72.8365 86.2333 72.6632 86.4C72.4965 86.56 72.4032 86.78 72.3832 87.06L72.3632 86.64C72.5032 86.32 72.7098 86.08 72.9832 85.92C73.2565 85.76 73.5732 85.68 73.9332 85.68ZM82.4876 85.83V86.04C82.2676 86.04 82.111 86.09 82.0176 86.19C81.931 86.29 81.8876 86.48 81.8876 86.76V90.07C81.8876 90.35 81.931 90.54 82.0176 90.64C82.111 90.74 82.2676 90.79 82.4876 90.79V91C82.3543 90.9933 82.1543 90.9867 81.8876 90.98C81.6276 90.9667 81.3743 90.96 81.1276 90.96C80.861 90.96 80.5976 90.9667 80.3376 90.98C80.0843 90.9867 79.8943 90.9933 79.7676 91V90.79C79.9543 90.79 80.0843 90.74 80.1576 90.64C80.231 90.54 80.2676 90.35 80.2676 90.07V86.76C80.2676 86.48 80.231 86.29 80.1576 86.19C80.0843 86.09 79.9543 86.04 79.7676 86.04V85.83C79.8876 85.8367 80.0676 85.8467 80.3076 85.86C80.5476 85.8667 80.7943 85.87 81.0476 85.87C81.3143 85.87 81.5843 85.8667 81.8576 85.86C82.1376 85.8467 82.3476 85.8367 82.4876 85.83ZM79.0076 85.83V86.04C78.821 86.04 78.691 86.09 78.6176 86.19C78.5443 86.29 78.5076 86.48 78.5076 86.76V90.07C78.5076 90.35 78.5443 90.54 78.6176 90.64C78.691 90.74 78.821 90.79 79.0076 90.79V91C78.881 90.9933 78.6976 90.9867 78.4576 90.98C78.2176 90.9667 77.9743 90.96 77.7276 90.96C77.4543 90.96 77.181 90.9667 76.9076 90.98C76.6343 90.9867 76.4276 90.9933 76.2876 91V90.79C76.5076 90.79 76.661 90.74 76.7476 90.64C76.841 90.54 76.8876 90.35 76.8876 90.07V86.76C76.8876 86.48 76.841 86.29 76.7476 86.19C76.661 86.09 76.5076 86.04 76.2876 86.04V85.83C76.4143 85.8367 76.6076 85.8467 76.8676 85.86C77.1343 85.8667 77.3943 85.87 77.6476 85.87C77.9143 85.87 78.1743 85.8667 78.4276 85.86C78.681 85.8467 78.8743 85.8367 79.0076 85.83ZM80.3876 86.42L80.5576 86.51L78.3076 90.61L78.1376 90.52L80.3876 86.42ZM88.948 85.83V86.04C88.728 86.04 88.5713 86.09 88.478 86.19C88.3913 86.29 88.348 86.48 88.348 86.76V90.07C88.348 90.35 88.3913 90.54 88.478 90.64C88.5713 90.74 88.728 90.79 88.948 90.79V91C88.8147 90.9933 88.6147 90.9867 88.348 90.98C88.088 90.9667 87.8347 90.96 87.588 90.96C87.3213 90.96 87.058 90.9667 86.798 90.98C86.5447 90.9867 86.3547 90.9933 86.228 91V90.79C86.4147 90.79 86.5447 90.74 86.618 90.64C86.6913 90.54 86.728 90.35 86.728 90.07V86.76C86.728 86.48 86.6913 86.29 86.618 86.19C86.5447 86.09 86.4147 86.04 86.228 86.04V85.83C86.348 85.8367 86.528 85.8467 86.768 85.86C87.008 85.8667 87.2547 85.87 87.508 85.87C87.7747 85.87 88.0447 85.8667 88.318 85.86C88.598 85.8467 88.808 85.8367 88.948 85.83ZM85.658 85.83V86.04C85.4713 86.04 85.3413 86.09 85.268 86.19C85.1947 86.29 85.158 86.48 85.158 86.76V90.07C85.158 90.35 85.1947 90.54 85.268 90.64C85.3413 90.74 85.4713 90.79 85.658 90.79V91C85.5313 90.9933 85.348 90.9867 85.108 90.98C84.868 90.9667 84.6247 90.96 84.378 90.96C84.1047 90.96 83.8313 90.9667 83.558 90.98C83.2847 90.9867 83.078 90.9933 82.938 91V90.79C83.158 90.79 83.3113 90.74 83.398 90.64C83.4913 90.54 83.538 90.35 83.538 90.07V86.76C83.538 86.48 83.4913 86.29 83.398 86.19C83.3113 86.09 83.158 86.04 82.938 86.04V85.83C83.0647 85.8367 83.258 85.8467 83.518 85.86C83.7847 85.8667 84.0447 85.87 84.298 85.87C84.5647 85.87 84.8247 85.8667 85.078 85.86C85.3313 85.8467 85.5247 85.8367 85.658 85.83ZM87.328 88.23V88.43H84.508V88.23H87.328ZM90.7629 91.07C90.4562 91.07 90.2029 91.0133 90.0029 90.9C89.8029 90.78 89.6562 90.6233 89.5629 90.43C89.4695 90.2367 89.4229 90.03 89.4229 89.81C89.4229 89.53 89.4862 89.3 89.6129 89.12C89.7462 88.94 89.9162 88.7967 90.1229 88.69C90.3295 88.5767 90.5462 88.4833 90.7729 88.41C90.9995 88.3367 91.2162 88.2667 91.4229 88.2C91.6295 88.1267 91.7962 88.0433 91.9229 87.95C92.0495 87.85 92.1129 87.7233 92.1129 87.57V86.74C92.1129 86.5933 92.0895 86.4567 92.0429 86.33C92.0029 86.1967 91.9262 86.09 91.8129 86.01C91.7062 85.9233 91.5562 85.88 91.3629 85.88C91.2429 85.88 91.1262 85.8967 91.0129 85.93C90.8995 85.9633 90.7995 86.0167 90.7129 86.09C90.9262 86.1633 91.0829 86.2733 91.1829 86.42C91.2895 86.5667 91.3429 86.73 91.3429 86.91C91.3429 87.1567 91.2562 87.3533 91.0829 87.5C90.9162 87.64 90.7162 87.71 90.4829 87.71C90.2295 87.71 90.0329 87.63 89.8929 87.47C89.7595 87.31 89.6929 87.1167 89.6929 86.89C89.6929 86.69 89.7429 86.5233 89.8429 86.39C89.9429 86.25 90.0895 86.1233 90.2829 86.01C90.4762 85.8967 90.7095 85.8133 90.9829 85.76C91.2562 85.7067 91.5462 85.68 91.8529 85.68C92.1662 85.68 92.4529 85.7133 92.7129 85.78C92.9795 85.84 93.2062 85.9633 93.3929 86.15C93.5395 86.3033 93.6329 86.49 93.6729 86.71C93.7129 86.93 93.7329 87.21 93.7329 87.55V90.25C93.7329 90.4167 93.7462 90.5333 93.7729 90.6C93.8062 90.66 93.8562 90.69 93.9229 90.69C93.9829 90.69 94.0395 90.6733 94.0929 90.64C94.1462 90.6067 94.1995 90.57 94.2529 90.53L94.3629 90.7C94.2162 90.82 94.0429 90.9133 93.8429 90.98C93.6429 91.04 93.4262 91.07 93.1929 91.07C92.9262 91.07 92.7162 91.0367 92.5629 90.97C92.4162 90.8967 92.3095 90.8 92.2429 90.68C92.1829 90.56 92.1495 90.4267 92.1429 90.28C91.9962 90.52 91.8129 90.7133 91.5929 90.86C91.3729 91 91.0962 91.07 90.7629 91.07ZM91.5929 90.35C91.6995 90.35 91.7929 90.33 91.8729 90.29C91.9595 90.2433 92.0395 90.1667 92.1129 90.06V87.98C92.0595 88.0733 91.9862 88.1633 91.8929 88.25C91.8062 88.33 91.7129 88.4133 91.6129 88.5C91.5129 88.58 91.4162 88.67 91.3229 88.77C91.2362 88.87 91.1629 88.99 91.1029 89.13C91.0495 89.2633 91.0229 89.4267 91.0229 89.62C91.0229 89.88 91.0762 90.0667 91.1829 90.18C91.2895 90.2933 91.4262 90.35 91.5929 90.35Z" fill="black"/>
<defs>
<clipPath id="clip0_167_329">
<rect width="66" height="67" fill="white" transform="translate(24)"/>
</clipPath>
</defs>
</svg>
