<svg width="133" height="134" viewBox="0 0 133 134" fill="none" xmlns="http://www.w3.org/2000/svg">
<g clip-path="url(#clip0_118_190)">
<path d="M56.79 51.2979V51.3279L56.29 49.9379L56.36 49.3779L56.44 48.5579L55.74 46.3679L54.98 44.1979L54.73 43.4679L54.47 44.1979L54.38 44.4679C53.46 47.0879 52.84 49.7079 52.48 52.3979C52.37 53.2379 52.28 54.0979 52.22 54.9579C52.2 55.2179 52.17 55.4579 52.15 55.7079L51.82 58.6879L51.5 61.5679C51.5 61.5679 51.5 62.1879 51.53 62.8979C51.55 63.7879 51.57 64.8179 51.58 64.9079C51.6 65.0179 51.62 65.1379 51.64 65.2479C51.77 65.9979 51.96 66.7979 52.57 67.3879L52.98 67.7079L53.31 66.9279L53.5 66.4479L53.66 66.3679L53 65.7979C53 65.7979 52.98 65.7879 52.97 65.7779C53.01 65.7379 53.05 65.6779 53.05 65.6779C53.16 65.5479 53.28 65.3979 53.38 65.2479C53.56 64.9779 53.69 64.6779 53.69 64.2779C53.69 64.1479 53.67 64.0079 53.64 63.8679C53.64 63.8679 53.49 63.4979 53.4 63.2879C53.4 63.2879 53.47 63.0879 53.55 62.8979C53.62 62.6979 53.7 62.4979 53.7 62.4879C53.7 62.4879 53.7 61.8479 53.7 61.8379L53.83 61.4279C53.83 61.4279 53.98 60.9879 53.98 60.9979L54.48 59.9579L54.76 59.4679C55.19 58.6279 55.32 57.5779 55.45 56.5679L55.95 54.9579L56.14 54.3579C56.39 53.7179 56.64 53.0579 56.76 52.4079C56.82 52.0379 56.86 51.6779 56.81 51.3179L56.79 51.2979ZM52.94 64.2679C52.94 64.6479 52.74 64.8779 52.47 65.1979C52.47 65.1979 52.45 65.2179 52.44 65.2379H52.41C52.37 65.0379 52.32 64.8579 52.28 64.6279C52.28 64.6279 52.27 63.7079 52.26 62.8779H52.77C52.71 63.0579 52.65 63.2679 52.65 63.2679C52.65 63.2679 52.84 63.8379 52.9 63.9979C52.92 64.0879 52.93 64.1779 52.93 64.2579L52.94 64.2679ZM55.97 52.3879C55.85 52.9279 55.68 53.4879 55.44 54.0679L55.17 54.9479H52.95C53.02 54.0879 53.12 53.2379 53.24 52.3879H55.97ZM125.04 67.8879L125.02 69.6279C125.02 70.0079 125.31 70.3279 125.69 70.3379C126.06 70.3379 126.38 70.0579 126.38 69.6779L126.4 67.8979C126.4 38.2479 105.21 13.2079 76.02 8.35789C75.65 8.29789 75.29 8.54789 75.23 8.91789C75.17 9.28789 75.42 9.63789 75.79 9.69789C104.32 14.4379 125.03 38.9179 125.03 67.8979L125.04 67.8879ZM0 67.5979C0 104.128 29.71 133.838 66.25 133.838C83.94 133.838 100.58 126.948 113.09 114.438C125.6 101.928 132.49 85.2879 132.49 67.5979C132.49 49.9079 125.6 33.2679 113.09 20.7579C101.23 8.90789 85.69 2.10789 69.05 1.41789L72.47 5.24789C86.86 6.65789 100.2 12.9379 110.56 23.2979C122.39 35.1379 128.91 50.8679 128.91 67.6079C128.91 70.5179 128.7 73.3979 128.31 76.2279L122.5 75.1679C122.02 74.4079 121.08 73.9079 120.05 73.9679C118.76 74.0679 117.82 75.0079 117.72 76.1279L114.1 79.1979C113.88 79.1579 113.66 79.1079 113.43 79.1279C112.31 79.2079 111.44 79.9279 111.16 80.8579C111.11 80.8579 111.07 80.8279 111.01 80.8179C110.31 80.7679 109.68 80.9779 109.17 81.3379L105.33 80.3979C104.91 79.7879 104.23 79.3279 103.38 79.2679C101.95 79.1679 100.71 80.1179 100.58 81.4079C100.58 81.4879 100.61 81.5479 100.61 81.6279L97.33 83.4579C97.05 83.3379 96.76 83.2479 96.44 83.2279C95.01 83.1279 93.77 84.0779 93.65 85.3679C93.61 85.7279 93.7 86.0679 93.84 86.3879L91.41 90.0479C91.41 90.0479 91.38 90.0379 91.36 90.0379C89.93 89.9279 88.68 90.8879 88.56 92.1779C88.51 92.7979 88.74 93.3879 89.15 93.8379L87.18 96.8179C87.06 96.7979 86.96 96.7379 86.84 96.7279C86.43 96.6979 86.05 96.7379 85.69 96.8479L83.58 93.6679C83.78 93.2979 83.91 92.8979 83.87 92.4679C83.77 91.3579 82.82 90.5379 81.65 90.3779L79.09 86.5179C79.26 86.1779 79.36 85.8079 79.33 85.3979C79.26 84.5779 78.7 83.9279 77.95 83.5679L78.32 80.9579L78.44 80.2279C78.44 80.2279 78.86 78.1779 78.86 78.1679L79.57 75.4379L79.9 73.7979C79.94 73.5979 79.98 73.3879 80.02 73.1779H80.65C80.76 73.3679 80.9 73.5379 81.13 73.6679C81.13 73.6679 81.23 73.6879 81.26 73.6879L81.24 73.7079C80.92 73.8979 80.41 74.1779 80.41 74.7779C80.41 74.8179 80.41 74.8579 80.43 74.9079C80.16 75.0279 79.84 75.0979 79.72 75.4079C79.66 75.5579 79.63 75.7179 79.63 75.8679C79.63 76.1679 79.74 76.4479 79.96 76.6479L79.99 76.7779L80.99 76.6279L81.47 76.5779H81.66L82.83 75.7979L83.42 75.3779L83.64 75.2579L84.1 74.9479L84.66 73.5579C84.66 73.5579 84.71 73.3679 84.76 73.1779H127.41L119.99 65.2379H84.68V65.1179L84.39 62.8879H118.26L110.84 54.9479H83.57L83.47 53.9779L83.11 52.3879H109.75L102.09 44.1879H82.1C82.12 43.3679 82.15 42.5179 82.22 41.6279H101.01L93.34 33.4279H82.65C82.59 33.2179 82.53 33.0079 82.44 32.8079L81.65 31.8279C81.65 31.8279 81.47 31.6479 81.48 31.6579L81.28 31.4379C81.28 31.4379 80.92 31.1279 80.64 30.8779H92.26L84.61 22.6779H74.94C74.98 22.5879 75.02 22.5279 75.05 22.4179L75.31 21.7279L75.76 20.1179H83.51L75.86 11.9179H73.46C73.41 11.7979 73.36 11.6879 73.36 11.5679C73.36 11.4779 73.38 11.3879 73.43 11.2879L73.53 11.1279L72.73 9.72789L72.52 9.56789L72.1 9.34789H74.77L66.35 0.337891L57.92 9.34789H63.5C63.11 9.51789 62.79 9.65789 62.79 9.65789L62.38 9.89789L60.98 10.9579C60.8 11.2279 60.64 11.5579 60.49 11.9079H56.84L49.18 20.1079H61.67C61.67 20.1079 61.71 20.1779 61.72 20.2079L62.57 21.1479L63.49 22.3079L63.56 22.5979C63.56 22.5979 63.57 22.6379 63.58 22.6679H48.08L40.42 30.8679H51.21L50.57 31.6979L49.95 33.4279H39.33L31.67 41.6279H48.26L47.96 44.1879H30.59L22.94 52.3879H47.01C46.9 53.2279 46.85 54.0879 46.84 54.9479H21.85L14.43 62.8879H47.47L47.51 64.0479C47.51 64.0479 47.52 64.7679 47.53 65.2479H12.79L5.38 73.1879H47.2C47.21 73.3379 47.23 73.4579 47.23 73.4579L47.66 73.8979C47.66 73.8979 47.88 74.0779 47.89 74.0779L48.23 74.5479L48.75 75.2379L49.09 75.5279C49.09 75.5279 49.31 75.6979 49.32 75.7079L49.56 75.9579C49.56 75.9579 49.84 76.2379 49.83 76.2379L50.33 76.5679C50.33 76.5679 50.66 76.7879 50.67 76.7779L50.57 77.4579C50.57 77.4579 50.45 78.1179 50.45 78.1279C50.45 78.1279 50.5 78.9079 50.5 78.9179L50.4 79.7779L45.95 78.6879C45.54 78.0779 44.85 77.6179 43.99 77.5579C42.57 77.4579 41.31 78.4179 41.2 79.6979C41.2 79.7679 41.23 79.8379 41.23 79.9079L37.93 81.7479C37.65 81.6279 37.36 81.5379 37.04 81.5179C35.62 81.4079 34.37 82.3679 34.26 83.6579C34.23 84.0179 34.3 84.3579 34.44 84.6779L32.02 88.3379C32.02 88.3379 31.98 88.3279 31.96 88.3279C30.53 88.2279 29.28 89.1779 29.17 90.4679C29.1 91.1179 29.35 91.7279 29.79 92.1879L27.75 95.2579C27.66 95.2479 27.58 95.1979 27.48 95.1879C26.37 95.0979 25.38 95.6879 24.94 96.5579L24.18 95.4079C24.21 95.3479 24.26 95.2879 24.29 95.2279L24.36 95.1879L24.34 95.1579C24.45 94.8579 24.51 94.5379 24.47 94.2079C24.37 93.1279 23.47 92.3279 22.34 92.1479L19.82 88.3479C19.95 88.0379 20.03 87.7079 19.99 87.3479C19.89 86.2179 18.9 85.3879 17.71 85.2579L13.93 81.4279C13.98 81.2179 14.03 81.0079 14.01 80.7879C13.9 79.4979 12.65 78.5379 11.23 78.6379C10.71 78.6779 10.27 78.8879 9.89 79.1579L5.03 78.1379C4.9 78.1279 4.7 78.1479 4.51 78.2379C3.92 74.7779 3.59 71.2379 3.59 67.6079C3.58 35.0279 28.57 8.16789 60.39 5.20789L63.87 1.39789C28.44 2.64789 0 31.8679 0 67.5979H0ZM16.74 85.3079C16.41 85.3879 16.13 85.5179 15.87 85.6979C14.78 84.5979 13.57 83.3679 12.98 82.7779C13.24 82.5979 13.45 82.3879 13.61 82.1379C14.23 82.7579 15.74 84.2979 16.74 85.3179V85.3079ZM21.45 92.1179C21.11 92.1679 20.81 92.2679 20.54 92.4279C19.81 91.3279 19.05 90.1879 18.64 89.5779C18.93 89.4379 19.19 89.2479 19.39 89.0279C19.8 89.6379 20.64 90.9079 21.45 92.1279V92.1179ZM24.27 99.8779L22.17 101.898C21.96 101.828 21.75 101.748 21.52 101.728H21.5L21.59 96.6579C21.76 96.6779 21.93 96.7279 22.11 96.7179C22.13 96.7179 22.14 96.6979 22.17 96.6979L24.27 99.8779ZM23.49 102.738L23.4 102.758C23.25 102.568 23.06 102.398 22.86 102.258C23.24 101.898 23.84 101.328 24.51 100.688C24.45 100.918 24.39 101.138 24.42 101.388C24.44 101.538 24.51 101.668 24.55 101.818C24.1 102.268 23.73 102.658 23.49 102.898C23.48 102.868 23.46 102.848 23.45 102.828L23.5 102.748L23.49 102.738ZM25.25 98.9279L24.81 99.3579C24.1 98.2779 23.36 97.1579 22.92 96.4979C23.22 96.3779 23.48 96.2179 23.71 96.0079C23.97 96.3879 24.33 96.9379 24.73 97.5479C24.75 98.0679 24.93 98.5479 25.26 98.9279H25.25ZM31.3 92.9079C30.49 94.1279 29.65 95.4079 29.25 95.9979C29.04 95.7779 28.79 95.5879 28.5 95.4479C28.91 94.8279 29.66 93.6979 30.39 92.5979C30.67 92.7479 30.97 92.8579 31.3 92.9179V92.9079ZM33.08 102.978C32.91 103.028 32.76 103.068 32.62 103.138L29.51 101.398C29.52 101.268 29.58 101.138 29.57 100.988C29.51 100.348 29.17 99.7979 28.68 99.4079C29.33 99.0279 29.79 98.4179 29.86 97.6779C29.89 97.3279 29.82 96.9879 29.69 96.6879L31.87 93.3879L33.08 102.978ZM29.3 102.138C29.93 102.498 30.96 103.068 31.95 103.618C31.75 103.828 31.6 104.078 31.5 104.348C30.48 103.778 29.41 103.178 28.77 102.828C29 102.628 29.17 102.398 29.3 102.138ZM35.63 85.8879C34.86 87.0579 34.02 88.3079 33.56 88.9979C33.34 88.7979 33.08 88.6279 32.77 88.5079C33.25 87.7779 34.1 86.5079 34.87 85.3379C35.08 85.5579 35.33 85.7379 35.62 85.8779L35.63 85.8879ZM40.02 101.768C39.5 102.128 39.15 102.648 39.05 103.248L36.14 103.968C35.71 103.308 34.95 102.888 34.08 102.848L32.81 92.7279C33.63 92.3879 34.26 91.6879 34.33 90.8179C34.37 90.4879 34.31 90.1679 34.2 89.8679V89.8379L34.17 89.8079C34.14 89.7279 34.08 89.6779 34.04 89.6079L36.37 86.0779C36.46 86.0879 36.54 86.1379 36.63 86.1379C36.72 86.1379 36.79 86.1179 36.87 86.1179L40.02 101.758V101.768ZM36.51 104.948C36.5 104.848 36.44 104.758 36.41 104.658C37.08 104.488 38.09 104.238 39.04 104.008C39.09 104.288 39.19 104.548 39.35 104.778C38.28 105.048 37.07 105.338 36.43 105.498C36.47 105.318 36.52 105.138 36.51 104.948ZM41.82 81.3879C40.82 81.9479 39.78 82.5279 39.16 82.8779C39.03 82.6179 38.86 82.3879 38.63 82.1879C39.26 81.8379 40.33 81.2379 41.36 80.6679C41.47 80.9279 41.61 81.1779 41.82 81.3979V81.3879ZM44.72 95.9479C44.21 96.4079 43.9 97.0579 43.96 97.7579C44 98.1879 44.2 98.5579 44.45 98.8779L42.43 101.408C42.09 101.298 41.73 101.228 41.34 101.258C41.21 101.268 41.09 101.328 40.97 101.358L37.87 85.9279C38.71 85.5979 39.34 84.8879 39.42 84.0079C39.43 83.8679 39.38 83.7379 39.36 83.5979L42.48 81.8579C42.73 81.9879 43.02 82.0779 43.34 82.1179L44.73 95.9379L44.72 95.9479ZM44.97 99.4079C45.23 99.5879 45.51 99.7279 45.83 99.8079C45.09 100.738 44.29 101.738 43.76 102.398C43.59 102.148 43.37 101.928 43.11 101.738C43.63 101.088 44.32 100.218 44.98 99.3979L44.97 99.4079ZM45.99 81.0379L50.14 82.0679C50.1 82.3279 50.07 82.5979 50.03 82.8579L49.73 82.8279L48.74 88.6479C48.05 89.1179 47.6 89.8479 47.67 90.6879C47.71 91.0879 47.88 91.4379 48.1 91.7479C48.04 92.0079 47.99 92.2979 47.96 92.6279L46.66 95.2679C46.55 95.2679 46.44 95.2279 46.33 95.2379C46.09 95.2579 45.88 95.3379 45.67 95.4079L44.34 82.1179C45.04 81.9779 45.63 81.5979 46 81.0479L45.99 81.0379ZM47.83 94.5579L47.8 94.9479L47.67 95.4979C47.58 95.4579 47.52 95.3979 47.43 95.3679C47.55 95.1279 47.68 94.8479 47.83 94.5479V94.5579ZM50.02 87.1479C50.03 87.3479 50.06 87.5679 50.06 87.5679L49.9 87.8279L50.02 87.1479ZM50.32 80.4879L50.23 81.3179C48.81 80.9679 47.18 80.5679 46.26 80.3479C46.29 80.2379 46.35 80.1579 46.36 80.0479C46.38 79.8579 46.32 79.6879 46.28 79.5079C47.08 79.6979 48.79 80.1179 50.32 80.4979V80.4879ZM77.7 80.1079L77.58 80.8279L77.22 83.3279L76.73 86.7179L76.6 87.8779L76.51 88.7379L75.98 92.6579L75.07 94.4579L74.62 95.1979L74.2 95.9179C74.2 95.9179 73.2 97.8179 73.19 97.8179L72.48 101.448L72.38 102.188L72.19 103.488C72.19 103.488 72.19 103.528 72.18 103.548C72.16 103.718 72.03 104.618 71.93 105.448C71.89 105.708 71.86 105.948 71.83 106.148C71.79 106.468 71.76 106.698 71.75 106.728C71.75 106.728 71.7 107.058 71.65 107.528C71.48 108.808 71.17 111.168 71.17 111.168L70.83 112.348L70.36 113.868L70.01 115.268L70.1 116.958C70.1 116.958 70.14 117.938 70.15 118.298C70.11 118.298 70.05 118.308 70.05 118.308L69.43 118.408L69.18 118.448L69.2 118.778C69.28 119.878 69.99 120.548 70.61 121.148C70.61 121.148 71.63 122.428 71.67 122.598L71.73 122.928L71.84 123.218C71.84 123.218 71.91 123.668 71.95 123.918C70.46 124.158 67.66 124.418 65.91 123.958C65.43 123.838 64.83 123.678 64.7 123.408C64.63 123.258 64.72 123.018 64.8 122.848L65.08 122.388L63.02 122.118L62.21 122.048C61.33 121.958 60.81 121.678 60.77 121.558L60.94 120.848L61.07 120.458L61.17 120.118L61.45 119.338L61.48 119.108L61.62 117.278L61.51 117.158C61.51 117.158 61.64 116.838 61.64 116.818L61.74 115.718L61.78 115.028C62.08 112.308 62.43 109.438 63.02 106.898L63.4 105.648L63.81 104.128L63.87 103.898L63.89 103.458L63.94 102.488V102.378L63.97 101.318L64.04 100.738L64.18 99.4779L64.52 96.6079L65.07 94.4979L65.15 93.2379L65.17 92.3979L65.26 91.5879L65.37 90.3879L65.34 89.6079L65.32 88.7679L65.48 87.1179C65.48 87.1179 65.49 87.0279 65.49 86.8979C65.52 86.4679 65.57 85.4879 65.62 84.7279C65.65 84.1979 65.67 83.7779 65.67 83.7779L65.54 83.1279L65.42 82.6479C65.31 81.6079 65.49 80.6079 65.66 79.6379C65.85 78.5479 66.05 77.4279 65.82 76.2979L65.66 75.5179L65.16 76.1379C64.44 77.0479 63.98 78.1179 63.49 79.2579L63.32 79.6679L63.04 80.1979L62.71 80.8379C62.71 80.8379 62.4 81.9479 62.4 81.9579L62.23 82.3479C62.23 82.3479 61.98 82.9579 61.98 82.9679L61.74 84.8279L61.45 85.6879L61.19 86.3879L60.83 88.8979L60.58 90.9979L60.28 91.8679C60.28 91.8679 60.23 92.0079 60.17 92.1679C60.09 92.4179 59.98 92.7179 59.98 92.7179C59.98 92.7179 58.61 95.8179 58.61 95.8279L58.35 96.2079L58.24 96.3679L57.69 97.2679L57.12 99.3079L56.87 100.368L56.02 103.268L54.77 107.808L54.59 108.398L54.34 109.338L54.19 110.598L53.9 112.618L53.5 113.958L53.05 115.548L52.98 115.918C52.98 115.918 52.74 117.348 52.74 117.358L52.77 118.188C52.77 118.188 52.76 118.958 52.76 118.968L52.52 119.188L51.94 119.968L52.19 121.308C52.35 121.768 52.54 122.288 52.41 122.588C52.26 122.968 51.04 123.058 50.23 123.108L49.2 123.198L48.82 123.088L49.02 124.178C49.02 124.178 49.09 124.428 49.11 124.428C49.03 124.538 48.5 124.738 47.58 124.788L42.84 124.578C42.84 124.578 42.25 124.528 41.79 124.478C42.07 123.118 42.93 122.068 43.83 121.108C43.83 121.108 44.42 120.458 44.49 120.328L45.02 118.868L45.16 118.708L44.45 117.928L44.06 117.438L44.19 117.048L44.35 116.628L44.55 114.898L44.66 113.688L46.2 105.958L46.85 103.058L47.26 100.608L47.43 99.7079L47.62 98.6579L47.8 97.6479L47.88 97.3979L47.98 97.0479L48.01 96.9279L48.26 95.9079L48.35 95.4979L48.47 95.0279L48.57 93.6579L48.62 92.8379V92.7679C48.64 92.6079 48.67 92.4879 48.69 92.3579C48.81 91.4679 49.09 90.9979 49.62 90.2079L49.71 90.0779L49.67 89.9279C49.66 89.8579 49.65 89.7979 49.65 89.7279C49.65 89.4379 49.83 89.1679 50.09 88.8379C50.12 88.8079 50.13 88.7779 50.16 88.7379C50.16 88.7379 50.31 88.4679 50.46 88.2079C50.59 87.9679 50.73 87.7279 50.73 87.7279L50.66 86.6779L50.58 86.3179C50.54 85.9779 50.52 85.6179 50.52 85.2679C50.52 84.2679 50.66 83.2479 50.81 82.2379C50.82 82.1279 50.84 82.0179 50.85 81.9079L50.89 81.4979L50.98 80.6679L51.07 79.9279L51.18 78.9079L51.13 78.1079L51.23 77.6179L51.32 76.5279L50.64 75.8979L50.25 75.6479L49.77 75.1379L49.23 74.7179L48.77 74.1079L48.39 73.5879L48.03 73.2779L47.9 73.1679L47.83 73.1179L47.77 72.1579C47.77 72.1579 47.77 71.4779 47.77 71.4479L47.72 71.0479L47.67 70.6779L48.09 68.7879L48.51 66.6779L48.33 65.9879L48.21 65.5679V65.2279L48.19 64.0379C48.19 64.0379 48.17 63.4279 48.15 62.8679C48.13 62.3979 48.11 61.9579 48.11 61.9579C47.79 59.6179 47.5 57.3179 47.5 55.0879C47.5 55.0279 47.5 54.9779 47.5 54.9279C47.5 54.0679 47.57 53.2179 47.68 52.3679C47.71 52.1379 47.72 51.9079 47.76 51.6879L48.38 46.5179L48.66 44.1679L48.96 41.6079V41.5279L49.1 40.7479L49.37 38.0879C49.37 38.0879 49.27 37.7079 49.21 37.5779L49.45 36.8779L49.7 36.2179L49.95 35.4279C49.95 35.4279 50.34 34.3479 50.68 33.3979C50.95 32.6579 51.19 31.9879 51.19 31.9879L51.95 31.0279C51.95 31.0279 52.03 30.9479 52.12 30.8379C52.24 30.7079 52.38 30.5479 52.44 30.4879C52.83 30.0279 53.28 29.5079 53.82 29.3479L54.35 29.2579L54.89 29.1779L58.04 28.5079L58.74 28.1779L59.04 27.9979L59.53 27.7379C59.53 27.7379 60.49 27.1579 60.71 27.0279C60.82 27.0279 61.01 27.0279 61.01 27.0279L62.14 26.7979C62.14 26.7979 62.31 26.4179 62.31 26.2679C62.31 26.2379 62.3 26.2179 62.28 26.2079L62.79 26.2579L63.41 26.1479L63.38 25.7179C63.45 25.6579 63.57 25.6279 63.72 25.6379L63.94 25.6579L64.06 25.4779C64.36 25.0279 64.71 24.4179 64.71 23.4379C64.71 23.3379 64.71 23.2279 64.69 23.1179C64.69 23.1179 64.35 22.8379 64.34 22.8379C64.34 22.8379 64.31 22.7279 64.27 22.6179C64.24 22.5179 64.2 22.3979 64.2 22.3979L64.09 21.9879L62.98 20.5579L62.52 20.0579L62.25 19.7579C61.48 18.5479 60.79 16.3979 60.6 14.6579V13.8179C60.67 13.2079 60.9 12.4679 61.19 11.8679C61.29 11.6679 61.39 11.4879 61.5 11.3179L62.66 10.4879L63.08 10.2379L64.96 9.39789L65.24 9.37789C65.24 9.37789 65.66 9.34789 65.65 9.34789L65.89 9.28789L66.32 9.17789C66.32 9.17789 66.9 9.03789 67.1 9.00789C67.1 9.00789 68.85 8.90789 68.86 8.90789L69.33 9.07789C69.33 9.07789 69.73 9.24789 69.74 9.24789L69.96 9.28789L70.35 9.35789C70.35 9.35789 70.75 9.41789 70.75 9.42789L71.36 9.76789C71.36 9.76789 71.76 9.94789 72.03 10.0779C72.11 10.2079 72.55 10.9979 72.63 11.1279C72.59 11.2479 72.55 11.3779 72.55 11.4979C72.55 11.6179 72.6 11.7279 72.63 11.8479C72.72 12.2179 72.91 12.5579 73.11 12.8679L73.3 13.1579L73.43 13.3779C73.43 13.3779 73.72 13.8579 73.72 13.8479C73.72 13.8479 73.99 14.1479 74.11 14.2579L74.03 14.6579L73.9 15.3679L74.52 16.6579C74.83 17.0879 75.15 17.5379 75.16 18.0879L75.08 18.9779L75 19.7779L74.93 20.0379L74.54 21.3779L74.27 22.1179C74.2 22.3179 74.14 22.4579 74.08 22.6079C73.77 23.2779 73.37 23.4779 72.16 23.6879L71.86 23.7579L71.83 25.3979L71.8 26.4379L71.85 26.5979L72.37 27.5379L72.57 27.7579L72.95 28.1679L73.27 28.5979C74.09 29.4279 75.3 29.8379 76.49 30.1479L77.25 30.3479L78.7 30.7979L79.93 31.1879L80.65 31.8479C80.65 31.8479 80.86 32.0779 80.87 32.0879L81.05 32.2779L81.69 33.0379C81.73 33.1379 81.74 33.2579 81.78 33.3579C82 34.0279 82.07 34.7879 82.12 35.5979C82.12 35.5979 82.32 37.5979 82.32 37.6079L82.55 38.2079L82.88 39.2079L81.67 39.7479L81.54 39.7979L81.52 40.0179C81.47 40.5479 81.44 41.0479 81.4 41.5579C81.34 42.4479 81.3 43.3079 81.29 44.1179C81.29 44.3479 81.27 44.5979 81.27 44.8179C81.27 46.3179 81.35 47.6879 81.52 48.9279L82.12 51.6179L82.28 52.3179L82.68 54.0179L82.76 54.8779L83.05 57.8379L83.18 59.6579C83.18 59.6579 83.39 61.3179 83.58 62.8179C83.74 64.0479 83.88 65.1679 83.88 65.1679V65.7979V66.4579L84.17 67.8279V69.0479L84.43 70.3179L84.63 71.5779L84.41 71.9579L84.1 72.4879L83.93 73.1079L83.87 73.3279C83.87 73.3279 83.47 74.3979 83.47 74.4079L82.94 74.6979L82.33 75.1379C82.33 75.1379 81.39 75.7879 81.34 75.8079C81.07 75.8379 80.66 75.8679 80.66 75.8679C80.66 75.8679 80.49 75.8979 80.34 75.9179C80.32 75.8779 80.29 75.8479 80.29 75.8079C80.29 75.7379 80.31 75.6779 80.33 75.6179C80.39 75.4679 80.53 75.3179 80.73 75.3179H81.2L81.08 74.8579C81.02 74.6179 81.08 74.5379 81.52 74.2879L82.24 73.5579L82.4 73.4679C82.54 73.3979 82.61 73.2479 82.65 73.1079C82.67 73.0579 82.69 72.9879 82.69 72.9379L82.29 72.8379C82.29 72.8379 82.29 72.7579 82.27 72.7279C82.27 72.7579 82.26 72.7879 82.25 72.8179L82.11 72.6779C82.02 72.5879 81.82 72.3979 81.45 72.4679L81.49 72.9579H81.39C81.01 72.7579 81.06 72.2279 81.19 71.3979L81.28 70.1379L81.08 69.5379L80.94 69.1379L81.12 67.8879L81.27 67.6079L81.53 67.0679C81.72 66.3579 81.59 65.7479 81.38 65.1879C81.26 64.8679 81.12 64.5579 80.96 64.2679L80.44 62.9379L80.4 62.8279L80.11 62.0679L79.74 62.8279C79.69 62.9379 79.67 63.0479 79.67 63.1379C79.67 63.3179 79.74 63.4579 79.82 63.5479L79.65 63.8579L79.77 64.9079C79.77 64.9079 79.8 65.0479 79.83 65.1779C79.84 65.2779 79.86 65.3679 79.86 65.3679C79.93 65.9779 79.96 66.5879 79.96 67.1879C79.96 69.2479 79.58 71.2079 79.19 73.1179C79.16 73.2779 79.13 73.4379 79.09 73.5879L78.75 75.2479L78.06 77.8979L77.61 80.0479L77.7 80.1079ZM64.67 81.9679C64.67 82.2179 64.69 82.4779 64.71 82.7379L64.96 83.8379L64.83 86.0979L61.11 92.3879C61.06 92.3679 60.99 92.3579 60.93 92.3379L61 92.1679L61.33 91.1879L61.6 88.9679L61.92 86.6179L62.15 85.9779L62.48 84.9979C62.48 84.9979 62.72 83.1579 62.72 83.1479L62.91 82.6779L63.11 82.2179L63.41 81.1179L64.01 79.9779L64.19 79.5679C64.48 78.8979 64.83 78.3379 65.16 77.7479C65.13 78.3279 65.05 78.9179 64.94 79.5179C64.81 80.3079 64.66 81.1179 64.66 81.9779L64.67 81.9679ZM64.61 88.7379L64.63 89.6679L64.66 90.3979L64.56 91.5079L64.46 92.3579L64.43 93.2579L64.36 94.4079L63.81 96.5279L63.59 98.4079L62.17 95.8379C62.43 95.5079 62.63 95.1279 62.67 94.7079C62.73 94.0179 62.44 93.3879 61.95 92.9179L64.63 88.3879C64.61 88.5979 64.6 88.7379 64.6 88.7379H64.61ZM63.42 99.5879C63.1 99.6679 62.81 99.7979 62.56 99.9679C61.9 98.7779 61.18 97.4979 60.76 96.7379C61.08 96.6579 61.37 96.5379 61.63 96.3579C62.04 97.0879 62.76 98.3879 63.42 99.5779V99.5879ZM72.5 106.688V106.618C73.02 106.528 75.17 106.138 77.09 105.788C77.15 106.068 77.26 106.318 77.42 106.568C75.18 106.978 72.57 107.448 72.57 107.448C72.53 107.448 72.47 107.448 72.41 107.398C72.46 106.998 72.5 106.718 72.5 106.698V106.688ZM78.7 92.8279C78.74 93.3179 78.99 93.7379 79.32 94.0879L73.11 102.318V102.288L73.21 101.548L73.89 98.0679L74.83 96.2979L75.27 95.5579L75.71 94.8479C75.71 94.8479 76.72 92.8079 76.72 92.7979L77.25 88.8079L77.32 88.1879L79.29 91.1579C78.89 91.6079 78.65 92.1979 78.71 92.8179L78.7 92.8279ZM80.76 90.3879C80.43 90.4479 80.14 90.5579 79.86 90.7179C79.11 89.5679 78.29 88.3579 77.85 87.6779C78.14 87.5579 78.4 87.3679 78.62 87.1579C79.08 87.8379 79.96 89.1679 80.76 90.3879ZM83.85 98.4279C83.75 98.6679 83.67 98.9079 83.65 99.1779C83.62 99.5379 83.67 99.8879 83.79 100.228L80.54 103.198C80.31 103.118 80.07 103.028 79.81 103.008C78.44 102.908 77.26 103.818 77.07 105.018L72.63 105.828L72.82 104.358L80.13 94.6679C80.54 94.8579 81 94.9879 81.49 94.9579C81.51 94.9579 81.53 94.9479 81.55 94.9479L83.85 98.4279ZM84.16 100.888C84.16 100.888 84.21 101.008 84.26 101.068C84.41 101.238 84.62 101.358 84.81 101.498C83.67 102.538 82.43 103.678 81.81 104.238C81.66 103.978 81.46 103.758 81.21 103.578C81.86 102.988 83.05 101.898 84.16 100.888ZM85 97.1379C84.72 97.2979 84.48 97.4879 84.27 97.7279C83.54 96.6179 82.76 95.4379 82.31 94.7479C82.61 94.6279 82.86 94.4579 83.1 94.2579C83.54 94.9079 84.28 96.0379 85.01 97.1379H85ZM90.62 94.5979C89.91 95.6779 89.15 96.8179 88.67 97.5379C88.45 97.3279 88.21 97.1279 87.92 96.9979C88.38 96.2979 89.07 95.2579 89.73 94.2679C90 94.4379 90.29 94.5379 90.62 94.6079V94.5979ZM89.2 100.678C89.81 101.018 90.58 101.448 91.34 101.878C91.14 102.088 90.99 102.338 90.89 102.598C90.09 102.148 89.26 101.698 88.63 101.338C88.85 101.148 89.04 100.938 89.19 100.678H89.2ZM91.82 94.5779L92.6 101.188C92.39 101.248 92.19 101.298 92.01 101.398L89.47 99.9879C89.5 99.8679 89.53 99.7479 89.54 99.6279C89.59 99.0979 89.43 98.6079 89.16 98.1479L91.5 94.6179C91.6 94.6079 91.72 94.6179 91.82 94.5879V94.5779ZM95.02 87.5979C94.25 88.7579 93.41 90.0279 92.96 90.7179C92.73 90.5179 92.47 90.3479 92.16 90.2279C92.65 89.4979 93.5 88.2179 94.27 87.0479C94.47 87.2679 94.73 87.4579 95.02 87.5979ZM99.89 99.7379C99.17 100.028 98.66 100.598 98.46 101.288L95.49 102.188C95.08 101.578 94.39 101.188 93.6 101.108L92.78 94.1479C93.3 93.7579 93.66 93.1879 93.72 92.5279C93.76 92.0979 93.62 91.6979 93.43 91.3279L95.77 87.7979C95.86 87.8179 95.93 87.8579 96.02 87.8579C96.35 87.8779 96.68 87.8379 96.98 87.7479L99.89 99.7179V99.7379ZM95.89 103.218C95.88 103.088 95.82 102.998 95.78 102.888C96.43 102.688 97.42 102.388 98.39 102.098C98.43 102.448 98.56 102.758 98.75 103.048C97.63 103.328 96.45 103.618 95.83 103.768C95.86 103.588 95.91 103.418 95.9 103.228L95.89 103.218ZM101.21 83.0979C100.2 83.6579 99.17 84.2379 98.55 84.5779C98.42 84.3279 98.24 84.0879 98.02 83.8879C98.65 83.5379 99.73 82.9379 100.75 82.3679C100.86 82.6379 101.01 82.8779 101.21 83.0879V83.0979ZM104.24 94.0979C103.66 94.5679 103.29 95.2479 103.35 96.0079C103.39 96.4379 103.59 96.8079 103.84 97.1379L101.83 99.6579C101.53 99.5579 101.21 99.5279 100.88 99.5379L97.91 87.3279C98.42 86.9379 98.76 86.3679 98.82 85.7279C98.83 85.5879 98.78 85.4579 98.76 85.3179L101.87 83.5779C102.18 83.7479 102.53 83.8679 102.92 83.9079L104.24 94.1079V94.0979ZM104.37 97.6579C104.63 97.8279 104.91 97.9779 105.23 98.0579C104.48 98.9879 103.69 99.9879 103.15 100.648C102.98 100.398 102.76 100.178 102.5 99.9979C103.02 99.3479 103.72 98.4779 104.37 97.6579ZM108.6 81.9379C108.45 82.1679 108.35 82.4379 108.29 82.7079C107.27 82.4579 106.3 82.2179 105.67 82.0579C105.69 81.9479 105.75 81.8679 105.76 81.7579C105.76 81.5679 105.72 81.3979 105.69 81.2079C106.29 81.3579 107.42 81.6379 108.6 81.9279V81.9379ZM110.12 85.3279L109.51 86.4179C109.51 86.4179 109.46 86.4179 109.44 86.4179C108.01 86.5279 106.96 87.6579 107.06 88.9479C107.11 89.4379 107.36 89.8579 107.69 90.2079L106.05 93.5279C105.93 93.5279 105.83 93.4779 105.72 93.4879C105.53 93.4979 105.37 93.5779 105.19 93.6279L103.92 83.8079C104.54 83.6379 105.06 83.2579 105.39 82.7579L108.29 83.4779C108.45 84.3779 109.14 85.0879 110.12 85.3379V85.3279ZM108.27 90.6879C108.55 90.8479 108.84 90.9579 109.17 91.0079C108.61 92.1279 108.03 93.3179 107.65 94.0879C107.41 93.8879 107.13 93.7479 106.81 93.6379C107.2 92.8579 107.75 91.7379 108.26 90.6879H108.27ZM111.89 85.5879C111.61 86.0979 111.35 86.5579 111.16 86.8979C110.91 86.7279 110.62 86.5979 110.29 86.5179C110.46 86.2279 110.67 85.8479 110.9 85.4279C111.16 85.4279 111.43 85.3979 111.67 85.3179L111.89 85.5879ZM115.08 86.9179C114.76 86.9979 114.47 87.1379 114.22 87.3179C113.73 86.7079 113.21 86.0679 112.77 85.5179L113.25 84.6379C113.77 85.2879 114.44 86.1279 115.07 86.9179H115.08ZM114.52 83.5879L115.8 86.6379L113.64 83.9479L113.74 83.7579C113.74 83.7579 113.8 83.7679 113.84 83.7579C114.08 83.7379 114.29 83.6579 114.51 83.5779L114.52 83.5879ZM118.26 77.7179C117.26 78.5879 116.19 79.5079 115.62 79.9979C115.42 79.7779 115.19 79.5879 114.92 79.4379C115.56 78.8979 116.76 77.8779 117.83 76.9679C117.93 77.2479 118.07 77.4879 118.27 77.7079L118.26 77.7179ZM120 78.6079L120.14 94.0079C120.03 93.9879 119.94 93.9379 119.83 93.9279L118.04 90.3079C118.22 90.0179 118.35 89.7079 118.38 89.3579C118.46 88.4479 117.94 87.6379 117.14 87.1879L115.42 83.1079C115.96 82.6379 116.3 81.9779 116.22 81.2579C116.2 81.0379 116.11 80.8479 116.03 80.6479L118.85 78.2179C119.2 78.4279 119.62 78.5479 120.05 78.5979C120.04 78.5979 120.01 78.6279 120.01 78.6279L120 78.6079ZM117.5 90.8879C117.88 91.6579 118.46 92.8479 119.02 93.9679C118.69 94.0279 118.4 94.1279 118.12 94.2879C117.6 93.2379 117.05 92.1179 116.67 91.3379C116.98 91.2379 117.26 91.0879 117.5 90.8879ZM128.07 77.7379C126.37 77.4379 123.97 76.9879 122.73 76.7679C122.79 76.5479 122.85 76.3279 122.82 76.0979C122.82 76.0379 122.78 75.9979 122.77 75.9479C123.98 76.1679 126.46 76.6179 128.2 76.9379C128.16 77.2079 128.1 77.4679 128.07 77.7479V77.7379ZM120.98 78.4479C121.59 78.2779 122.1 77.9479 122.43 77.4579L127.94 78.4679C126.86 84.6479 124.87 90.5879 122.04 96.1179C122 95.4479 121.65 94.8679 121.11 94.4579L120.99 78.4579L120.98 78.4479ZM41.66 125.238L42.83 125.338L47.69 125.558C48.16 125.528 48.53 125.458 48.85 125.368C48.9 125.608 49.04 125.808 49.28 125.888C54.7 127.448 60.35 128.248 66.05 128.248C86.76 128.248 105.78 117.818 116.95 100.348C117.16 100.028 117.07 99.6079 116.74 99.3979C116.42 99.1979 116 99.2879 115.79 99.6079C104.88 116.688 86.29 126.868 66.05 126.868C60.55 126.868 55.1 126.108 49.86 124.618C49.84 124.488 49.76 123.938 49.76 123.908C50.04 123.888 50.35 123.858 50.35 123.858C51.57 123.768 52.84 123.688 53.16 122.878C53.23 122.708 53.26 122.538 53.26 122.348C53.26 121.918 53.1 121.478 52.95 121.068C52.95 121.068 52.73 120.098 52.73 120.108L53.02 119.798C53.02 119.798 53.51 119.238 53.52 119.238L53.58 118.108L53.55 117.428L53.77 116.068L53.84 115.698L54.27 114.198L54.69 112.788L55 110.688L55.14 109.458L55.35 108.628L55.53 107.988L56.78 103.498L57.63 100.578L57.89 99.4779L58.41 97.5879L58.89 96.8279C58.89 96.8279 58.95 96.7379 59.02 96.6279C59.29 96.7379 59.57 96.8279 59.89 96.8479C59.92 96.8479 59.94 96.8479 59.96 96.8479L62.01 100.538C61.75 100.858 61.55 101.228 61.51 101.658C61.42 102.708 62.11 103.598 63.12 103.978L62.71 105.458L62.32 106.768C61.71 109.348 61.35 112.238 61.05 114.988L61 115.718C61 115.718 60.91 116.728 60.84 116.878L60.69 117.368C60.69 117.368 60.86 117.788 60.87 117.698C60.87 117.728 60.8 118.718 60.78 119.048C60.74 119.148 60.44 119.948 60.44 119.948L60.35 120.268L60.23 120.608C60.23 120.608 60.06 121.788 60.05 121.788C60.25 122.518 61.56 122.748 62.12 122.808L62.96 122.888C62.96 122.888 63.61 122.968 64.01 123.028C63.99 123.118 63.94 123.228 63.94 123.318C63.94 123.468 63.97 123.618 64.03 123.758C64.29 124.338 65.05 124.538 65.72 124.708C67.69 125.218 71.19 124.908 72.74 124.628L72.51 122.958C72.51 122.958 72.43 122.738 72.4 122.558C72.4 122.558 72.32 122.198 72.32 122.178L71.12 120.638C70.64 120.168 70.23 119.688 70.06 119.068L70.63 118.988L70.9 119.028L70.83 116.878L70.74 115.358L71.07 114.108L71.54 112.598L71.9 111.348C71.9 111.348 72.14 109.518 72.32 108.158C72.45 108.188 72.57 108.198 72.67 108.198L78.06 107.208C78.44 107.468 78.87 107.668 79.38 107.698C80.81 107.808 82.05 106.848 82.16 105.558C82.18 105.368 82.12 105.188 82.09 104.998L85.49 101.888C85.77 101.998 86.04 102.098 86.34 102.118C86.91 102.158 87.46 102.048 87.94 101.818L90.75 103.388C90.75 103.458 90.71 103.528 90.72 103.608C90.84 104.888 92.09 105.848 93.52 105.748C94.37 105.688 95.06 105.228 95.47 104.628L99.3 103.678C99.8 104.048 100.45 104.258 101.14 104.208C102.57 104.098 103.63 102.978 103.51 101.678C103.51 101.608 103.45 101.548 103.44 101.468L106.08 98.1779C106.08 98.1779 106.11 98.1779 106.13 98.1779C107.56 98.0679 108.62 96.9479 108.5 95.6579C108.47 95.3079 108.34 94.9879 108.17 94.7079L109.96 91.0879C111.32 90.9279 112.33 89.8379 112.21 88.5979C112.18 88.1579 111.98 87.7879 111.71 87.4479L112.38 86.2379L113.69 87.8679C113.43 88.1979 113.24 88.5679 113.2 88.9879C113.08 90.2679 114.14 91.3979 115.57 91.5079C115.68 91.5079 115.78 91.4779 115.89 91.4679L117.53 94.7879C117.2 95.1479 116.95 95.5579 116.91 96.0579C116.79 97.3479 117.85 98.4779 119.28 98.5779C119.91 98.6279 120.49 98.4379 120.96 98.1279C118.17 103.118 114.69 107.748 110.54 111.898C98.71 123.738 82.97 130.258 66.23 130.258C57.51 130.258 49.2 128.458 41.64 125.228L41.66 125.238ZM17.12 106.438L19.73 105.888C20.12 106.148 20.56 106.368 21.08 106.398C22.49 106.508 23.75 105.548 23.87 104.248C23.89 104.038 23.83 103.818 23.78 103.618L24.88 102.498C25.38 103.168 26.23 103.588 27.18 103.528C27.51 103.498 27.79 103.408 28.07 103.288L31.36 105.118C31.36 105.188 31.33 105.258 31.33 105.328C31.45 106.618 32.7 107.588 34.12 107.488C34.98 107.428 35.66 106.968 36.08 106.358L39.91 105.418C40.41 105.788 41.06 105.998 41.76 105.948C43.18 105.838 44.24 104.708 44.12 103.428C44.12 103.348 44.08 103.288 44.06 103.218L46.69 99.9179H46.7L46.59 100.528L46.19 102.928L45.54 105.818L43.98 113.618L43.87 114.888L43.69 116.488L43.58 116.778C43.58 116.778 43.38 117.538 43.38 117.548L44.04 118.518C44.04 118.518 44.22 118.708 44.32 118.808C44.18 119.198 43.91 119.958 43.91 119.998L43.34 120.628C42.92 121.078 42.49 121.568 42.11 122.088C42.05 121.908 41.94 121.748 41.75 121.658C34.36 118.318 27.83 113.568 22.37 107.538C22.11 107.248 21.68 107.238 21.4 107.488C21.12 107.738 21.1 108.178 21.35 108.458C26.95 114.628 33.63 119.488 41.2 122.908C41.33 122.958 41.47 122.938 41.6 122.918C41.3 123.478 41.05 124.078 40.98 124.788V124.918C31.59 120.758 23.41 114.378 17.11 106.418L17.12 106.438ZM16.04 105.068C16.82 104.908 17.82 104.698 18.79 104.488C18.85 104.778 18.96 105.028 19.12 105.268C18.29 105.438 17.39 105.628 16.6 105.798C16.42 105.558 16.22 105.328 16.04 105.078V105.068ZM14.05 102.238L15.94 89.4279C16.42 89.7279 16.99 89.9179 17.61 89.8679C17.71 89.8679 17.79 89.8179 17.88 89.7979L19.92 92.8779C19.48 93.3279 19.24 93.9379 19.3 94.5879C19.37 95.3679 19.88 95.9879 20.56 96.3679L20.46 101.868C19.55 102.138 18.88 102.868 18.74 103.758L15.57 104.428C15.05 103.708 14.54 102.988 14.05 102.248V102.238ZM8.29 91.4179L10.3 83.0379C10.71 83.2179 11.15 83.3479 11.64 83.3079C11.87 83.2879 12.07 83.2079 12.29 83.1379L15.32 86.2179C14.98 86.6479 14.78 87.1679 14.83 87.7279C14.85 88.0079 14.95 88.2579 15.08 88.4979L13.23 100.958C11.33 97.9479 9.67 94.7579 8.3 91.4279L8.29 91.4179ZM4.91 80.4679L8.9 81.3079C8.97 81.7179 9.16 82.0679 9.42 82.3779L7.77 90.0979C6.57 86.9979 5.61 83.7779 4.91 80.4679ZM4.66 79.1179C4.75 78.9279 4.87 78.8779 4.9 78.8679C4.9 78.8679 7.47 79.4079 9.27 79.7879C9.11 80.0279 9 80.2779 8.94 80.5679C7.18 80.1979 4.93 79.7179 4.76 79.6879C4.73 79.4979 4.69 79.3179 4.66 79.1279V79.1179ZM7.12 70.5079L7.06 67.9079C7.06 38.9979 27.69 14.5379 56.12 9.71789C56.49 9.65789 56.75 9.30789 56.68 8.92789C56.61 8.55789 56.26 8.30789 55.89 8.36789C26.8 13.2979 5.68 38.3279 5.68 67.8879L5.74 70.5479C5.74 70.9079 6.16 71.0779 6.16 71.0779C6.54 71.0779 6.79 70.7979 7.11 70.4879L7.12 70.5079Z" fill="#231F20"/>
</g>
<defs>
<clipPath id="clip0_118_190">
<rect width="132.48" height="133.5" fill="white" transform="translate(0 0.337891)"/>
</clipPath>
</defs>
</svg>
