<?xml version="1.0" encoding="utf-8"?><svg viewBox="0 0 177 135" xmlns="http://www.w3.org/2000/svg" xmlns:xlink="http://www.w3.org/1999/xlink"><style>:root>svg{display:none}:root>svg:target{display:block}</style><svg fill="none" viewBox="0 0 41 10" id="arrow-next" xmlns="http://www.w3.org/2000/svg"><path d="M40.424 4.576a.6.6 0 010 .848l-3.818 3.819a.6.6 0 11-.849-.849L39.152 5l-3.395-3.394a.6.6 0 11.849-.849l3.818 3.819zM0 4.4h40v1.2H0V4.4z" fill="currentColor"/></svg><svg fill="none" viewBox="0 0 41 10" id="arrow-prev" xmlns="http://www.w3.org/2000/svg"><path d="M.576 5.424a.6.6 0 010-.848L4.394.757a.6.6 0 01.849.849L1.849 5l3.394 3.394a.6.6 0 11-.849.849L.576 5.424zM41 5.6H1V4.4h40v1.2z" fill="currentColor"/></svg><svg fill="none" viewBox="0 0 42 10" id="arrowthree" xmlns="http://www.w3.org/2000/svg"><path d="M40.924 4.914a.6.6 0 010 .848l-3.818 3.819a.6.6 0 11-.849-.849l3.395-3.394-3.395-3.394a.6.6 0 11.849-.849l3.818 3.819zM.5 4.738h40v1.2H.5v-1.2z" fill="#8B0F1A"/></svg><svg fill="none" viewBox="0 0 177 135" id="book-quotes-svg" xmlns="http://www.w3.org/2000/svg"><path d="M99.957 75.378V.338H177v76.104c0 51.472-49.533 57.896-49.533 57.896l-6.593-15.016s22.012-3.212 26.405-20.356c4.412-12.868-4.393-23.588-4.393-23.588H99.957zm-99.055 0V.338h77.043v76.104c0 51.472-49.533 57.896-49.533 57.896l-6.604-15.016s22.013-3.212 26.415-20.356c4.412-12.868-4.402-23.588-4.402-23.588H.9z" fill="#F2F2F2"/></svg><svg fill="none" viewBox="0 0 27 36" id="cart" xmlns="http://www.w3.org/2000/svg"><path d="M26.666 10.237V34.3c0 .755-.538 1.367-1.203 1.367s-1.204-.612-1.204-1.367V11.604h-2.407v4.102c0 .755-.54 1.367-1.204 1.367-.665 0-1.204-.612-1.204-1.367v-4.102H7.89v4.102c0 .755-.54 1.367-1.204 1.367-.665 0-1.204-.612-1.204-1.367v-4.102H3.074v21.328h22.389c.665 0 1.203.612 1.203 1.367 0 .756-.538 1.368-1.203 1.368H1.87c-.665 0-1.203-.612-1.203-1.367V10.237c0-.755.538-1.367 1.203-1.367h3.668C6.016 4.257 9.48.667 13.666.667c4.188 0 7.65 3.59 8.129 8.203h3.668c.665 0 1.203.612 1.203 1.367zM19.364 8.87c-.46-3.1-2.84-5.469-5.698-5.469-2.857 0-5.237 2.37-5.697 5.469h11.395z" fill="currentColor"/></svg><svg fill="none" viewBox="0 0 24 2" id="decrem" xmlns="http://www.w3.org/2000/svg"><path stroke="#fff" d="M.09 1.25h22.956"/></svg><svg fill="none" viewBox="0 0 33 23" id="iconburger" xmlns="http://www.w3.org/2000/svg"><path fill-rule="evenodd" clip-rule="evenodd" d="M32.8 3.445V.223H.8v3.222h32zm0 6.444v3.222H.8V9.889h32zm0 9.666v3.222H.8v-3.222h32z" fill="#000"/></svg><svg fill="none" viewBox="0 0 14 14" id="increm" xmlns="http://www.w3.org/2000/svg"><path d="M.046 6.75h13.773M6.932.083v13.334" stroke="#fff"/></svg></svg>