<svg width="27" height="36" viewBox="0 0 27 36" fill="none" xmlns="http://www.w3.org/2000/svg">
<path d="M26.6665 10.237V34.2995C26.6665 35.0546 26.1276 35.6667 25.4628 35.6667C24.798 35.6667 24.2591 35.0546 24.2591 34.2995V11.6042H21.8517V15.7058C21.8517 16.4609 21.3128 17.073 20.648 17.073C19.9832 17.073 19.4443 16.4609 19.4443 15.7058V11.6042H7.88873V15.7058C7.88873 16.4609 7.34983 17.073 6.68502 17.073C6.02022 17.073 5.48132 16.4609 5.48132 15.7058V11.6042H3.07391V32.9324H25.4628C26.1276 32.9324 26.6665 33.5444 26.6665 34.2995C26.6665 35.0546 26.1276 35.6667 25.4628 35.6667H1.87021C1.2054 35.6667 0.666504 35.0546 0.666504 34.2995V10.237C0.666504 9.48195 1.2054 8.86986 1.87021 8.86986H5.53825C6.01643 4.25717 9.479 0.666733 13.6665 0.666733C17.854 0.666733 21.3166 4.25717 21.7948 8.86986H25.4628C26.1276 8.86986 26.6665 9.48195 26.6665 10.237ZM19.3636 8.86986C18.9038 5.7701 16.5243 3.40111 13.6665 3.40111C10.8087 3.40111 8.42925 5.7701 7.96943 8.86986H19.3636Z" fill="currentColor"/>
</svg>
