<svg width="20" height="20" viewBox="0 0 20 20" fill="none" xmlns="http://www.w3.org/2000/svg">
<path fill-rule="evenodd" clip-rule="evenodd" d="M12.1305 11.6617C12.521 11.2712 13.1542 11.2712 13.5447 11.6617L18.9434 17.0604C19.4633 17.5803 19.4633 18.4233 18.9434 18.9432C18.4235 19.4632 17.5805 19.4632 17.0606 18.9432L11.6619 13.5445C11.2714 13.154 11.2714 12.5209 11.6619 12.1303L12.1305 11.6617ZM2.93942 18.9432C2.41949 19.4632 1.57653 19.4632 1.0566 18.9432C0.536675 18.4233 0.536675 17.5803 1.0566 17.0604L8.11717 9.99984L1.0566 2.93927C0.536675 2.41934 0.536675 1.57637 1.0566 1.05645C1.57653 0.536522 2.41949 0.536522 2.93942 1.05645L9.99999 8.11702L17.0606 1.05645C17.5805 0.536522 18.4235 0.536522 18.9434 1.05645C19.4633 1.57637 19.4633 2.41934 18.9434 2.93927L2.93942 18.9432Z" fill="#231F20"/>
</svg>
