<svg width="16" height="16" viewBox="0 0 16 16" fill="none" xmlns="http://www.w3.org/2000/svg">
<path d="M2.16638 1.10566C1.87348 0.812763 1.39861 0.812763 1.10572 1.10566C0.812824 1.39855 0.812824 1.87342 1.10572 2.16632L6.93935 7.99995L1.10572 13.8336C0.812825 14.1265 0.812825 14.6013 1.10572 14.8942C1.39861 15.1871 1.87348 15.1871 2.16638 14.8942L8.00001 9.06061L13.8336 14.8942C14.1264 15.187 14.6013 15.187 14.8942 14.8942C15.1871 14.6013 15.1871 14.1264 14.8942 13.8335L9.06067 7.99995L14.8943 2.16632C15.1872 1.87342 15.1872 1.39855 14.8943 1.10566C14.6014 0.812763 14.1265 0.812763 13.8336 1.10566L8.00001 6.93929L2.16638 1.10566Z" fill="white"/>
</svg>
